<svg width="100" height="100" viewBox="0 0 100 100" fill="none" xmlns="http://www.w3.org/2000/svg">
<mask id="mask0_5868_16664" style="mask-type:alpha" maskUnits="userSpaceOnUse" x="0" y="0" width="100" height="100">
<circle cx="50" cy="50" r="50" fill="#D9D9D9"/>
</mask>
<g mask="url(#mask0_5868_16664)">
<circle cx="50" cy="50" r="50" fill="#FEAD1D" fill-opacity="0.2"/>
<path fill-rule="evenodd" clip-rule="evenodd" d="M68.5363 15.9546C69.5164 12.718 66.5932 9.64873 63.3128 10.47C61.7791 10.8539 60.5742 12.0391 60.165 13.5662L57.6397 22.9907L53.0798 15.0928C51.9528 13.1407 49.4568 12.4719 47.5048 13.5989C45.6236 14.685 44.9228 17.0543 45.9104 18.989L53.4471 33.7527C54.0288 34.8922 55.0346 35.6853 56.1815 36.0257C56.6736 36.5348 57.3059 36.9212 58.0397 37.1178C58.7225 37.3008 59.4123 37.2975 60.0546 37.1385C61.9342 38.3173 64.4107 38.2328 66.2227 36.7972L77.8069 27.6195C79.4669 26.3043 79.9122 23.9712 78.8533 22.1371C77.674 20.0947 75.0624 19.3949 73.0199 20.5741L65.891 24.6899L68.5363 15.9546Z" fill="#FE9300"/>
<path d="M-0.999825 70.7252C-0.999825 70.7252 3.00896 66.7678 6.16547 65.1567C9.79773 63.3028 16.2719 62.5294 16.2719 62.5294L20.685 71.8296L3.41328 80.0254L-0.999825 70.7252Z" fill="#753501"/>
<path d="M84.0091 61.5332C84.0091 61.5332 89.5432 62.5843 92.6622 64.2669C96.2512 66.2031 100.565 71.092 100.565 71.092L95.4184 80.0069L78.862 70.4481L84.0091 61.5332Z" fill="#753501"/>
<g filter="url(#filter0_i_5868_16664)">
<path d="M87.4448 66.054C89.2966 43.8605 71.7832 24.8249 49.5126 24.8249C27.3854 24.8249 9.92148 43.627 11.5521 65.694L13.7938 96.0295C14.4013 104.25 21.1845 110.646 29.4264 110.771L68.7599 111.365C77.1399 111.491 84.1862 105.106 84.8831 96.7542L87.4448 66.054Z" fill="#FEAD1D"/>
</g>
<g clip-path="url(#clip0_5868_16664)">
<path d="M74.7085 55.7072C72.272 55.7072 70.2968 53.732 70.2968 51.2955C70.2968 48.8589 72.272 46.8837 74.7085 46.8837C77.1451 46.8837 79.1203 48.8589 79.1203 51.2955C79.1203 53.732 77.1451 55.7072 74.7085 55.7072Z" fill="#FE9300"/>
<path d="M20.2967 55.7072C17.8602 55.7072 15.885 53.732 15.885 51.2955C15.885 48.8589 17.8602 46.8837 20.2967 46.8837C22.7333 46.8837 24.7085 48.8589 24.7085 51.2955C24.7085 53.732 22.7333 55.7072 20.2967 55.7072Z" fill="#FE9300"/>
<path d="M32.3155 55.1888C29.2353 55.1888 26.7383 52.681 26.7383 49.5876C26.7383 46.4942 29.2353 43.9864 32.3155 43.9864C35.3957 43.9864 37.8927 46.4942 37.8927 49.5876C37.8927 52.681 35.3957 55.1888 32.3155 55.1888Z" fill="#FFFCFB"/>
<path d="M32.3155 53.1406C30.3586 53.1406 28.7723 51.5498 28.7723 49.5876C28.7723 47.6253 30.3586 46.0346 32.3155 46.0346C34.2724 46.0346 35.8587 47.6253 35.8587 49.5876C35.8587 51.5498 34.2724 53.1406 32.3155 53.1406Z" fill="#7C5230"/>
<path d="M29.5425 49.5876C29.5425 50.8137 30.5318 51.8076 31.7579 51.8076C32.984 51.8076 33.9733 50.8137 33.9733 49.5876C33.9733 48.3615 32.984 47.3676 31.7579 47.3676C30.5318 47.3676 29.5425 48.3615 29.5425 49.5876Z" fill="#523520"/>
<path d="M35.2174 47.9511C36.8894 47.9511 36.894 50.5612 35.2174 50.5612C33.5408 50.5612 33.5408 47.9511 35.2174 47.9511Z" fill="white"/>
<path d="M32.3155 44.0329C29.6221 44.0329 27.4349 46.3133 27.4349 49.1231C27.4349 51.933 29.6175 54.2134 32.3155 54.2134C35.0136 54.2134 37.1962 51.933 37.1962 49.1231C37.1962 46.3133 35.0136 44.0329 32.3155 44.0329C35.3851 44.0329 37.8695 46.5316 37.8695 49.6108C37.8695 52.69 35.3804 55.1887 32.3155 55.1887C29.2506 55.1887 26.7616 52.69 26.7616 49.6108C26.7616 46.5316 29.2506 44.0329 32.3155 44.0329Z" fill="#FFEAE3"/>
<path d="M62.4212 55.1888C59.341 55.1888 56.844 52.681 56.844 49.5876C56.844 46.4942 59.341 43.9864 62.4212 43.9864C65.5014 43.9864 67.9984 46.4942 67.9984 49.5876C67.9984 52.681 65.5014 55.1888 62.4212 55.1888Z" fill="#FFFCFB"/>
<path d="M62.4214 53.1406C60.4645 53.1406 58.8782 51.5498 58.8782 49.5876C58.8782 47.6253 60.4645 46.0346 62.4214 46.0346C64.3782 46.0346 65.9646 47.6253 65.9646 49.5876C65.9646 51.5498 64.3782 53.1406 62.4214 53.1406Z" fill="#7C5230"/>
<path d="M59.0277 49.5876C59.0277 50.8137 60.017 51.8076 61.2431 51.8076C62.4692 51.8076 63.4585 50.8137 63.4585 49.5876C63.4585 48.3615 62.4692 47.3676 61.2431 47.3676C60.017 47.3676 59.0277 48.3615 59.0277 49.5876Z" fill="#523520"/>
<path d="M65.3646 47.9511C67.0366 47.9511 67.0413 50.5612 65.3646 50.5612C63.688 50.5612 63.688 47.9511 65.3646 47.9511Z" fill="white"/>
<path d="M62.4214 44.0329C59.728 44.0329 57.5407 46.3133 57.5407 49.1231C57.5407 51.933 59.7233 54.2134 62.4214 54.2134C65.1194 54.2134 67.302 51.933 67.302 49.1231C67.302 46.3133 65.1194 44.0329 62.4214 44.0329C65.4909 44.0329 67.9753 46.5316 67.9753 49.6108C67.9753 52.69 65.4863 55.1887 62.4214 55.1887C59.3565 55.1887 56.8674 52.69 56.8674 49.6108C56.8674 46.5316 59.3565 44.0329 62.4214 44.0329Z" fill="#FFEAE3"/>
<path d="M51.8853 55.6438C51.7209 55.1811 51.8777 54.6649 52.4016 54.5157C52.9828 54.3513 53.6329 54.3666 54.1568 54.6993C54.6271 54.9975 54.9484 55.5329 54.9292 56.0989C54.9063 56.7642 54.4627 57.2537 53.8662 57.4832C53.6023 57.5826 53.2964 57.6132 53.0172 57.5979C52.5889 57.5749 52.3021 57.4029 52.1071 57.0205C51.9924 56.7948 51.8853 56.5616 51.805 56.3168C51.7323 56.095 51.7744 55.8465 51.8853 55.64V55.6438Z" fill="#FEBE4C"/>
<path d="M46.6166 55.575C46.762 55.1773 47.1252 54.9364 47.5574 55.0396C48.0354 55.1543 48.6396 55.2232 49.0602 55.4947C49.1329 55.5138 49.2017 55.5444 49.2667 55.5826C49.695 55.858 49.8671 56.4163 49.6032 56.8713C49.5153 57.0205 49.4197 57.1619 49.3279 57.3073C49.0908 57.6935 48.7084 57.7929 48.2878 57.7317C47.9015 57.6744 47.5076 57.6094 47.1329 57.5023C46.8729 57.4296 46.6014 57.1964 46.5516 56.9172C46.4752 56.4813 46.4675 55.9956 46.6205 55.575H46.6166Z" fill="#FEBE4C"/>
<path d="M50.1305 57.747C50.4517 57.4258 51.0367 57.4029 51.3503 57.747C51.6562 58.0797 51.706 58.6457 51.3503 58.9707C51.27 59.0434 51.1744 59.1045 51.0712 59.1466C50.8494 59.3263 50.532 59.2996 50.2872 59.1887C49.9851 59.0548 49.8857 58.7642 49.901 58.4736C49.8628 58.2135 49.9278 57.9459 50.1305 57.7432V57.747Z" fill="#FEBE4C"/>
<path d="M41.3859 55.1161C41.4738 54.9478 41.6382 54.7949 41.8218 54.7031C41.9901 54.4201 42.2845 54.2289 42.644 54.2251C43.4776 54.2174 44.1545 54.6955 44.4489 55.4679C44.6439 55.9765 44.5445 56.5539 44.0321 56.8293C43.7185 56.9975 43.3399 57.074 42.9843 57.0625C42.3648 57.0434 41.6956 56.7643 41.382 56.1983C41.1985 55.8656 41.2138 55.445 41.382 55.1123L41.3859 55.1161Z" fill="#FEBE4C"/>
<path d="M43.5119 57.4564C43.7107 57.3646 43.8943 57.3034 44.1046 57.2614C44.357 57.2117 44.6782 57.1199 44.9191 57.2193C45.2633 57.357 45.5118 57.5826 45.5654 57.9688C45.6151 58.3474 45.4392 58.6533 45.1371 58.8675C44.9612 58.9937 44.7356 59.0051 44.5214 59.0204C44.4985 59.0204 44.4755 59.0281 44.4526 59.0319C44.3646 59.0472 44.2805 59.0548 44.1925 59.0663C44.1161 59.0778 44.0358 59.0931 43.9593 59.0969C43.5922 59.1275 43.1906 58.8025 43.1103 58.4468C43.03 58.0912 43.1562 57.6132 43.5157 57.4487L43.5119 57.4564Z" fill="#FEBE4C"/>
<path d="M38.1323 55.5023C38.5108 55.3838 38.92 55.3838 39.2718 55.5864C39.5548 55.7471 39.7307 56.0147 39.9219 56.2709C40.2011 56.6457 39.9946 57.2805 39.6045 57.487C39.5854 57.4946 39.5701 57.5023 39.551 57.5099C39.5204 57.5596 39.486 57.6055 39.4401 57.6552C39.4171 57.682 39.3942 57.7011 39.3674 57.7241C39.4745 57.6247 39.0156 58.0071 39.2183 57.8388C38.8971 58.1065 38.377 58.1944 38.0634 57.8388C37.6925 57.4143 37.5089 56.8904 37.5051 56.3283C37.5013 55.9421 37.7728 55.6132 38.1323 55.5023Z" fill="#FEBE4C"/>
<path d="M22.6704 44.6705C22.8539 43.986 23.4811 43.5156 24.177 43.4812C24.3491 43.4736 24.4944 43.5118 24.6474 43.573C24.7277 43.6036 24.8042 43.638 24.873 43.6839C24.8768 43.6839 25.1981 43.9707 25.0948 43.8866C25.1292 43.9133 25.1598 43.9439 25.1942 43.9707C25.8481 43.8827 26.3223 44.3646 26.372 44.9879C26.3988 45.3435 26.3147 45.6992 26.2497 46.0471C26.1732 46.4563 25.7143 46.7661 25.3166 46.7622C24.678 46.7508 24.0164 46.8311 23.4237 46.5443C22.7124 46.2001 22.4677 45.4123 22.6665 44.6743L22.6704 44.6705Z" fill="#FEBE4C"/>
<path d="M22.9955 49.5024C23.3817 49.4183 23.7756 49.3992 24.1427 49.5789C24.4486 49.7319 24.678 49.969 24.8348 50.2749C25.0604 50.7223 24.9151 51.2577 24.4371 51.4603C24.2727 51.5292 24.093 51.5406 23.9247 51.5024C23.6608 51.5712 23.3434 51.5253 23.1293 51.4068C22.6781 51.1582 22.5136 50.6535 22.4907 50.1678C22.4754 49.881 22.7163 49.5598 22.9993 49.4986L22.9955 49.5024Z" fill="#FEBE4C"/>
<path d="M20.0898 47.7527C20.1586 47.5117 20.3116 47.3435 20.4913 47.179C20.8584 46.8502 21.4053 46.8578 21.7188 47.2632C21.9789 47.5997 21.9253 48.0089 21.6729 48.2995C21.6423 48.4372 21.5812 48.5633 21.4856 48.6551C21.2332 48.8846 20.8737 48.9419 20.5716 48.7737C20.216 48.5748 19.9712 48.1656 20.0898 47.7527Z" fill="#FEBE4C"/>
<path d="M69.8386 47.5199C70.4237 47.0916 71.2688 46.9539 71.915 47.3249C72.286 47.539 72.5001 47.952 72.4963 48.3727C72.4886 48.8965 72.1292 49.3172 71.7124 49.5887C71.5365 49.7034 71.33 49.7302 71.1349 49.6919C70.9323 49.7417 70.7028 49.7149 70.5193 49.6346C70.1024 49.4549 69.7392 49.0419 69.5441 48.6365C69.3376 48.2082 69.4562 47.799 69.8348 47.5199H69.8386Z" fill="#FEBE4C"/>
<path d="M73.1268 48.8774C73.2645 48.7856 73.4251 48.7091 73.5819 48.6633C73.9261 48.5638 74.2473 48.7359 74.4844 48.9806C74.7865 49.2942 74.9853 49.6919 74.993 50.1279C74.993 50.2235 74.9777 50.3152 74.9433 50.4032C74.9853 50.7168 74.8438 51.0074 74.4959 51.1221C74.2894 51.1871 74.0676 51.2101 73.8534 51.2215C73.7655 51.2254 73.6775 51.2254 73.5896 51.2215C73.5819 51.2215 73.5437 51.2177 73.5093 51.2139C73.5016 51.2177 73.4863 51.2215 73.4672 51.2292C73.1804 51.3171 72.7559 51.1795 72.6221 50.885C72.3047 50.1737 72.4576 49.3248 73.1268 48.8736V48.8774Z" fill="#FEBE4C"/>
<path d="M72.1176 52.4108C72.435 52.3305 72.7715 52.2885 73.0966 52.3152C73.479 52.3497 73.7696 52.5523 73.892 52.9233C73.9876 53.2139 73.9685 53.5351 73.8231 53.8066C73.7734 53.8984 73.7237 53.9863 73.6434 54.0628C73.5861 54.1202 73.2534 54.3802 73.4675 54.2043C73.3604 54.2923 73.2457 54.3535 73.1234 54.3955C73.0622 54.5332 72.978 54.6556 72.8786 54.7703C72.5918 55.0953 72.0756 54.9691 71.8652 54.6403C71.6052 54.2311 71.5746 53.6154 71.5631 53.1451C71.5555 52.82 71.8041 52.4911 72.1176 52.4147V52.4108Z" fill="#FEBE4C"/>
<path d="M50.0002 77.9412C53.2489 77.9412 55.8825 75.3076 55.8825 72.0588C55.8825 68.8101 53.2489 66.1765 50.0002 66.1765C48.3023 66.1765 46.7267 67.0134 45.6054 68.1347C44.4841 69.256 43.6472 70.8316 43.6472 72.5294C43.6472 74.2953 44.5503 75.689 45.7681 76.5941C46.9637 77.4825 48.4998 77.9412 50.0002 77.9412Z" fill="#753501" stroke="#FE9300" stroke-width="2.94118"/>
</g>
<path d="M-7.42215 86.26C-12.7653 82.6776 -31.5 80.6388 -31.5 80.6388L-22.5 65C-22.5 65 0.645776 72.6509 2.87274 71.4495C15.7035 64.5274 21.0509 63.1591 23.6996 60.1722C24.9209 58.7949 26.0422 56.6818 28.3843 54.2187C31.0878 51.3755 33.521 49.4362 35.2354 48.2288C35.9888 47.6981 36.7809 48.4653 36.3378 49.2733L33.446 54.5451L39.2101 50.7239C40.1925 50.0727 41.3612 51.6095 40.4897 52.4031C37.389 55.2263 34.9886 57.5739 35.3217 57.7939C35.7314 58.0644 38.0259 56.7719 40.3503 55.3208C41.2662 54.749 42.3717 55.9541 41.6985 56.7983L37.6663 61.8549C37.7886 62.0667 40.1909 61.2569 42.4612 60.4337C43.4093 60.0899 44.1944 61.2887 43.4899 62.0104L38.4065 67.2181C37.356 68.2943 36.1819 69.2393 34.9029 70.0305C31.2446 72.2937 23.128 77.2854 17.3197 80.6388C9.6038 85.0935 -2.14877 89.7957 -7.42215 86.26Z" fill="#843B00"/>
<path d="M102.866 91.2091C108.955 89.1317 119.158 76.9953 119.158 76.9953L109.21 67.0479C109.21 67.0479 98.5956 75.9756 96.7555 74.2388C86.1535 64.2316 81.3424 61.526 79.5571 57.9553C78.7339 56.3089 78.1977 53.9776 76.5729 50.9922C74.6974 47.5462 72.849 45.0432 71.5056 43.4332C70.9152 42.7257 69.9514 43.2617 70.1704 44.1568L71.5992 49.9974L67.0205 44.8146C66.2401 43.9313 64.7134 45.1133 65.3499 46.1054C67.6143 49.6349 69.3253 52.5238 68.9465 52.6501C68.4808 52.8053 66.599 50.963 64.7294 48.9598C63.9927 48.1704 62.6129 49.0483 63.0447 50.038L65.6307 55.9659C65.4578 56.1388 63.347 54.7349 61.3671 53.3521C60.5403 52.7746 59.4716 53.7294 59.9653 54.6089L63.5277 60.9548C64.2639 62.2662 65.1534 63.4829 66.184 64.5782C69.1319 67.7111 75.68 74.6333 80.4224 79.3758C86.7225 85.6758 96.8576 93.2595 102.866 91.2091Z" fill="#843B00"/>
</g>
<defs>
<filter id="filter0_i_5868_16664" x="11.4465" y="24.8249" width="76.1327" height="86.5418" filterUnits="userSpaceOnUse" color-interpolation-filters="sRGB">
<feFlood flood-opacity="0" result="BackgroundImageFix"/>
<feBlend mode="normal" in="SourceGraphic" in2="BackgroundImageFix" result="shape"/>
<feColorMatrix in="SourceAlpha" type="matrix" values="0 0 0 0 0 0 0 0 0 0 0 0 0 0 0 0 0 0 127 0" result="hardAlpha"/>
<feOffset dx="1.47059"/>
<feComposite in2="hardAlpha" operator="arithmetic" k2="-1" k3="1"/>
<feColorMatrix type="matrix" values="0 0 0 0 0.996078 0 0 0 0 0.576471 0 0 0 0 0 0 0 0 1 0"/>
<feBlend mode="normal" in2="shape" result="effect1_innerShadow_5868_16664"/>
</filter>
<clipPath id="clip0_5868_16664">
<rect width="67.6471" height="57.3529" rx="7.5217" transform="matrix(-1 0 0 1 83.5322 30.7072)" fill="white"/>
</clipPath>
</defs>
</svg>
