<svg width="231" height="84" viewBox="0 0 231 84" fill="none" xmlns="http://www.w3.org/2000/svg">
<g clip-path="url(#clip0_19192_384)">
<mask id="mask0_19192_384" style="mask-type:luminance" maskUnits="userSpaceOnUse" x="147" y="0" width="84" height="84">
<path d="M231 0H147V84H231V0Z" fill="white"/>
</mask>
<g mask="url(#mask0_19192_384)">
<path d="M147 0H231V84H147V0Z" fill="white"/>
<path fill-rule="evenodd" clip-rule="evenodd" d="M190.298 66.4999L175.75 29.5985H186.944L195.536 52.8416L204.71 29.5985H215.356L200.807 66.4999H190.298Z" fill="#2E2957"/>
<path d="M215.46 17.9941H161V25.5459H215.46V17.9941Z" fill="#41C98E"/>
</g>
</g>
<rect x="148" y="1" width="82" height="82" rx="23.5" stroke="black" stroke-opacity="0.2" stroke-width="2"/>
<rect width="84" height="84" rx="24.5" fill="#54A1EE"/>
<path fill-rule="evenodd" clip-rule="evenodd" d="M26.5993 34.8157H31.4448V42.6815C30.3313 43.9381 28.948 44.9264 27.3984 45.5726C25.8488 46.2187 24.1731 46.5058 22.4968 46.4125C20.9037 46.4019 19.3295 46.0655 17.8712 45.4238C16.413 44.7822 15.1014 43.8489 14.0173 42.6815C12.1212 40.5052 11.1022 37.7015 11.1585 34.8157C11.1467 33.3412 11.426 31.8789 11.9803 30.5125C12.5346 29.1461 13.3531 27.9025 14.3888 26.853C15.436 25.7715 16.6915 24.9134 18.0795 24.3304C19.4674 23.7475 20.9591 23.4518 22.4645 23.4612C25.7759 23.4819 28.9671 24.7044 31.4448 26.9014L28.2145 30.584C27.5477 29.7621 26.702 29.1035 25.7419 28.6584C24.7817 28.2133 23.7325 27.9936 22.6745 28.0159C20.9737 28.0487 19.3544 28.7509 18.1682 29.9702C17.501 30.5896 16.9676 31.3391 16.601 32.1724C16.2343 33.0057 16.0421 33.9053 16.0362 34.8157C16.0171 35.7448 16.1877 36.668 16.5376 37.529C16.8875 38.3899 17.4094 39.1703 18.0713 39.8226C19.2309 40.9826 20.7651 41.6925 22.3999 41.8254C23.8553 41.9038 25.3052 41.5915 26.5993 40.9209V34.8157Z" fill="#EEEDE4"/>
<path d="M38.2447 28.985H33.4154V46.3964H38.2447V28.985Z" fill="#EEEDE4"/>
<path fill-rule="evenodd" clip-rule="evenodd" d="M47.2406 46.3964L40.3762 28.985H45.6577L49.7117 39.9519L54.0404 28.985H59.0635L52.1991 46.3964H47.2406Z" fill="#EEEDE4"/>
<path fill-rule="evenodd" clip-rule="evenodd" d="M65.637 32.5383V39.9519C65.7024 40.5567 65.9831 41.1179 66.4279 41.533C66.8726 41.9481 67.4518 42.1895 68.0597 42.2131C68.4616 42.2013 68.8554 42.0977 69.2109 41.9101C69.5665 41.7225 69.8744 41.456 70.111 41.131C70.9307 41.9522 71.7991 42.7235 72.7114 43.4406C72.0101 44.3009 71.1389 45.0073 70.1524 45.5159C69.1659 46.0244 68.0851 46.3241 66.9776 46.3964C66.1704 46.4314 65.3648 46.2988 64.6114 46.0069C63.858 45.7151 63.1734 45.2702 62.6005 44.7004C61.9815 44.0824 61.5025 43.3386 61.196 42.5193C60.8894 41.7 60.7625 40.8245 60.8239 39.9519V23.5096H65.6693V28.985H69.8687V32.5383H65.637Z" fill="#EEEDE4"/>
<path d="M58.8864 23.5096H33.4154V27.063H58.8864V23.5096Z" fill="#F2DF7F"/>
<rect x="18.0469" y="53.3242" width="45.744" height="18.8672" rx="3.28125" transform="rotate(-7.63048 18.0469 53.3242)" fill="#E28D4D"/>
<path d="M29.0487 68.0249L28.7728 65.9655L24.7368 66.5062L24.5165 64.8614L28.3505 58.2977L29.6083 58.1292L30.4027 64.0587L31.619 63.8958L31.8412 65.5544L30.6249 65.7174L30.9008 67.7768L29.0487 68.0249ZM26.3667 64.5994L28.7579 64.2791L28.3394 61.1554L26.3667 64.5994Z" fill="#F2DF7F"/>
<path d="M33.4202 65.6524L32.1073 55.8527L34.0147 55.5972L34.6388 60.2552L38.1318 55.0316L40.2327 54.7501L37.0565 59.6077L41.7824 64.5321L39.6262 64.821L36.0049 61.0007L34.935 62.4666L35.3276 65.3969L33.4202 65.6524ZM42.4865 64.4378L41.5162 57.1952L43.3684 56.947L44.3387 64.1897L42.4865 64.4378ZM41.3811 56.1862L41.1348 54.3479L42.9869 54.0997L43.2332 55.938L41.3811 56.1862ZM45.082 60.4038C44.9882 59.7035 45.0419 59.0537 45.243 58.4546C45.4429 57.8463 45.7648 57.3435 46.2088 56.9464C46.6527 56.5492 47.1879 56.3087 47.8145 56.2247C48.349 56.1531 48.846 56.2226 49.3057 56.433C49.7734 56.633 50.1541 56.9197 50.448 57.293L49.8962 53.1741L51.7483 52.926L52.8223 60.9426C52.8483 61.1361 52.899 61.27 52.9746 61.3443C53.0502 61.4186 53.1676 61.4545 53.3267 61.4519L53.5286 62.9585C53.2147 63.0662 52.9564 63.1336 52.7537 63.1608C52.422 63.2052 52.1344 63.1593 51.891 63.0231C51.6569 62.8856 51.5081 62.6851 51.4446 62.4216L51.3559 61.9692C51.1492 62.4565 50.8315 62.8508 50.4028 63.1521C49.9834 63.4522 49.5249 63.6356 49.0273 63.7022C48.5298 63.7689 48.0561 63.7339 47.6063 63.5971C47.1657 63.4592 46.7659 63.2407 46.407 62.9418C46.0572 62.6416 45.7645 62.2774 45.529 61.8494C45.3014 61.4109 45.1524 60.929 45.082 60.4038ZM50.8924 60.6102L50.661 58.8825C50.533 58.6276 50.3535 58.4078 50.1224 58.223C49.8913 58.0382 49.6433 57.9026 49.3785 57.8162C49.1124 57.7205 48.8549 57.6893 48.6061 57.7227C48.3205 57.7609 48.0705 57.8554 47.8562 58.006C47.6419 58.1567 47.4608 58.3451 47.3128 58.5713C47.1741 58.7962 47.0766 59.0485 47.0203 59.328C46.9731 59.6064 46.9693 59.893 47.0088 60.1878C47.0483 60.4827 47.1321 60.7576 47.26 61.0125C47.3959 61.2569 47.569 61.4635 47.7792 61.6323C47.9894 61.8011 48.2217 61.9248 48.4761 62.0033C48.7397 62.0805 49.0144 62.1 49.3 62.0617C49.4751 62.0383 49.6465 61.9872 49.8141 61.9084C49.9898 61.8192 50.1491 61.7135 50.2922 61.5911C50.4433 61.4583 50.5688 61.3102 50.6688 61.1467C50.7769 60.9728 50.8514 60.794 50.8924 60.6102ZM57.6042 62.5532C56.9868 62.6359 56.3835 62.6135 55.7943 62.4861C55.205 62.3587 54.6812 62.124 54.2226 61.7821L54.725 60.4907C55.205 60.7829 55.6634 60.9841 56.1003 61.0944C56.5464 61.2035 56.9629 61.2321 57.3499 61.1803C57.7093 61.1321 57.9863 61.0293 58.181 60.8719C58.3848 60.7133 58.4695 60.505 58.4349 60.247C58.4115 60.0719 58.3337 59.9463 58.2015 59.8702C58.0682 59.7849 57.8814 59.7208 57.6411 59.678C57.4101 59.6339 57.1272 59.5874 56.7923 59.5384C56.2344 59.435 55.7647 59.3244 55.3831 59.2066C55.0015 59.0889 54.7019 58.918 54.4843 58.6939C54.2746 58.4594 54.1433 58.144 54.0902 57.7477C54.026 57.2686 54.0908 56.8425 54.2847 56.4695C54.4866 56.086 54.7911 55.7685 55.1983 55.5169C55.6147 55.2642 56.1177 55.0983 56.7075 55.0193C57.2235 54.9502 57.723 54.9677 58.2059 55.0718C58.6876 55.1667 59.1414 55.3686 59.5674 55.6773L58.9784 56.9522C58.5716 56.7159 58.1936 56.5555 57.8446 56.4709C57.4944 56.3771 57.1488 56.3531 56.8079 56.3988C56.6143 56.4247 56.4331 56.4724 56.2642 56.5419C56.1045 56.6102 55.9768 56.7071 55.8811 56.8325C55.7933 56.9474 55.7624 57.1016 55.7883 57.2951C55.8117 57.4702 55.8763 57.6022 55.982 57.6913C56.0958 57.7698 56.2543 57.833 56.4577 57.8808C56.6703 57.9274 56.9256 57.9776 57.2236 58.0315C57.8263 58.1195 58.3375 58.2246 58.7572 58.3466C59.1861 58.4673 59.5192 58.6431 59.7565 58.874C59.9925 59.0956 60.1402 59.4276 60.1994 59.8699C60.2957 60.5886 60.1084 61.1859 59.6375 61.6617C59.1666 62.1375 58.4888 62.4347 57.6042 62.5532Z" fill="white"/>
<path d="M113.905 30.8084L115.292 29.4359C115.88 28.8547 116.83 28.8547 117.411 29.4359L129.559 41.4489C130.147 42.0301 130.147 42.9699 129.559 43.5449L117.411 55.5641C116.823 56.1453 115.873 56.1453 115.292 55.5641L113.905 54.1916C113.311 53.6042 113.324 52.6459 113.93 52.0709L121.46 44.9731H103.5C102.669 44.9731 102 44.3115 102 43.4892V41.5108C102 40.6885 102.669 40.0269 103.5 40.0269H121.46L113.93 32.9291C113.317 32.3541 113.305 31.3958 113.905 30.8084Z" fill="#003920"/>
<defs>
<clipPath id="clip0_19192_384">
<rect x="147" width="84" height="84" rx="24.5" fill="white"/>
</clipPath>
</defs>
</svg>
