<svg width="66" height="66" viewBox="0 0 66 66" fill="none" xmlns="http://www.w3.org/2000/svg">
<path d="M33 16.5C30.9604 16.5 28.9666 17.1048 27.2707 18.238C25.5748 19.3711 24.253 20.9817 23.4725 22.8661C22.692 24.7504 22.4877 26.8239 22.8857 28.8244C23.2836 30.8248 24.2657 32.6623 25.708 34.1045C27.1502 35.5468 28.9877 36.5289 30.9881 36.9268C32.9886 37.3248 35.0621 37.1205 36.9464 36.34C38.8308 35.5595 40.4414 34.2377 41.5745 32.5418C42.7077 30.8459 43.3125 28.8521 43.3125 26.8125C43.3125 24.0775 42.226 21.4544 40.292 19.5205C38.3581 17.5865 35.7351 16.5 33 16.5Z" fill="#404A70"/>
<path d="M32.9999 4.125C27.289 4.125 21.7063 5.81849 16.9578 8.99132C12.2093 12.1641 8.50835 16.6738 6.32287 21.95C4.13739 27.2262 3.56557 33.032 4.67972 38.6332C5.79386 44.2344 8.54394 49.3795 12.5822 53.4177C16.6204 57.4559 21.7655 60.206 27.3667 61.3202C32.9679 62.4343 38.7737 61.8625 44.0499 59.677C49.3261 57.4915 53.8358 53.7906 57.0086 49.0421C60.1814 44.2936 61.8749 38.7109 61.8749 33C61.8663 25.3445 58.8213 18.0051 53.4081 12.5918C47.9948 7.17857 40.6554 4.13363 32.9999 4.125ZM49.4844 51.4095C49.4434 48.704 48.3411 46.1229 46.415 44.2225C44.4888 42.3221 41.8932 41.2546 39.1874 41.25H26.8124C24.1066 41.2546 21.5109 42.3221 19.5848 44.2225C17.6587 46.1229 16.5564 48.704 16.5154 51.4095C12.7751 48.0698 10.1376 43.6728 8.95183 38.8007C7.76611 33.9287 8.08819 28.8114 9.87543 24.1264C11.6627 19.4415 14.8307 15.4099 18.9602 12.5655C23.0896 9.72111 27.9856 8.19808 32.9999 8.19808C38.0142 8.19808 42.9102 9.72111 47.0396 12.5655C51.169 15.4099 54.3371 19.4415 56.1244 24.1264C57.9116 28.8114 58.2337 33.9287 57.048 38.8007C55.8622 43.6728 53.2246 48.0698 49.4844 51.4095Z" fill="#404A70"/>
</svg>
