<svg width="32" height="32" viewBox="0 0 32 32" fill="none" xmlns="http://www.w3.org/2000/svg">
<circle cx="16" cy="16" r="16" fill="#BFDBFC"/>
<path d="M24.1 16.0001C24.1 16.4832 23.7125 16.8755 23.2354 16.8755H11.021L15.7996 21.4914C16.1462 21.8253 16.1586 22.3814 15.8288 22.7289C15.4991 23.0787 14.9524 23.0913 14.6067 22.7585L8.26881 16.6331C8.09677 16.4704 8 16.2407 8 16.0001C8 15.7594 8.09677 15.5334 8.26782 15.3657L14.6057 9.24023C14.9497 8.9088 15.4971 8.9212 15.8284 9.27122C16.1581 9.6176 16.1457 10.1736 15.7991 10.5087L11.0205 15.1246H23.2677C23.7435 15.125 24.1 15.5188 24.1 16.0001Z" fill="#54A1EE"/>
</svg>
