<svg width="39" height="52" viewBox="0 0 39 52" fill="none" xmlns="http://www.w3.org/2000/svg">
<path d="M12.1875 7.3125C12.1875 3.27387 15.4614 0 19.5 0C23.5386 0 26.8125 3.27387 26.8125 7.3125C26.8125 11.351 23.5386 14.625 19.5 14.625C15.4614 14.625 12.1875 11.351 12.1875 7.3125ZM38.0481 7.45195C36.779 6.18272 34.7211 6.18272 33.452 7.45195L24.6538 16.25H14.3461L5.54804 7.45195C4.27891 6.18272 2.22105 6.18272 0.951921 7.45195C-0.317307 8.72117 -0.317307 10.7789 0.951921 12.0482L10.5625 21.6586V48.75C10.5625 50.5449 12.0176 52 13.8125 52H15.4375C17.2324 52 18.6875 50.5449 18.6875 48.75V37.375H20.3125V48.75C20.3125 50.5449 21.7676 52 23.5625 52H25.1875C26.9824 52 28.4375 50.5449 28.4375 48.75V21.6586L38.0481 12.0481C39.3173 10.7788 39.3173 8.72117 38.0481 7.45195Z" fill="#404A70"/>
</svg>
