<svg width="39" height="31" viewBox="0 0 39 31" fill="none" xmlns="http://www.w3.org/2000/svg">
<path d="M28.303 14.9357L21.45 10.85V7.75H24.375C24.9137 7.75 25.35 7.31648 25.35 6.78125V4.84375C25.35 4.30852 24.9137 3.875 24.375 3.875H21.45V0.96875C21.45 0.433516 21.0137 0 20.475 0H18.525C17.9863 0 17.55 0.433516 17.55 0.96875V3.875H14.625C14.0863 3.875 13.65 4.30852 13.65 4.84375V6.78125C13.65 7.31648 14.0863 7.75 14.625 7.75H17.55V10.85L10.697 14.9357C10.4082 15.1078 10.1691 15.3513 10.0032 15.6424C9.83723 15.9336 9.75 16.2625 9.75 16.5971V31H15.6V25.1875C15.6 23.0472 17.3459 21.3125 19.5 21.3125C21.6541 21.3125 23.4 23.0472 23.4 25.1875V31H29.25V16.5971C29.25 15.9166 28.8905 15.2857 28.303 14.9357ZM0 23.9741V30.0312C0 30.5665 0.436312 31 0.975 31H7.8V19.375L1.18158 22.1929C0.830905 22.3424 0.532073 22.5909 0.322061 22.9075C0.11205 23.2241 7.74062e-05 23.595 0 23.9741H0ZM37.8184 22.1929L31.2 19.375V31H38.025C38.5637 31 39 30.5665 39 30.0312V23.9741C39 23.1991 38.535 22.4986 37.8184 22.1929Z" fill="#404A70"/>
</svg>
