<svg width="120" height="120" viewBox="0 0 120 120" fill="none" xmlns="http://www.w3.org/2000/svg">
<circle cx="60" cy="60" r="60" fill="#F2DF7F"/>
<path fill-rule="evenodd" clip-rule="evenodd" d="M73.5698 59.625H88.1879V83.3552C84.8288 87.1462 80.6556 90.128 75.9806 92.0773C71.3057 94.0266 66.2503 94.8928 61.193 94.6112C56.3867 94.5793 51.6376 93.5643 47.2382 91.6285C42.8388 89.6927 38.8819 86.8772 35.6112 83.3552C29.891 76.7896 26.8168 68.3313 26.9865 59.625C26.951 55.1767 27.7936 50.765 29.4659 46.6428C31.1382 42.5206 33.6074 38.7689 36.732 35.6025C39.8913 32.3398 43.679 29.7509 47.8663 27.9922C52.0537 26.2335 56.554 25.3414 61.0956 25.3698C71.0857 25.4323 80.7131 29.1205 88.1879 35.7487L78.4425 46.8585C76.431 44.3791 73.8795 42.3921 70.9829 41.0493C68.0863 39.7066 64.9211 39.0435 61.729 39.1109C56.5979 39.2097 51.7128 41.3284 48.1341 45.0069C46.1212 46.8756 44.5121 49.1365 43.406 51.6506C42.2998 54.1646 41.7199 56.8785 41.7021 59.625C41.6444 62.428 42.1591 65.2134 43.2148 67.8107C44.2704 70.4079 45.8449 72.7626 47.8418 74.7305C51.3401 78.2299 55.9688 80.3716 60.9007 80.7726C65.2915 81.009 69.6656 80.0669 73.5698 78.0439V59.625Z" fill="#A77F2C"/>
<circle cx="59.7987" cy="6.24161" r="2.21477" fill="#A77F2C"/>
<circle cx="59.7987" cy="113.758" r="2.21477" fill="#A77F2C"/>
<circle cx="113.557" cy="60" r="2.21477" transform="rotate(90 113.557 60)" fill="#A77F2C"/>
<circle cx="6.04036" cy="60" r="2.21477" transform="rotate(90 6.04036 60)" fill="#A77F2C"/>
<circle cx="97.8116" cy="21.987" r="2.21477" transform="rotate(45 97.8116 21.987)" fill="#A77F2C"/>
<circle cx="21.7859" cy="98.0129" r="2.21477" transform="rotate(45 21.7859 98.0129)" fill="#A77F2C"/>
<circle cx="97.8115" cy="98.0129" r="2.21477" transform="rotate(135 97.8115 98.0129)" fill="#A77F2C"/>
<circle cx="21.7857" cy="21.9871" r="2.21477" transform="rotate(135 21.7857 21.9871)" fill="#A77F2C"/>
<circle cx="106.355" cy="33.1208" r="2.21477" transform="rotate(60 106.355 33.1208)" fill="#A77F2C"/>
<circle cx="13.2427" cy="86.8792" r="2.21477" transform="rotate(60 13.2427 86.8792)" fill="#A77F2C"/>
<circle cx="86.6779" cy="106.556" r="2.21477" transform="rotate(150 86.6779 106.556)" fill="#A77F2C"/>
<circle cx="32.9194" cy="13.4439" r="2.21477" transform="rotate(150 32.9194 13.4439)" fill="#A77F2C"/>
<circle cx="111.725" cy="46.0863" r="2.21477" transform="rotate(75 111.725 46.0863)" fill="#A77F2C"/>
<circle cx="7.87197" cy="73.9137" r="2.21477" transform="rotate(75 7.87197 73.9137)" fill="#A77F2C"/>
<circle cx="73.7124" cy="111.927" r="2.21477" transform="rotate(165 73.7124 111.927)" fill="#A77F2C"/>
<circle cx="45.8852" cy="8.07336" r="2.21477" transform="rotate(165 45.8852 8.07336)" fill="#A77F2C"/>
<circle cx="111.725" cy="73.9137" r="2.21477" transform="rotate(105 111.725 73.9137)" fill="#A77F2C"/>
<circle cx="7.87201" cy="46.0863" r="2.21477" transform="rotate(105 7.87201 46.0863)" fill="#A77F2C"/>
<circle cx="45.8849" cy="111.927" r="2.21477" transform="rotate(-165 45.8849 111.927)" fill="#A77F2C"/>
<circle cx="73.7125" cy="8.0734" r="2.21477" transform="rotate(-165 73.7125 8.0734)" fill="#A77F2C"/>
<circle cx="106.355" cy="86.8792" r="2.21477" transform="rotate(120 106.355 86.8792)" fill="#A77F2C"/>
<circle cx="13.2426" cy="33.1208" r="2.21477" transform="rotate(120 13.2426 33.1208)" fill="#A77F2C"/>
<circle cx="32.9195" cy="106.556" r="2.21477" transform="rotate(-150 32.9195 106.556)" fill="#A77F2C"/>
<circle cx="86.6778" cy="13.4438" r="2.21477" transform="rotate(-150 86.6778 13.4438)" fill="#A77F2C"/>
</svg>
