<svg width="33" height="32" viewBox="0 0 33 32" fill="none" xmlns="http://www.w3.org/2000/svg">
<circle cx="16.75" cy="16" r="15" stroke="#89620F" stroke-opacity="0.5" stroke-width="2"/>
<path fill-rule="evenodd" clip-rule="evenodd" d="M20.3686 15.9H24.2667V22.228C23.371 23.239 22.2581 24.0341 21.0114 24.5539C19.7648 25.0737 18.4167 25.3047 17.0681 25.2296C15.7864 25.2211 14.52 24.9504 13.3468 24.4342C12.1736 23.918 11.1185 23.1672 10.2463 22.228C8.72088 20.4772 7.90111 18.2217 7.94636 15.9C7.9369 14.7138 8.16157 13.5373 8.60752 12.4381C9.05346 11.3388 9.71191 10.3383 10.5451 9.49397C11.3876 8.62391 12.3977 7.93355 13.5143 7.46457C14.6309 6.99558 15.831 6.75769 17.0421 6.76525C19.7061 6.78191 22.2734 7.76544 24.2667 9.53296L21.6679 12.4956C21.1316 11.8344 20.4512 11.3045 19.6787 10.9465C18.9063 10.5884 18.0622 10.4116 17.211 10.4295C15.8427 10.4559 14.54 11.0209 13.5857 12.0018C13.0489 12.5001 12.6199 13.1031 12.3249 13.7735C12.0299 14.4439 11.8753 15.1676 11.8705 15.9C11.8551 16.6475 11.9924 17.3902 12.2739 18.0828C12.5554 18.7754 12.9753 19.4033 13.5078 19.9281C14.4406 20.8613 15.675 21.4324 16.9901 21.5393C18.161 21.6024 19.3274 21.3512 20.3686 20.8117V15.9Z" fill="#89620F" fill-opacity="0.5"/>
</svg>
