<svg width="49" height="41" viewBox="0 0 49 41" fill="none" xmlns="http://www.w3.org/2000/svg">
<path d="M47.4688 5.46656H41.3438L40.6585 4.24425C40.4042 3.79023 40.0132 3.40839 39.5295 3.14151C39.0457 2.87463 38.4882 2.73325 37.9195 2.73322H32.7879L30.1771 0.403047C29.2115 -0.457956 27.5625 0.151921 27.5625 1.36911V14.168L39.8125 18.0724V15.0333H42.875C46.2581 15.0333 49 12.5861 49 9.56657V6.83323C49 6.07815 48.3148 5.46656 47.4688 5.46656ZM36.75 9.56657C35.904 9.56657 35.2188 8.95499 35.2188 8.1999C35.2188 7.44482 35.904 6.83323 36.75 6.83323C37.596 6.83323 38.2812 7.44482 38.2812 8.1999C38.2812 8.95499 37.596 9.56657 36.75 9.56657ZM9.1875 16.3999C7.4993 16.3999 6.125 15.1733 6.125 13.6666C6.125 12.1573 4.75357 10.9332 3.0625 10.9332C1.37143 10.9332 0 12.1573 0 13.6666C0 17.2251 2.56771 20.2309 6.125 21.3627V39.6333C6.125 40.3884 6.81023 41 7.65625 41H13.7812C14.6273 41 15.3125 40.3884 15.3125 39.6333V30.0666H30.625V39.6333C30.625 40.3884 31.3102 41 32.1562 41H38.2812C39.1273 41 39.8125 40.3884 39.8125 39.6333V20.974L25.4618 16.3999H9.1875Z" fill="#404A70"/>
</svg>
