<svg width="140" height="140" viewBox="0 0 140 140" fill="none" xmlns="http://www.w3.org/2000/svg">
<path d="M13.3083 70C13.3083 84.8521 19.2083 99.0959 29.7104 109.598C40.2124 120.1 54.4562 126 69.3083 126C84.1605 126 98.4043 120.1 108.906 109.598C119.408 99.0959 125.308 84.8521 125.308 70C125.308 55.1479 119.408 40.9041 108.906 30.402C98.4043 19.9 84.1605 14 69.3083 14C54.4562 14 40.2124 19.9 29.7104 30.402C19.2083 40.9041 13.3083 55.1479 13.3083 70Z" fill="#DBE8B6"/>
<path d="M118.878 43.9222C116.261 38.9605 112.915 34.4189 108.952 30.4486C100.161 29.537 91.4659 27.8648 82.964 25.4506C58.0734 18.2252 43.1032 24.8136 34.9272 31.6106C22.9852 41.5506 17.0072 59.01 18.9378 78.323C19.4632 83.4322 19.3296 88.5877 18.5402 93.6628C20.9373 98.7906 24.0964 103.526 27.9104 107.709C31.3501 97.8849 32.5679 87.4201 31.4762 77.0686C29.96 61.9304 34.265 48.559 42.987 41.3C51.4626 34.2468 63.7308 32.984 79.45 37.548C92.3108 41.1506 105.537 43.2889 118.878 43.9222Z" fill="#4ACFFF"/>
<path d="M39.809 66.9368C39.615 66.9586 39.4278 67.0206 39.2592 67.119C39.0907 67.2174 38.9446 67.35 38.8303 67.5082C38.716 67.6664 38.636 67.8467 38.5955 68.0376C38.555 68.2285 38.5549 68.4258 38.5952 68.6168L42.1904 85.4C42.2658 85.7521 42.474 86.0617 42.7718 86.2643C43.0695 86.4669 43.4339 86.5469 43.7892 86.4878L74.8902 81.3078C75.219 81.253 75.5567 81.3174 75.8423 81.4893C76.128 81.6613 76.3429 81.9295 76.4484 82.2458L77.112 84.2366C77.2132 84.5406 77.4156 84.8006 77.6854 84.9734C77.9552 85.1461 78.2761 85.2211 78.5946 85.1858L88.8244 84.049C89.1669 84.0111 89.4835 83.8481 89.7134 83.5914C89.9433 83.3346 90.0704 83.002 90.0704 82.6574V59.8374C90.0703 59.5189 89.9617 59.21 89.7624 58.9616C89.5631 58.7131 89.285 58.5401 88.9742 58.471L78.5666 56.1582C78.2557 56.0891 77.9776 55.916 77.7783 55.6676C77.579 55.4192 77.4704 55.1103 77.4704 54.7918V53.3918C77.4704 53.1867 77.4254 52.9841 77.3385 52.7983C77.2515 52.6126 77.1249 52.4482 76.9674 52.3167C76.81 52.1853 76.6256 52.0901 76.4272 52.0378C76.2289 51.9855 76.0215 51.9775 75.8198 52.0142L63.3962 54.2738C63.04 54.3386 62.7228 54.5388 62.5111 54.8325C62.2994 55.1262 62.2097 55.4904 62.2608 55.8488L63.266 62.8852C63.2924 63.0709 63.2813 63.2599 63.2333 63.4412C63.1852 63.6225 63.1013 63.7923 62.9864 63.9405C62.8714 64.0887 62.7279 64.2123 62.5643 64.304C62.4007 64.3957 62.2204 64.4536 62.034 64.4742L39.809 66.9368Z" fill="#A7CB42"/>
<path d="M90.0704 60.1076V82.6546L111.07 82.5076L116.67 62.9076L90.0704 60.1076Z" fill="#A7CB42"/>
<path d="M60.2266 43.0598C60.2266 46.6998 54.8478 53.3554 52.8794 55.671C52.7916 55.7741 52.6824 55.8568 52.5595 55.9136C52.4366 55.9704 52.3029 55.9998 52.1675 55.9998C52.0321 55.9998 51.8983 55.9704 51.7754 55.9136C51.6525 55.8568 51.5434 55.7741 51.4556 55.671C49.4858 53.3526 44.1084 46.6956 44.1084 43.0598C44.0943 41.9925 44.2924 40.9331 44.6911 39.943C45.0898 38.9529 45.6811 38.0518 46.4309 37.2921C47.1806 36.5324 48.0738 35.9292 49.0586 35.5175C50.0434 35.1058 51.1001 34.8938 52.1675 34.8938C53.2348 34.8938 54.2916 35.1058 55.2763 35.5175C56.2611 35.9292 57.1543 36.5324 57.904 37.2921C58.6538 38.0518 59.2452 38.9529 59.6439 39.943C60.0426 40.9331 60.2406 41.9925 60.2266 43.0598Z" fill="#AD81E1"/>
<path d="M64.4266 83.6598C64.4266 87.2998 59.0478 93.9554 57.0794 96.271C56.9916 96.3741 56.8825 96.4568 56.7596 96.5136C56.6367 96.5703 56.5029 96.5997 56.3675 96.5997C56.2322 96.5997 56.0984 96.5703 55.9755 96.5136C55.8526 96.4568 55.7434 96.3741 55.6556 96.271C53.6858 93.9526 48.3084 87.2956 48.3084 83.6598C48.2944 82.5925 48.4924 81.5331 48.8911 80.543C49.2898 79.5529 49.8812 78.6518 50.631 77.8921C51.3807 77.1324 52.2739 76.5292 53.2587 76.1175C54.2434 75.7058 55.3002 75.4938 56.3675 75.4938C57.4349 75.4938 58.4916 75.7058 59.4764 76.1175C60.4612 76.5292 61.3544 77.1324 62.1041 77.8921C62.8539 78.6518 63.4453 79.5529 63.8439 80.543C64.2426 81.5331 64.4407 82.5925 64.4266 83.6598Z" fill="#AD81E1"/>
<path d="M111.308 54.2598C111.308 57.8998 105.93 64.5554 103.96 66.871C103.872 66.974 103.763 67.0568 103.64 67.1135C103.517 67.1703 103.384 67.1996 103.249 67.1996C103.113 67.1996 102.98 67.1703 102.857 67.1135C102.734 67.0568 102.625 66.974 102.537 66.871C100.568 64.5526 95.1902 57.8956 95.1902 54.2598C95.1761 53.1925 95.3742 52.1331 95.7729 51.143C96.1715 50.1528 96.7629 49.2518 97.5127 48.4921C98.2624 47.7324 99.1556 47.1292 100.14 46.7175C101.125 46.3058 102.182 46.0938 103.249 46.0938C104.317 46.0938 105.373 46.3058 106.358 46.7175C107.343 47.1292 108.236 47.7324 108.986 48.4921C109.736 49.2518 110.327 50.1528 110.726 51.143C111.124 52.1331 111.322 53.1925 111.308 54.2598Z" fill="#AD81E1"/>
<path d="M72.8386 99.7614C74.2395 102.051 76.0775 104.042 78.2478 105.62C80.4181 107.199 82.8781 108.335 85.4874 108.964C88.0967 109.592 90.8042 109.7 93.4553 109.282C96.1063 108.863 98.6491 107.927 100.938 106.526C103.228 105.125 105.218 103.287 106.797 101.117C108.376 98.9468 109.512 96.4867 110.14 93.8774C110.769 91.2681 110.877 88.5607 110.458 85.9096C110.04 83.2585 109.104 80.7158 107.703 78.4265C106.302 76.1373 104.464 74.1464 102.294 72.5675C100.124 70.9886 97.6636 69.8526 95.0543 69.2245C92.445 68.5963 89.7376 68.4882 87.0865 68.9064C84.4354 69.3246 81.8927 70.2608 79.6034 71.6617C77.3142 73.0626 75.3233 74.9006 73.7444 77.0709C72.1655 79.2412 71.0295 81.7012 70.4014 84.3105C69.7732 86.9198 69.6651 89.6273 70.0833 92.2784C70.5015 94.9295 71.4377 97.4722 72.8386 99.7614Z" fill="#2E2957"/>
<path d="M73.9214 89.0932C73.9214 91.2402 74.3443 93.3662 75.1659 95.3498C75.9875 97.3334 77.1918 99.1357 78.71 100.654C80.2281 102.172 82.0304 103.376 84.014 104.198C85.9976 105.02 88.1236 105.442 90.2706 105.442C92.4176 105.442 94.5436 105.02 96.5272 104.198C98.5107 103.376 100.313 102.172 101.831 100.654C103.349 99.1357 104.554 97.3334 105.375 95.3498C106.197 93.3662 106.62 91.2402 106.62 89.0932C106.62 86.9462 106.197 84.8202 105.375 82.8366C104.554 80.8531 103.349 79.0508 101.831 77.5326C100.313 76.0144 98.5107 74.8102 96.5272 73.9885C94.5436 73.1669 92.4176 72.744 90.2706 72.744C88.1236 72.744 85.9976 73.1669 84.014 73.9885C82.0304 74.8102 80.2281 76.0144 78.71 77.5326C77.1918 79.0508 75.9875 80.8531 75.1659 82.8366C74.3443 84.8202 73.9214 86.9462 73.9214 89.0932Z" fill="#F1F7FF"/>
<path d="M125.53 123.207L125.345 123.39C124.601 124.13 123.594 124.545 122.545 124.545C121.496 124.545 120.489 124.13 119.745 123.39L107.576 111.223C107.33 110.975 107.192 110.639 107.192 110.29C107.192 109.94 107.33 109.605 107.576 109.357L111.496 105.437C111.744 105.191 112.079 105.052 112.428 105.052C112.778 105.052 113.113 105.191 113.361 105.437L125.53 117.604C125.899 117.971 126.192 118.408 126.391 118.889C126.591 119.369 126.694 119.885 126.694 120.406C126.694 120.926 126.591 121.442 126.391 121.922C126.192 122.403 125.899 122.84 125.53 123.207Z" fill="#2E2957"/>
<path d="M111.465 105.47L106.931 100.94C106.268 101.868 105.528 102.739 104.72 103.544C104.232 104.032 103.726 104.49 103.202 104.919L107.61 109.325L111.465 105.47Z" fill="#2E2957"/>
</svg>
