<svg width="140" height="140" viewBox="0 0 140 140" fill="none" xmlns="http://www.w3.org/2000/svg">
<mask id="mask0_6705_25667" style="mask-type:alpha" maskUnits="userSpaceOnUse" x="14" y="11" width="112" height="112">
<path d="M14 67C14 81.8521 19.9 96.0959 30.402 106.598C40.9041 117.1 55.1479 123 70 123C84.8521 123 99.0959 117.1 109.598 106.598C120.1 96.0959 126 81.8521 126 67C126 52.1479 120.1 37.9041 109.598 27.402C99.0959 16.9 84.8521 11 70 11C55.1479 11 40.9041 16.9 30.402 27.402C19.9 37.9041 14 52.1479 14 67Z" fill="#E8F4FA"/>
</mask>
<g mask="url(#mask0_6705_25667)">
<path d="M14 67C14 81.8521 19.9 96.0959 30.402 106.598C40.9041 117.1 55.1479 123 70 123C84.8521 123 99.0959 117.1 109.598 106.598C120.1 96.0959 126 81.8521 126 67C126 52.1479 120.1 37.9041 109.598 27.402C99.0959 16.9 84.8521 11 70 11C55.1479 11 40.9041 16.9 30.402 27.402C19.9 37.9041 14 52.1479 14 67Z" fill="#FEAD1D" fill-opacity="0.2"/>
<path d="M58.2064 53.5552C62.6864 57.625 66.976 57.8328 71.2264 63.5952C72.3212 65.082 69.6864 63.4762 71.3594 67.1148L89.5048 84.22C90.0926 84.8199 90.42 85.6275 90.4158 86.4673C90.4115 87.3072 90.076 88.1115 89.4821 88.7054C88.8882 89.2992 88.084 89.6348 87.2441 89.639C86.4043 89.6432 85.5966 89.3158 84.9968 88.728L84.8876 88.6188C85.4854 89.2168 85.8211 90.0277 85.821 90.8733C85.8209 91.7188 85.4849 92.5297 84.8869 93.1275C84.2889 93.7253 83.4779 94.0611 82.6324 94.0609C81.7868 94.0608 80.976 93.7248 80.3782 93.1268L79.2582 92.0068C79.846 92.6067 80.1734 93.4143 80.1692 94.2541C80.1649 95.094 79.8294 95.8983 79.2355 96.4921C78.6416 97.086 77.8374 97.4215 76.9975 97.4258C76.1576 97.43 75.35 97.1027 74.7502 96.5148L73.6302 95.3878C74.218 95.9877 74.5454 96.7953 74.5412 97.6351C74.5369 98.475 74.2014 99.2793 73.6075 99.8731C73.0136 100.467 72.2094 100.803 71.3695 100.807C70.5296 100.811 69.722 100.484 69.1222 99.8958L59.3572 90.1308C53.55 84.325 54.7876 81.0532 51.4682 77.7338L45.22 71.5374L14 50.2L23.1 26.6L58.2064 53.5552Z" fill="#662A00"/>
<path d="M30.0767 19.1373C29.9064 18.6713 29.4808 18.3891 28.9745 18.51C28.4144 18.6445 27.7065 18.7251 27.2136 19.0432C27.1285 19.0656 27.0478 19.1015 26.9717 19.1463C26.4698 19.4689 26.2682 20.123 26.5774 20.6562C26.6804 20.831 26.7924 20.9968 26.9 21.167C27.1778 21.6196 27.6258 21.7361 28.1187 21.6644C28.5712 21.5972 29.0327 21.521 29.4718 21.3955C29.7765 21.3104 30.0946 21.0371 30.1529 20.71C30.2425 20.1992 30.2514 19.6302 30.0722 19.1373H30.0767Z" fill="#662A00"/>
<path d="M96.7512 71.5878L126.7 43.2L116.9 25.7L82.1547 59.6388C80.2922 60.4841 78.2099 60.7184 76.2061 60.308L76.1655 60.2996C73.997 59.8541 71.7413 60.1654 69.7745 61.1816L62.2803 65.0526C61.5467 65.4516 60.444 66.2014 60.1999 67C59.9558 67.7986 60.5898 68.5823 60.975 69.3233C61.3601 70.0642 62.0207 70.6245 62.8145 70.8835C63.6084 71.1426 64.4723 71.0798 65.2203 70.7086L71.5567 67.3136L86.7033 81.5936L96.7512 71.5878Z" fill="#AD81E1"/>
<path d="M114.896 47.0935C114.77 46.7977 114.488 46.4662 114.143 46.4169C114.13 46.4169 114.116 46.4169 114.103 46.4124C113.565 46.1256 112.875 46.2466 112.543 46.7619C112.44 46.8605 112.36 46.9635 112.297 47.0711C112.104 47.4295 112.1 47.7745 112.167 48.1688C112.248 48.6393 112.821 49.056 113.287 49.0246C113.623 49.0022 113.946 48.9977 114.251 48.8319C114.542 48.6751 114.681 48.4018 114.838 48.133C115.026 47.8104 115.039 47.434 114.896 47.0935Z" fill="#C5A7EA"/>
<path d="M103.696 47.0935C103.57 46.7977 103.288 46.4662 102.943 46.4169C102.93 46.4169 102.916 46.4169 102.903 46.4124C102.365 46.1256 101.675 46.2466 101.344 46.7619C101.24 46.8605 101.16 46.9635 101.097 47.0711C100.904 47.4295 100.9 47.7745 100.967 48.1688C101.048 48.6393 101.621 49.056 102.087 49.0246C102.423 49.0022 102.746 48.9977 103.051 48.8319C103.342 48.6751 103.481 48.4018 103.638 48.133C103.826 47.8104 103.839 47.434 103.696 47.0935Z" fill="#C5A7EA"/>
<path d="M117.241 35.6388C116.56 35.7329 115.987 36.1406 115.561 36.6693C114.898 37.4893 113.76 38.6094 114.705 39.6713C115.346 40.3882 116.654 40.8139 117.595 40.6212C120.239 40.0791 120.342 35.2087 117.237 35.6388H117.241Z" fill="#C5A7EA"/>
<path d="M64.8295 87.1061C65.3931 87.7251 64.8687 89.4182 64.8295 90.2544C64.8098 90.6725 64.708 91.0827 64.5298 91.4614C64.3516 91.8402 64.1006 92.1801 63.791 92.4618L60.697 95.28C60.0704 95.8412 59.2475 96.1321 58.4075 96.0893C57.5674 96.0464 56.7783 95.6733 56.2122 95.0512C55.6461 94.4291 55.3488 93.6084 55.3851 92.7681C55.4213 91.9277 55.7883 91.1358 56.406 90.5648L59.5 87.748C59.8094 87.4661 60.1714 87.248 60.5652 87.1061C60.9589 86.9642 61.3768 86.9013 61.7949 86.9209C62.6312 86.9601 64.2661 86.4869 64.8295 87.1061Z" fill="#AD81E1"/>
<path d="M68.9912 92.2C69.5601 92.8254 69.0308 94.3511 68.9912 95.1956C68.9516 96.0402 68.5782 96.8344 67.9531 97.4038L66.6273 98.6106C66.0021 99.1798 65.1763 99.4773 64.3317 99.4376C63.487 99.398 62.6928 99.0244 62.1235 98.3992C61.5543 97.7739 61.2568 96.9481 61.2965 96.1035C61.3361 95.2589 61.7097 94.4646 62.3349 93.8954L63.6607 92.6886C64.2861 92.1196 65.1119 91.8223 65.9564 91.8619C66.801 91.9016 68.4218 91.575 68.9912 92.2Z" fill="#AD81E1"/>
<path d="M60.8004 82.1627C61.3642 82.7819 60.8397 84.4752 60.8004 85.3117C60.7808 85.7299 60.6789 86.1402 60.5007 86.519C60.3225 86.8979 60.0714 87.238 59.7618 87.5198L55.4904 91.409C55.1808 91.6908 54.8187 91.9089 54.4248 92.0508C54.0309 92.1927 53.6129 92.2557 53.1947 92.2361C52.7765 92.2164 52.3662 92.1146 51.9874 91.9364C51.6085 91.7582 51.2684 91.5072 50.9866 91.1976C50.7047 90.888 50.4866 90.5259 50.3447 90.132C50.2028 89.7381 50.1399 89.3201 50.1595 88.9019C50.1791 88.4837 50.281 88.0734 50.4591 87.6946C50.6373 87.3157 50.8884 86.9756 51.198 86.6938L55.4708 82.8046C55.7802 82.5227 56.1422 82.3046 56.536 82.1627C56.9298 82.0208 57.3477 81.9578 57.7658 81.9775C58.602 82.0167 60.237 81.5435 60.8004 82.1627Z" fill="#AD81E1"/>
<path d="M76.8096 89.5624L79.2512 92.0054L76.8096 89.5624Z" fill="#FFCEBF"/>
<path d="M81.5066 85.242L84.8876 88.6244L81.5066 85.242Z" fill="#FFCEBF"/>
<path d="M72.3016 94.0718L74.7432 96.5134L72.3016 94.0718Z" fill="#FFCEBF"/>
<path d="M40.5888 52.2951C40.5082 52.0128 40.329 51.8156 40.1184 51.623C39.6882 51.2376 39.0475 51.2466 38.6801 51.7215C38.3754 52.1158 38.4382 52.5953 38.7339 52.9358C38.7697 53.0971 38.8414 53.2449 38.9534 53.3525C39.2491 53.6213 39.6703 53.6885 40.0243 53.4914C40.441 53.2584 40.7277 52.779 40.5888 52.2951Z" fill="#843B00"/>
<path d="M48.4462 57.8553C48.2759 57.3893 47.8503 57.107 47.344 57.228C46.7839 57.3624 46.076 57.4431 45.5831 57.7612C45.498 57.7836 45.4173 57.8195 45.3411 57.8643C44.8393 58.1869 44.6377 58.841 44.9469 59.3742C45.0499 59.549 45.1619 59.7148 45.2695 59.885C45.5473 60.3376 45.9953 60.4541 46.4882 60.3824C46.9407 60.3152 47.4022 60.239 47.8413 60.1135C48.146 60.0284 48.4641 59.7551 48.5224 59.428C48.612 58.9172 48.6209 58.3482 48.4417 57.8553H48.4462Z" fill="#843B00"/>
<path d="M50.6011 66.7724C50.8102 66.3225 50.7088 65.8219 50.2652 65.5495C49.7741 65.2485 49.2165 64.8049 48.6431 64.6814C48.567 64.637 48.4847 64.6053 48.3991 64.5832C47.8162 64.4564 47.211 64.7764 47.0526 65.372C47.0019 65.5685 46.9639 65.7649 46.9195 65.9613C46.796 66.4778 47.0304 66.877 47.4296 67.1748C47.7972 67.4473 48.1773 67.7197 48.5765 67.9415C48.8522 68.0968 49.2704 68.1284 49.5429 67.9383C49.9674 67.6405 50.3761 67.2445 50.5979 66.7692L50.6011 66.7724Z" fill="#843B00"/>
</g>
</svg>
