<svg width="141" height="140" viewBox="0 0 141 140" fill="none" xmlns="http://www.w3.org/2000/svg">
<mask id="mask0_7330_710" style="mask-type:alpha" maskUnits="userSpaceOnUse" x="14" y="14" width="113" height="112">
<path d="M14.75 70C14.75 84.8521 20.65 99.0959 31.152 109.598C41.6541 120.1 55.8979 126 70.75 126C85.6021 126 99.8459 120.1 110.348 109.598C120.85 99.0959 126.75 84.8521 126.75 70C126.75 55.1479 120.85 40.9041 110.348 30.402C99.8459 19.9 85.6021 14 70.75 14C55.8979 14 41.6541 19.9 31.152 30.402C20.65 40.9041 14.75 55.1479 14.75 70Z" fill="#E8F4FA"/>
</mask>
<g mask="url(#mask0_7330_710)">
<path d="M14.75 70C14.75 84.8521 20.65 99.0959 31.152 109.598C41.6541 120.1 55.8979 126 70.75 126C85.6021 126 99.8459 120.1 110.348 109.598C120.85 99.0959 126.75 84.8521 126.75 70C126.75 55.1479 120.85 40.9041 110.348 30.402C99.8459 19.9 85.6021 14 70.75 14C55.8979 14 41.6541 19.9 31.152 30.402C20.65 40.9041 14.75 55.1479 14.75 70Z" fill="#FFF1B2"/>
<path d="M58.9564 56.5552C63.4364 60.625 67.726 60.8328 71.9764 66.5952C73.0712 68.082 70.4364 66.4762 72.1094 70.1148L90.2548 87.22C90.8426 87.8199 91.17 88.6275 91.1658 89.4674C91.1615 90.3072 90.826 91.1115 90.2321 91.7054C89.6382 92.2993 88.834 92.6348 87.9941 92.639C87.1543 92.6433 86.3466 92.3159 85.7468 91.728L85.6376 91.6188C86.2354 92.2168 86.5711 93.0278 86.571 93.8733C86.5709 94.7189 86.2349 95.5297 85.6369 96.1275C85.0389 96.7253 84.2279 97.0611 83.3824 97.061C82.5368 97.0608 81.726 96.7248 81.1282 96.1268L80.0082 95.0068C80.596 95.6067 80.9234 96.4143 80.9192 97.2542C80.9149 98.094 80.5794 98.8983 79.9855 99.4922C79.3916 100.086 78.5874 100.422 77.7475 100.426C76.9076 100.43 76.1 100.103 75.5002 99.5148L74.3802 98.3878C74.968 98.9877 75.2954 99.7953 75.2912 100.635C75.2869 101.475 74.9514 102.279 74.3575 102.873C73.7636 103.467 72.9594 103.803 72.1195 103.807C71.2796 103.811 70.472 103.484 69.8722 102.896L60.1072 93.1308C54.3 87.325 55.5376 84.0532 52.2182 80.7338L45.97 74.5374L14.75 53.2L23.85 29.6L58.9564 56.5552Z" fill="#662A00"/>
<path d="M30.8267 22.1373C30.6564 21.6714 30.2308 21.3891 29.7245 21.5101C29.1644 21.6445 28.4565 21.7251 27.9636 22.0433C27.8785 22.0657 27.7978 22.1015 27.7217 22.1463C27.2198 22.4689 27.0182 23.1231 27.3274 23.6563C27.4304 23.831 27.5424 23.9968 27.65 24.1671C27.9278 24.6196 28.3758 24.7361 28.8687 24.6644C29.3212 24.5972 29.7827 24.521 30.2218 24.3956C30.5265 24.3104 30.8446 24.0371 30.9029 23.71C30.9925 23.1993 31.0014 22.6302 30.8222 22.1373H30.8267Z" fill="#662A00"/>
<path d="M97.5012 74.5877L127.45 46.2L117.65 28.7L82.9047 62.6387C81.0422 63.4841 78.9599 63.7183 76.9561 63.3079L76.9155 63.2995C74.747 62.8541 72.4913 63.1654 70.5245 64.1815L63.0303 68.0526C62.2967 68.4516 61.194 69.2013 60.9499 70C60.7058 70.7986 61.3398 71.5822 61.725 72.3232C62.1101 73.0642 62.7707 73.6244 63.5645 73.8835C64.3584 74.1425 65.2223 74.0797 65.9703 73.7085L72.3067 70.3135L87.4533 84.5935L97.5012 74.5877Z" fill="#A87DDC"/>
<path d="M115.646 50.0934C115.52 49.7977 115.238 49.4661 114.893 49.4168C114.88 49.4168 114.866 49.4168 114.853 49.4123C114.315 49.1256 113.625 49.2466 113.293 49.7618C113.19 49.8604 113.11 49.9635 113.047 50.071C112.854 50.4294 112.85 50.7744 112.917 51.1687C112.998 51.6392 113.571 52.0559 114.037 52.0245C114.373 52.0021 114.696 51.9976 115.001 51.8319C115.292 51.675 115.431 51.4017 115.588 51.1329C115.776 50.8103 115.789 50.4339 115.646 50.0934Z" fill="#C5A7EA"/>
<path d="M104.446 50.0934C104.32 49.7977 104.038 49.4661 103.693 49.4168C103.68 49.4168 103.666 49.4168 103.653 49.4123C103.115 49.1256 102.425 49.2466 102.094 49.7618C101.99 49.8604 101.91 49.9635 101.847 50.071C101.654 50.4294 101.65 50.7744 101.717 51.1687C101.798 51.6392 102.371 52.0559 102.837 52.0245C103.173 52.0021 103.496 51.9976 103.801 51.8319C104.092 51.675 104.231 51.4017 104.388 51.1329C104.576 50.8103 104.589 50.4339 104.446 50.0934Z" fill="#C5A7EA"/>
<path d="M117.991 38.6388C117.31 38.7329 116.737 39.1406 116.311 39.6693C115.648 40.4893 114.51 41.6094 115.455 42.6713C116.096 43.3882 117.404 43.8139 118.345 43.6212C120.989 43.0791 121.092 38.2087 117.987 38.6388H117.991Z" fill="#C5A7EA"/>
<path d="M65.5795 90.1061C66.1431 90.725 65.6187 92.4181 65.5795 93.2543C65.5598 93.6724 65.458 94.0826 65.2798 94.4614C65.1016 94.8401 64.8506 95.18 64.541 95.4617L61.447 98.2799C60.8204 98.8412 59.9975 99.1321 59.1575 99.0892C58.3174 99.0464 57.5283 98.6732 56.9622 98.0511C56.3961 97.429 56.0988 96.6084 56.1351 95.768C56.1713 94.9277 56.5383 94.1357 57.156 93.5647L60.25 90.7479C60.5594 90.4661 60.9214 90.248 61.3152 90.1061C61.7089 89.9641 62.1268 89.9012 62.5449 89.9208C63.3812 89.9601 65.0161 89.4869 65.5795 90.1061Z" fill="#A87DDC"/>
<path d="M69.7412 95.2C70.3101 95.8254 69.7808 97.3511 69.7412 98.1956C69.7016 99.0402 69.3282 99.8344 68.7031 100.404L67.3773 101.611C66.7521 102.18 65.9263 102.477 65.0817 102.438C64.237 102.398 63.4428 102.024 62.8735 101.399C62.3043 100.774 62.0068 99.9481 62.0465 99.1035C62.0861 98.2589 62.4597 97.4646 63.0849 96.8954L64.4107 95.6886C65.0361 95.1196 65.8619 94.8223 66.7064 94.8619C67.551 94.9016 69.1718 94.575 69.7412 95.2Z" fill="#A87DDC"/>
<path d="M61.5504 85.1627C62.1142 85.7819 61.5897 87.4752 61.5504 88.3117C61.5308 88.7299 61.4289 89.1402 61.2507 89.519C61.0725 89.8979 60.8214 90.238 60.5118 90.5198L56.2404 94.409C55.9308 94.6908 55.5687 94.9089 55.1748 95.0508C54.7809 95.1927 54.3629 95.2557 53.9447 95.2361C53.5265 95.2164 53.1162 95.1146 52.7374 94.9364C52.3585 94.7582 52.0184 94.5072 51.7366 94.1976C51.4547 93.888 51.2366 93.5259 51.0947 93.132C50.9528 92.7381 50.8899 92.3201 50.9095 91.9019C50.9291 91.4837 51.031 91.0734 51.2091 90.6946C51.3873 90.3157 51.6384 89.9756 51.948 89.6938L56.2208 85.8046C56.5302 85.5227 56.8922 85.3046 57.286 85.1627C57.6798 85.0208 58.0977 84.9578 58.5158 84.9775C59.352 85.0167 60.987 84.5435 61.5504 85.1627Z" fill="#A87DDC"/>
<path d="M77.5596 92.5624L80.0012 95.0054L77.5596 92.5624Z" fill="#FFCEBF"/>
<path d="M82.2566 88.2419L85.6376 91.6243L82.2566 88.2419Z" fill="#FFCEBF"/>
<path d="M73.0516 97.0718L75.4932 99.5134L73.0516 97.0718Z" fill="#FFCEBF"/>
<path d="M41.3388 55.2951C41.2582 55.0128 41.079 54.8156 40.8684 54.623C40.4382 54.2376 39.7975 54.2466 39.4301 54.7215C39.1254 55.1158 39.1882 55.5953 39.4839 55.9358C39.5197 56.0971 39.5914 56.2449 39.7034 56.3525C39.9991 56.6213 40.4203 56.6885 40.7743 56.4914C41.191 56.2584 41.4777 55.779 41.3388 55.2951Z" fill="#843B00"/>
<path d="M49.1962 60.8552C49.0259 60.3893 48.6003 60.107 48.094 60.228C47.5339 60.3624 46.826 60.443 46.3331 60.7612C46.248 60.7836 46.1673 60.8194 46.0911 60.8642C45.5893 61.1868 45.3877 61.841 45.6969 62.3742C45.7999 62.5489 45.9119 62.7147 46.0195 62.885C46.2973 63.3375 46.7453 63.454 47.2382 63.3823C47.6907 63.3151 48.1522 63.2389 48.5913 63.1135C48.896 63.0283 49.2141 62.755 49.2724 62.4279C49.362 61.9171 49.3709 61.3481 49.1917 60.8552H49.1962Z" fill="#843B00"/>
<path d="M51.3511 69.7724C51.5602 69.3225 51.4588 68.8219 51.0152 68.5495C50.5241 68.2485 49.9665 67.8049 49.3931 67.6814C49.317 67.637 49.2347 67.6053 49.1491 67.5832C48.5662 67.4564 47.961 67.7764 47.8026 68.372C47.7519 68.5685 47.7139 68.7649 47.6695 68.9613C47.546 69.4778 47.7804 69.877 48.1796 70.1748C48.5472 70.4473 48.9273 70.7197 49.3265 70.9415C49.6022 71.0968 50.0204 71.1284 50.2929 70.9383C50.7174 70.6405 51.1261 70.2445 51.3479 69.7692L51.3511 69.7724Z" fill="#843B00"/>
</g>
</svg>
