<svg width="141" height="140" viewBox="0 0 141 140" fill="none" xmlns="http://www.w3.org/2000/svg">
<mask id="mask0_7330_863" style="mask-type:alpha" maskUnits="userSpaceOnUse" x="14" y="14" width="113" height="112">
<path d="M14.75 70C14.75 84.8521 20.65 99.0959 31.152 109.598C41.6541 120.1 55.8979 126 70.75 126C85.6021 126 99.8459 120.1 110.348 109.598C120.85 99.0959 126.75 84.8521 126.75 70C126.75 55.1479 120.85 40.9041 110.348 30.402C99.8459 19.9 85.6021 14 70.75 14C55.8979 14 41.6541 19.9 31.152 30.402C20.65 40.9041 14.75 55.1479 14.75 70Z" fill="#E8F4FA"/>
</mask>
<g mask="url(#mask0_7330_863)">
<path d="M14.75 70C14.75 84.8521 20.65 99.0959 31.152 109.598C41.6541 120.1 55.8979 126 70.75 126C85.6021 126 99.8459 120.1 110.348 109.598C120.85 99.0959 126.75 84.8521 126.75 70C126.75 55.1479 120.85 40.9041 110.348 30.402C99.8459 19.9 85.6021 14 70.75 14C55.8979 14 41.6541 19.9 31.152 30.402C20.65 40.9041 14.75 55.1479 14.75 70Z" fill="#FFF1B2"/>
<path d="M66.8089 57.0665C67.7661 57.6808 67.61 59.8476 67.8529 60.9588C68.0957 62.0699 61.2287 67.9882 60.615 68.9458L59.3129 70.9759C58.6989 71.9334 57.7296 72.6077 56.6183 72.8506C55.5071 73.0934 54.3449 72.8849 53.3874 72.2708C52.4299 71.6568 51.7555 70.6875 51.5127 69.5762C51.2698 68.465 25.886 73.8081 26.5001 72.8506L53.3945 64.3152C54.0088 63.358 61.6367 57.9277 62.7479 57.6848C63.859 57.442 65.8513 56.4528 66.8089 57.0665Z" fill="#662A00"/>
<circle cx="75.447" cy="61.3373" r="16.553" fill="#FFE500"/>
<circle cx="75.447" cy="61.3373" r="15.553" stroke="black" stroke-opacity="0.1" stroke-width="2"/>
<path fill-rule="evenodd" clip-rule="evenodd" d="M79.5619 61.5057H83.7233V68.261C82.767 69.3402 81.579 70.189 80.2482 70.7439C78.9174 71.2988 77.4782 71.5455 76.0386 71.4653C74.6704 71.4562 73.3184 71.1672 72.066 70.6162C70.8136 70.0651 69.6873 69.2636 68.7562 68.261C67.1278 66.392 66.2527 63.9841 66.301 61.5057C66.2909 60.2394 66.5307 58.9835 67.0068 57.81C67.4828 56.6366 68.1857 55.5686 69.0752 54.6672C69.9746 53.7384 71.0528 53.0014 72.2449 52.5008C73.4369 52.0001 74.718 51.7461 76.0108 51.7542C78.8547 51.772 81.5954 52.8219 83.7233 54.7088L80.949 57.8714C80.3764 57.1656 79.6501 56.6 78.8255 56.2177C78.0009 55.8355 77.0999 55.6467 76.1912 55.6659C74.7305 55.6941 73.3398 56.2972 72.3211 57.3443C71.7481 57.8763 71.29 58.5199 70.9751 59.2356C70.6602 59.9513 70.4952 60.7238 70.4901 61.5057C70.4736 62.3036 70.6202 63.0966 70.9207 63.8359C71.2212 64.5753 71.6694 65.2456 72.2379 65.8058C73.2337 66.802 74.5514 67.4117 75.9554 67.5258C77.2053 67.5931 78.4505 67.3249 79.5619 66.749V61.5057Z" fill="#A89414"/>
<path d="M77.5596 92.5624L80.0012 95.0054L77.5596 92.5624Z" fill="#FFCEBF"/>
<path d="M82.2566 88.2419L85.6376 91.6243L82.2566 88.2419Z" fill="#FFCEBF"/>
<path d="M73.0515 97.0718L75.4931 99.5134L73.0515 97.0718Z" fill="#FFCEBF"/>
<path d="M33.4137 69.2483C41.5465 68.8581 45.8246 64.9753 55.3492 66.4136C57.8049 66.7865 53.7711 67.7653 58.8237 69.6351L92.3554 68.6456C93.4852 68.657 94.5648 69.1138 95.3597 69.9168C96.1546 70.7197 96.6004 71.8039 96.6004 72.9338C96.6004 74.0636 96.1546 75.1478 95.3597 75.9508C94.5648 76.7537 93.4852 77.2105 92.3554 77.222L92.1476 77.222C93.2851 77.2221 94.3759 77.6742 95.1801 78.4786C95.9843 79.283 96.436 80.374 96.4358 81.5115C96.4356 82.6489 95.9836 83.7397 95.1792 84.5439C94.3747 85.3481 93.2838 85.7998 92.1463 85.7996L90.0155 85.7996C91.1453 85.8111 92.2249 86.2679 93.0198 87.0708C93.8147 87.8738 94.2606 88.958 94.2606 90.0878C94.2606 91.2177 93.8147 92.3019 93.0198 93.1048C92.2249 93.9078 91.1453 94.3646 90.0155 94.376L87.8781 94.3693C89.0079 94.3808 90.0875 94.8376 90.8824 95.6405C91.6773 96.4435 92.1232 97.5277 92.1232 98.6575C92.1232 99.7874 91.6773 100.872 90.8824 101.675C90.0875 102.477 89.0079 102.934 87.8781 102.946L69.3004 102.946C58.2537 102.947 56.3187 98.6575 50.0036 98.6575L38.1659 98.7068L-11.8287 108.107L-25.6216 77.002L33.4137 69.2483Z" fill="#662A00"/>
<path d="M-26.0839 63.2667C-26.6891 62.9854 -27.3625 63.1218 -27.7291 63.7185C-28.134 64.3791 -28.7307 65.1293 -28.8969 65.9007C-28.9566 66.003 -28.9992 66.1138 -29.029 66.2289C-29.1995 67.0131 -28.769 67.8272 -27.9678 68.0403C-27.7035 68.1085 -27.4393 68.1596 -27.175 68.2193C-26.4803 68.3855 -25.9432 68.0701 -25.5426 67.5331C-25.1761 67.0387 -24.8095 66.5272 -24.5112 65.9902C-24.3023 65.6194 -24.2597 65.0568 -24.5154 64.6903C-24.9161 64.1192 -25.4488 63.5693 -26.0882 63.271L-26.0839 63.2667Z" fill="#662A00"/>
<path d="M15.4566 84.8081C15.1113 84.6163 14.7533 84.5992 14.3697 84.6163C13.594 84.6589 12.9931 85.2769 13.0954 86.0782C13.1806 86.7431 13.6963 87.1394 14.3015 87.1821C14.4891 87.3014 14.6979 87.3739 14.9068 87.3696C15.4438 87.344 15.9084 87.0073 16.0575 86.4831C16.2323 85.8651 16.049 85.1362 15.4566 84.8081Z" fill="#843B00"/>
<path d="M28.2199 82.623C27.6147 82.3417 26.9412 82.4781 26.5747 83.0748C26.1698 83.7354 25.5731 84.4855 25.4069 85.257C25.3472 85.3593 25.3046 85.4701 25.2748 85.5852C25.1043 86.3694 25.5347 87.1835 26.336 87.3966C26.6003 87.4648 26.8645 87.5159 27.1288 87.5756C27.8235 87.7418 28.3605 87.4264 28.7612 86.8894C29.1277 86.395 29.4942 85.8835 29.7926 85.3465C30.0014 84.9757 30.0441 84.4131 29.7883 84.0465C29.3877 83.4754 28.8549 82.9256 28.2156 82.6273L28.2199 82.623Z" fill="#843B00"/>
<path d="M38.7522 89.0554C38.5231 88.4285 37.9505 88.0488 37.2694 88.2115C36.516 88.3923 35.5636 88.5008 34.9006 88.9288C34.786 88.9589 34.6776 89.0071 34.5751 89.0674C33.9 89.5014 33.6288 90.3814 34.0447 91.0987C34.1833 91.3338 34.334 91.5568 34.4786 91.7858C34.8523 92.3946 35.4551 92.5513 36.1181 92.4549C36.7269 92.3645 37.3478 92.262 37.9384 92.0932C38.3483 91.9787 38.7763 91.611 38.8546 91.171C38.9752 90.4839 38.9872 89.7184 38.7461 89.0554H38.7522Z" fill="#843B00"/>
<path d="M43.8902 79.8186C43.7553 79.2365 43.4179 78.8839 43.0165 79.035C42.5726 79.2029 42.0114 79.3037 41.6207 79.7011C41.5532 79.7291 41.4893 79.7739 41.4289 79.8298C41.0311 80.2328 40.8713 81.0501 41.1164 81.7161C41.1981 81.9344 41.2869 82.1415 41.3721 82.3543C41.5923 82.9196 41.9475 83.0651 42.3381 82.9756C42.6969 82.8916 43.0627 82.7964 43.4108 82.6397C43.6523 82.5334 43.9044 82.1919 43.9506 81.7833C44.0216 81.1452 44.0287 80.4343 43.8867 79.8186H43.8902Z" fill="#843B00"/>
</g>
</svg>
