<svg width="227" height="227" viewBox="0 0 227 227" fill="none" xmlns="http://www.w3.org/2000/svg">
<circle cx="113.5" cy="113.5" r="113.5" fill="#F3F3F3"/>
<mask id="mask0_770_2109" style="mask-type:luminance" maskUnits="userSpaceOnUse" x="0" y="0" width="227" height="227">
<circle cx="113.5" cy="113.5" r="113.5" fill="white"/>
</mask>
<g mask="url(#mask0_770_2109)">
<path d="M49.3198 116.717L34.0645 90.2935" stroke="#F4BF63" stroke-width="16" stroke-linecap="square"/>
<path d="M51.3627 114.768L34.1032 84.8738" stroke="#2E2957" stroke-width="3" stroke-linecap="square"/>
<path fill-rule="evenodd" clip-rule="evenodd" d="M25.4358 68.4492L38.7894 77.555L26.6449 84.5667L25.4358 68.4492Z" fill="#FFB12A"/>
<path d="M41.7453 83.9138L38.3128 77.9686L24.4194 66.8037L26.4224 84.8335L29.8549 90.7787L45.1103 117.202L48.5427 123.147L60.4331 116.282L57.0007 110.337L41.7453 83.9138Z" stroke="#2E2957" stroke-width="3"/>
<path fill-rule="evenodd" clip-rule="evenodd" d="M25.8423 67.5149L31.1936 71.1205L26.4285 74.7791L25.8423 67.5149Z" fill="#2E2957"/>
<path d="M154.88 177.329C154.88 177.329 183.114 181.758 189.421 212.515C195.727 243.272 177.029 262.23 177.029 262.23" stroke="#2E2957" stroke-width="10.5" stroke-linecap="round"/>
<path d="M93.752 178.893C93.752 178.893 63.8468 190.678 40.9821 164.143C18.1174 137.609 37.3824 103.543 37.3824 103.543" stroke="#2E2957" stroke-width="10.5" stroke-linecap="round"/>
<path fill-rule="evenodd" clip-rule="evenodd" d="M71.8833 30.2666L86.8262 32.4674C133.659 39.365 168.358 79.5492 168.358 126.887H71.8833V30.2666Z" fill="#2E2957"/>
<path d="M162.683 274.818H165.683V271.818V101.247C165.683 76.0833 145.284 55.6843 120.121 55.6843C94.9574 55.6843 74.5583 76.0834 74.5583 101.247V271.818V274.818H77.5583H162.683Z" fill="white" stroke="#2E2957" stroke-width="6"/>
<mask id="mask1_770_2109" style="mask-type:luminance" maskUnits="userSpaceOnUse" x="71" y="52" width="98" height="226">
<path d="M162.683 274.818H165.683V271.818V101.247C165.683 76.0833 145.284 55.6843 120.121 55.6843C94.9574 55.6843 74.5583 76.0834 74.5583 101.247V271.818V274.818H77.5583H162.683Z" fill="white" stroke="white" stroke-width="6"/>
</mask>
<g mask="url(#mask1_770_2109)">
<ellipse cx="90.327" cy="126.887" rx="9.93125" ry="9.94623" fill="#E26952" fill-opacity="0.5"/>
<ellipse cx="151.333" cy="126.887" rx="9.93125" ry="9.94623" fill="#E26952" fill-opacity="0.5"/>
<path fill-rule="evenodd" clip-rule="evenodd" d="M80.3958 149.621L122.958 177.645L162.683 159.568V237.717H80.3958V149.621Z" fill="#41C98E"/>
<ellipse cx="103.096" cy="108.415" rx="5.675" ry="5.68356" fill="#2E2957"/>
<ellipse cx="137.146" cy="108.415" rx="5.675" ry="5.68356" fill="#2E2957"/>
<path d="M78.2678 161.699L118.549 187.656C119.533 188.29 120.795 188.294 121.783 187.667L162.683 161.699" stroke="#2E2957" stroke-width="6" stroke-linecap="square"/>
<path d="M108.804 142.281C108.804 142.281 125.299 145.123 129.221 135.917" stroke="#2E2957" stroke-width="6" stroke-linecap="round"/>
</g>
</g>
</svg>
