<?xml version="1.0" encoding="UTF-8"?><svg id="Layer_1" xmlns="http://www.w3.org/2000/svg" viewBox="0 0 973.3 936.12"><g><path d="m292.04,406.01c0-36.28-.85-72.59.18-108.84,2.17-76.95,55.34-140.16,130.48-156.56,80.79-17.63,163.51,28.5,190.73,106.3,6.32,18.07,9.42,36.67,9.42,55.78.02,71.74-.04,143.48.13,215.23.01,4.45-1.47,6.76-5.1,9.06-52.43,33.18-104.79,66.47-157.05,99.91-4.4,2.81-7.63,2.79-12.01-.03-47.82-30.86-95.77-61.52-143.66-92.29-3.9-2.51-7.84-5.07-11.26-8.17-1.38-1.25-2-3.98-2-6.04-.11-38.12-.08-76.23-.08-114.35.08,0,.16,0,.24,0Zm165.78,63.88c23.31-.35,44.62-9.26,57.72-33.2,3.66-6.68,2.54-12.79-3.08-16.08-5.53-3.24-11.58-1.11-15.41,5.44-.34.57-.67,1.15-.99,1.73-5.44,9.62-13.48,15.89-24.2,18.57-17.45,4.35-34.3,1.17-50.95-4.22-7.23-2.34-12.91-.08-15.12,6.09-2.1,5.86.88,11.36,7.84,13.87,13.38,4.82,27.16,7.67,44.19,7.8Zm-66.67-118.72c12.09-.07,22.02-10.03,21.82-21.89-.2-11.8-10.07-21.46-21.82-21.37-11.83.09-21.55,9.83-21.57,21.62-.02,11.69,9.96,21.7,21.57,21.63Zm137.48,0c11.87.14,21.79-9.44,21.92-21.17.13-12.21-9.37-21.97-21.5-22.08-11.72-.11-21.68,9.66-21.82,21.41-.14,11.64,9.72,21.7,21.4,21.84Z" style="fill:#fff;"/><path d="m622.61,845.67h-330.45v-294.38c6.64,3.93,13.06,7.48,19.23,11.43,43.34,27.77,86.65,55.6,129.92,83.48,8.68,5.59,17.07,6.19,26.06.49,50.06-31.74,100.22-63.33,150.35-94.96,1.39-.87,2.81-1.69,4.9-2.95v296.89Z" style="fill:#fff;"/><path d="m622.85,867.78c0,14.47.08,28.42-.14,42.36-.02,1.23-1.76,3.04-3.08,3.53-5.74,2.14-11.63,3.88-18.03,5.95v-51.85h21.25Z" style="fill:#fff;"/></g><g><path d="m289.82,865.92v33.62c-6.85-3.21-13.05-5.92-19-9.1-1.07-.57-1.52-3.09-1.53-4.72-.11-14.65-.07-29.3-.07-43.95,0-66.26,0-132.52,0-198.78,0-2.12,0-4.24,0-6.51-20.53-3.39-39.55-9.57-57.31-19.38-36.95-20.41-64.69-49.77-83.72-87.27-22.59-44.54-29.61-92.22-26.05-141.51,1.44-19.99,4.86-39.9,8.37-59.67,2.41-13.6,15.07-20.08,26.65-14.95,8.42,3.73,12.85,12.73,10.55,22.45-7.21,30.51-9.98,61.38-7.66,92.64,3.41,46,17.08,88.04,49.02,122.62,20.8,22.51,45.65,38.53,75.86,45.46,1.12.26,2.28.33,4,.56V27.05c10.08,1.42,19.54,2.7,28.99,4.08,37.66,5.53,75.36,10.84,112.97,16.7,85.41,13.3,150.73,57.03,195.42,130.96,17.33,28.67,28.8,59.89,34.47,92.96,1.9,11.09,2.56,22.51,2.58,33.77.18,93.06.09,186.13.07,279.19,0,2.1,0,4.19,0,6.99,12.27-4.35,22.82-10.18,32.68-17.25,40.13-28.79,62.49-68.61,71.45-116.46,7.55-40.32,5.62-80.48-3.53-120.35-3.58-15.62,7.01-27.98,21.89-25.08,7.99,1.56,13.07,6.76,14.62,14.59,2.84,14.34,5.79,28.7,7.51,43.19,3.7,31.07,3.03,62.14-2.71,92.96-10.92,58.68-38.41,107.29-87.53,142.48-15.09,10.81-31.53,19.18-49.4,24.43-3.83,1.13-5.09,2.74-5.09,6.85.14,86.4.03,172.81.27,259.22.02,6.04-1.7,9.01-7.43,10.46-4.47,1.13-8.72,3.1-13.79,4.96v-45.4c-110.99-.72-221.37-.1-332.55-.38Zm.74-461.06c0,38.44-.03,76.88.09,115.33,0,2.03.74,4.76,2.15,5.94,4.3,3.58,9.01,6.72,13.73,9.76,47.12,30.38,94.3,60.66,141.39,91.1,4.18,2.7,7.52,2.72,11.72.03,52.37-33.54,104.8-67,157.31-100.31,3.86-2.45,5.2-5.06,5.2-9.58-.14-70.91-.06-141.82-.16-212.73-.01-8.13-.29-16.33-1.36-24.38-5.95-44.64-26.7-81.15-62.06-108.89-36.81-28.89-79.05-39.61-125.17-33.41-46.48,6.24-83.72,28.93-111.46,66.75-21.68,29.56-31.54,62.98-31.42,99.53.11,33.62.02,67.25.02,100.87Zm.39,440.59h331.15v-297.65c-1.63.64-3.07.97-4.25,1.71-15.42,9.67-30.81,19.37-46.18,29.12-33.95,21.53-67.94,43-101.78,64.71-9.29,5.96-18.23,8.97-28.53,2.32-40.16-25.95-80.4-51.78-120.67-77.57-9.56-6.12-19.34-11.9-29.74-18.28v295.64Z" style="fill:#2e2957;"/><path d="m455.7,468.99c-15.71-.3-29.53-2.97-42.91-7.86-6.85-2.51-9.71-7.68-7.76-13.46,1.99-5.89,7.78-8.25,14.68-5.94,14.18,4.73,28.63,7.42,43.63,5.69,14.44-1.66,25.77-8.13,32.75-21.38,3.21-6.1,7.85-8.37,12.87-6.8,6.59,2.07,9.3,8.9,6.01,15.26-10.49,20.24-27.49,30.9-49.77,33.71-3.62.46-7.28.6-9.49.77Z" style="fill:#2e2957;"/><path d="m368.91,328.95c-.02-11.59,9.55-21.29,21.11-21.41,11.71-.12,21.75,9.81,21.69,21.45-.06,11.26-9.99,21.1-21.48,21.27-11.27.17-21.29-9.86-21.31-21.31Z" style="fill:#2e2957;"/><path d="m527.86,307.54c11.87.03,21.57,9.8,21.43,21.59-.13,11.38-10.03,21.11-21.49,21.12-11.32,0-21.16-9.96-21.15-21.43.01-11.63,9.66-21.31,21.21-21.28Z" style="fill:#2e2957;"/></g><g><path d="m302.61,558.93c12.6,8.06,24.48,15.64,36.34,23.24,33.59,21.53,67.27,42.93,100.7,64.7,10.01,6.52,19.07,6.51,29.13.1,48.79-31.08,97.75-61.89,146.66-92.78,1.93-1.22,3.9-2.38,6.5-3.96v279.9h-319.32v-271.19Z" style="fill:#41c98e;"/><path d="m594.34,542.17c-1.23.94-2.4,1.97-3.7,2.8-43.53,27.53-87.11,54.98-130.55,82.63-4.2,2.67-7.16,2.87-11.49.07-47.57-30.76-95.31-61.28-142.94-91.95-1.45-.93-3.22-2.83-3.25-4.3-.25-13.62-.15-27.25-.15-41.9,2.48,1.51,4.29,2.53,6.02,3.67,51.87,33.99,103.76,67.96,155.56,102.08,3.05,2.01,5.27,2.07,8.52.59,38.66-17.67,77.4-35.17,116.13-52.7,1.71-.77,3.47-1.42,5.21-2.13.21.39.43.77.64,1.16Z" style="fill:#41c98e;"/><path d="m786.97,559.65c1.09-13.93,3.34-26.57,15.66-34.97,4.6-3.13,8.36-7.49,12.34-11.14,4.73,4.62,9.22,9.01,14.18,13.86-4.77,4.42-9.22,9.09-14.24,13.05-4.36,3.45-6.68,7.49-7.09,12.97-.23,3.1-1.11,6.15-1.81,9.8-6.45-1.21-12.57-2.37-19.05-3.59Z" style="fill:#41c98e;"/></g><g><path d="m615.62,411.57c-.06,22-16.94,38.76-39.03,38.76-22.47,0-40.05-17.17-39.35-39.59.7-22.4,16.3-38.56,39.54-38.62,23.15-.06,39.35,17.68,38.85,39.45Z" style="fill:#f0b4a8;"/><path d="m378.4,405.59c.2,20.97-17.05,38.77-37.74,38.96-21.61.19-39.59-16.75-39.81-37.49-.23-22.02,16.47-39.08,37.83-39.9,19.98-.77,39.92,15.91,39.73,38.44Z" style="fill:#f0b4a8;"/></g><g><path d="m597.52,865.35c0,3.64,0,7.07,0,10.51,0,12.31-.22,24.63.12,36.93.12,4.26-1.51,5.68-5.27,6.71-51,13.97-102.84,19.12-155.6,15.47-50.02-3.46-98.09-15-144.38-34.2-3.35-1.39-4.89-2.96-4.76-6.83.32-9.43.1-18.88.1-28.6h309.78Z" style="fill:#4d98cf;"/><path d="m863.03,343.52c-4.16-5.19-8.09-10.09-12.19-15.2,1.28-1.21,2.35-2.19,3.4-3.2,9.74-9.33,9.84-15.64.17-25.2-2.95-2.91-6.15-5.61-9.47-8.1-7.98-5.99-16.24-11.6-24.09-17.74-4.16-3.26-8.14-6.95-11.41-11.08-7.76-9.81-6.65-20.96,2.61-29.4,7.93-7.23,17.64-11.37,27.81-13.95,14.63-3.71,29.47-6.62,44.74-9.98,1.68,6.58,3.27,12.78,5.02,19.61-10.65,2.12-21.02,3.6-31.05,6.35-10.18,2.79-20.18,6.41-29.92,10.47-5.15,2.15-5.2,3.95-.96,7.53,6.21,5.25,12.89,9.93,19.3,14.95,7.06,5.53,14.52,10.66,20.96,16.86,19.98,19.23,18.07,41.37-4.93,58.1Z" style="fill:#4d98cf;"/><path d="m55.87,265.18c-.48-6.65-.94-12.9-1.43-19.57,12.29-1.33,24.2-2.62,36.1-3.91.03-.37.05-.75.08-1.12-6.08-2.58-12.25-4.96-18.2-7.79-4.78-2.27-9.71-4.57-13.87-7.77-9.2-7.08-8.08-18.56,2.47-23.26,6.23-2.78,13.19-3.91,20.24-5.9.88,6,1.94,10.89,2.19,15.82.19,3.65,1.86,5.2,4.98,6.39,5.28,2.01,10.48,4.24,15.58,6.66,3.44,1.63,6.87,3.45,9.94,5.68,11.27,8.17,10.19,21.37-2.9,25.84-10.73,3.66-22.27,5.11-33.54,6.99-6.99,1.17-14.15,1.3-21.66,1.94Z" style="fill:#4d98cf;"/><path d="m690.01,103.07c.02,6.73-5.56,12.39-12.29,12.48-6.92.09-12.73-5.74-12.6-12.66.12-6.74,5.81-12.29,12.53-12.23,6.73.05,12.34,5.68,12.36,12.41Z" style="fill:#4d98cf;"/><path d="m42.1,500.22c6-3.48,11.43-6.63,17.23-9.99,3.65,6.28,7.2,12.39,11.08,19.08-5.8,3.37-11.31,6.58-17.21,10.01-3.68-6.33-7.23-12.43-11.1-19.1Z" style="fill:#4d98cf;"/></g><g><path d="m973.3,506.95c-16.62.37-33.27,1.52-49.86.92-23.52-.85-41.63-12.65-55.4-31.2-8.55-11.52-5.45-23.48,7.97-28.62,7.61-2.92,16.12-3.53,24.27-4.96,3.57-.63,7.24-.7,11.58-1.09-2.2-4.87-4.3-9.16-6.11-13.57-2.02-4.9-4.28-9.79-5.55-14.9-3.04-12.19,4.01-21.17,16.65-21.35,11.3-.16,21.85,3.4,32.65,7.21-2.22,6.4-4.32,12.47-6.38,18.45-7.43-2.01-14.44-3.91-22.75-6.16,1.3,3.17,2.12,5.2,2.95,7.23,2.76,6.75,6.09,13.34,8.16,20.3,4.14,13.94-.68,20.79-15.21,22.56-9.4,1.15-18.83,2.07-28.24,3.12-.79.09-1.56.39-2.9.75.89,1.33,1.49,2.41,2.27,3.34,12.16,14.46,28.03,20.17,46.52,19.55,13.14-.44,26.27-1.02,39.4-1.53v19.98Z" style="fill:#f4b850;"/><path d="m641.66.05v18.91h-21.95c11.21,9.53,22.08,18.15,18.99,33.65-2.57,12.88-13.17,18.88-23.92,25.63-3.21-5.86-6.27-11.44-9.36-17.08,3.84-2.96,7.56-5.68,11.12-8.61,3.55-2.93,3.61-6.39.23-9.31-5.01-4.33-10.37-8.26-15.56-12.39-3.63-2.89-7.68-5.42-10.72-8.83-6.1-6.86-3.77-16.05,4.73-19.54,3.02-1.24,6.38-2.24,9.61-2.31,12.22-.27,24.45-.11,36.84-.11Z" style="fill:#f4b850;"/><path d="m51.44,327.09c-6.74-.17-12.24-5.89-12.14-12.62.11-6.94,6.09-12.57,13-12.25,6.75.32,12.13,6.14,11.88,12.86-.24,6.75-6.01,12.18-12.74,12.01Z" style="fill:#f4b850;"/></g><g><path d="m19.94,399.43c14.73,18.32,33.26,32,36.78,56.13-6.55.85-12.71,1.64-19.31,2.49-3.51-15.16-14.59-25.02-24.28-35.87-3.2-3.59-6.44-7.24-9.06-11.25-7.47-11.44-4.6-23.21,8.02-28.38,8.95-3.67,18.82-5.09,28.32-7.37,2.37-.57,4.88-.59,7.89-.93.74,6.61,1.44,12.95,2.14,19.18-10.06,1.98-19.58,3.86-30.49,6.01Z" style="fill:#1ca96c;"/><path d="m699.28,299.22c-.96-8.9-6.55-14.35-12.43-19.61-1.36-1.22-2.71-2.46-3.99-3.76-9.93-9.99-9.49-20.65,1.44-29.42,3.45-2.77,7.33-4.99,11.41-7.72,3.3,6.04,6.3,11.52,9.5,17.38-2.7,1.86-5.22,3.61-8.23,5.69,10.84,9.69,20.98,19.53,21.93,35.62-6.44.6-12.65,1.17-19.63,1.82Z" style="fill:#1ca96c;"/></g><g><path d="m179.43,235.03c-4.57-4.65-8.65-8.79-12.71-12.96-.32-.33-.45-.85-.85-1.64,4.02-3.41,8.37-6.54,12.01-10.36,3.02-3.17,5.42-7.01,7.67-10.81,1.76-2.99.85-5.08-3.06-5.09-5.81,0-11.63,0-17.44-.13-4.98-.12-10.01-.02-14.91-.75-12.18-1.82-17.76-11.92-11.92-22.76,3.48-6.47,8.3-12.51,13.55-17.68,9-8.85,18.85-16.83,28.27-25.25,2.41-2.15,4.57-4.57,7.61-7.63-21.42-4.56-41.82-3.02-62.84-2.61v-20.54c7.12,0,14.57-.29,21.99.06,13.27.63,26.53,1.42,39.76,2.61,3.86.35,7.8,1.84,11.33,3.55,10.62,5.16,14,15.51,7.52,25.34-4.06,6.15-9.56,11.45-14.96,16.57-7.96,7.54-16.45,14.53-24.62,21.86-2.17,1.94-4.01,4.25-6.66,7.11,4.18,0,7.25-.13,10.32.03,6.62.33,13.38.08,19.82,1.38,13.45,2.71,19.7,13.21,16.36,26.45-2.03,8.04-5.69,15.29-11.91,20.95-4.54,4.13-9.31,8-14.33,12.3Z" style="fill:#f26448;"/><path d="m744.49,169.65c.09,9.51-7.77,17.51-17.28,17.6-9.51.09-17.51-7.77-17.6-17.28-.09-9.51,7.77-17.51,17.28-17.6,9.51-.09,17.51,7.77,17.6,17.28Z" style="fill:#f26448;"/><path d="m88.34,575.86c6.73-.99,12.94-1.9,19.72-2.89,1.91,13.28,3.79,26.36,5.76,40.05-6.57.99-12.73,1.92-19.64,2.96-1.93-13.26-3.83-26.33-5.84-40.12Z" style="fill:#f26448;"/></g><g><path d="m825.78,387.04c-9.52-.1-17.37-8.1-17.27-17.61.1-9.52,8.1-17.37,17.61-17.27,9.52.1,17.37,8.1,17.27,17.61-.1,9.52-8.1,17.37-17.61,17.27Z" style="fill:#d1333f;"/><path d="m198.94,352.16c8.15-.09,15,6.63,15.09,14.78.08,8.16-6.62,15-14.78,15.09-8.15.09-15-6.62-15.09-14.79-.09-8.15,6.63-15,14.79-15.09Z" style="fill:#d1333f;"/></g></svg>