<svg width="22" height="20" viewBox="0 0 22 20" fill="none" xmlns="http://www.w3.org/2000/svg">
<path d="M10.408 0.217708C10.7479 -0.0725694 11.2521 -0.0725694 11.592 0.217708L21.6754 8.77326C22.0611 9.10174 22.1108 9.67847 21.7823 10.0642C21.4538 10.45 20.8771 10.4997 20.4913 10.1712L19.5556 9.37674V16.5C19.5556 18.1882 18.1882 19.5556 16.5 19.5556H5.50001C3.81258 19.5556 2.44446 18.1882 2.44446 16.5V9.37674L1.50984 10.1712C1.12369 10.4997 0.545431 10.45 0.217722 10.0642C-0.109833 9.67847 -0.0623957 9.10174 0.323636 8.77326L10.408 0.217708ZM4.27779 7.82222V16.5C4.27779 17.176 4.82397 17.7222 5.50001 17.7222H16.5C17.1761 17.7222 17.7222 17.176 17.7222 16.5V7.82222L11 2.11865L4.27779 7.82222Z" fill="#404A70"/>
</svg>
