<svg width="141" height="140" viewBox="0 0 141 140" fill="none" xmlns="http://www.w3.org/2000/svg">
<path d="M14.75 70C14.75 84.8521 20.65 99.0959 31.152 109.598C41.6541 120.1 55.8979 126 70.75 126C85.6021 126 99.8459 120.1 110.348 109.598C120.85 99.0959 126.75 84.8521 126.75 70C126.75 55.1479 120.85 40.9041 110.348 30.402C99.8459 19.9 85.6021 14 70.75 14C55.8979 14 41.6541 19.9 31.152 30.402C20.65 40.9041 14.75 55.1479 14.75 70Z" fill="#EEDBFF"/>
<path d="M61.5625 62.5C63.4375 63.8125 64.75 66.0625 64.75 68.5C64.75 72.7188 61.375 76 57.25 76H55.75V91C55.75 92.6875 54.3438 94 52.75 94C51.0625 94 49.75 92.6875 49.75 91V76H48.25C44.0312 76 40.75 72.7188 40.75 68.5C40.75 66.0625 41.9688 63.8125 43.8438 62.5C43.75 62.0312 43.75 61.5625 43.75 61C43.75 56.0312 47.6875 52 52.75 52C57.7188 52 61.75 56.0312 61.75 61C61.75 61.5625 61.6562 62.0312 61.5625 62.5Z" fill="#431573"/>
<path opacity="0.4" d="M72.25 46H81.25C83.6875 46 85.75 48.0625 85.75 50.5V64H89.5V57.25C89.5 56.0312 90.4375 55 91.75 55C92.9688 55 94 56.0312 94 57.25V64H96.25C98.6875 64 100.75 66.0625 100.75 68.5V89.5C100.75 92.0312 98.6875 94 96.25 94H81.25H72.25C69.7188 94 67.75 92.0312 67.75 89.5V50.5C67.75 48.0625 69.7188 46 72.25 46ZM75.25 52C74.4062 52 73.75 52.75 73.75 53.5V56.5C73.75 57.3438 74.4062 58 75.25 58H78.25C79 58 79.75 57.3438 79.75 56.5V53.5C79.75 52.75 79 52 78.25 52H75.25ZM73.75 62.5V65.5C73.75 66.3438 74.4062 67 75.25 67H78.25C79 67 79.75 66.3438 79.75 65.5V62.5C79.75 61.75 79 61 78.25 61H75.25C74.4062 61 73.75 61.75 73.75 62.5ZM75.25 70C74.4062 70 73.75 70.75 73.75 71.5V74.5C73.75 75.3438 74.4062 76 75.25 76H78.25C79 76 79.75 75.3438 79.75 74.5V71.5C79.75 70.75 79 70 78.25 70H75.25ZM88.75 71.5V74.5C88.75 75.3438 89.4062 76 90.25 76H93.25C94 76 94.75 75.3438 94.75 74.5V71.5C94.75 70.75 94 70 93.25 70H90.25C89.4062 70 88.75 70.75 88.75 71.5ZM90.25 79C89.4062 79 88.75 79.75 88.75 80.5V83.5C88.75 84.3438 89.4062 85 90.25 85H93.25C94 85 94.75 84.3438 94.75 83.5V80.5C94.75 79.75 94 79 93.25 79H90.25Z" fill="#431573"/>
</svg>
