<svg width="88" height="88" viewBox="0 0 88 88" fill="none" xmlns="http://www.w3.org/2000/svg">
<g clip-path="url(#clip0_894_1872)">
<path d="M88 0H0V88H88V0Z" fill="#FEAD1D"/>
<path d="M44 35.7093C49.3267 35.7093 53.6448 31.3748 53.6448 26.028C53.6448 20.6811 49.3267 16.3467 44 16.3467C38.6733 16.3467 34.3552 20.6811 34.3552 26.028C34.3552 31.3748 38.6733 35.7093 44 35.7093Z" fill="#FE9300"/>
<path d="M25.0213 39.2414C29.2593 39.2414 32.6949 35.7922 32.6949 31.5375C32.6949 27.2827 29.2593 23.8335 25.0213 23.8335C20.7833 23.8335 17.3477 27.2827 17.3477 31.5375C17.3477 35.7922 20.7833 39.2414 25.0213 39.2414Z" fill="#FE9300"/>
<path d="M62.9787 39.2414C67.2167 39.2414 70.6523 35.7922 70.6523 31.5375C70.6523 27.2827 67.2167 23.8335 62.9787 23.8335C58.7406 23.8335 55.3051 27.2827 55.3051 31.5375C55.3051 35.7922 58.7406 39.2414 62.9787 39.2414Z" fill="#FE9300"/>
<path d="M75.9851 38.4788C76.3723 38.4788 76.7419 38.5727 77.0821 38.7956C79.552 40.4092 79.0475 45.1501 78.4373 47.4853C76.6187 54.45 70.8635 59.9067 64.2869 62.7876C58.2032 65.4515 51.4683 66.1673 44.8155 66.1673C44.5456 66.1673 44.2757 66.1673 44.0059 66.1673C43.736 66.1673 43.4661 66.1673 43.1963 66.1673C36.5435 66.1673 29.8027 65.4515 23.7248 62.7876C17.1483 59.9067 11.3931 54.4559 9.5744 47.4853C8.96427 45.1501 8.45973 40.4092 10.9296 38.7956C11.2699 38.5727 11.6395 38.4788 12.0267 38.4788C13.9216 38.4788 16.2917 40.7143 17.6821 41.5123C25.4085 45.9305 34.232 48.5239 43.1141 48.5239C43.2139 48.5239 43.3195 48.5239 43.4192 48.5239C43.6128 48.5121 43.8123 48.5121 44.0059 48.518C44.2053 48.518 44.3989 48.518 44.5925 48.5121C44.6923 48.5297 44.7979 48.5297 44.8976 48.5297C53.7797 48.5297 62.6091 45.9363 70.3296 41.5181C71.72 40.7202 74.0901 38.4847 75.9851 38.4847V38.4788ZM75.9851 35.9675C73.8085 35.9675 71.8197 37.3992 70.224 38.5492C69.7781 38.8719 69.3557 39.177 69.08 39.3354C62.128 43.3136 54.5776 45.5843 47.1035 45.9598C47.1035 45.9305 44.5045 46.0009 44.5045 46.0009C44.4107 46.0009 44.3168 46.0009 44.2288 46.0009C44.1525 46.0009 44.0763 46.0009 44 46.0009C43.9237 46.0009 43.8475 46.0009 43.7712 46.0009C43.6773 46.0009 43.5835 46.0009 43.4955 46.0009L40.8965 45.9129V45.9598C33.4224 45.5843 25.872 43.3136 18.92 39.3354C18.6443 39.177 18.2219 38.8719 17.776 38.5492C16.1803 37.3992 14.1915 35.9675 12.0149 35.9675C11.1115 35.9675 10.2784 36.214 9.54507 36.6892C5.1568 39.5525 6.77013 46.7108 7.13387 48.119C9.0112 55.2949 14.8309 61.6376 22.7099 65.0877C28.3008 67.5344 34.8128 68.6786 43.1904 68.6786C43.4603 68.6786 43.7301 68.6786 44 68.6786C44.2699 68.6786 44.5397 68.6786 44.8096 68.6786C53.1872 68.6786 59.6992 67.5403 65.2901 65.0877C73.1691 61.6376 78.9888 55.2949 80.8661 48.119C81.2357 46.7108 82.8432 39.5584 78.4549 36.6892C77.7216 36.2081 76.8885 35.9675 75.9851 35.9675Z" fill="#FE9300"/>
<path d="M77.0821 38.7897C75.0992 37.493 72.0075 40.5499 70.3296 41.5063C62.5152 45.9773 53.5744 48.5766 44.5925 48.5179C44.3989 48.5062 44.1995 48.5062 44.0059 48.5121C43.8123 48.5121 43.6128 48.5121 43.4192 48.5062C34.4315 48.5825 25.4965 45.9832 17.6821 41.5122C16.0043 40.5499 12.9067 37.4989 10.9296 38.7956C8.45974 40.4091 8.96427 45.15 9.5744 47.4853C11.3931 54.4499 17.1483 59.9066 23.7248 62.7876C30.0549 65.557 37.0949 66.22 44.0117 66.1613C50.9285 66.22 57.9685 65.557 64.2987 62.7876C70.8752 59.9066 76.6304 54.4558 78.4491 47.4853C79.0592 45.15 79.5637 40.4091 77.0939 38.7956L77.0821 38.7897Z" fill="#843B00"/>
<path d="M68.8864 44.4165C67.3787 43.5716 65.0203 45.5666 63.7413 46.1944C57.7925 49.1164 50.8464 50.1256 44 50.0904C43.8475 50.0845 43.7008 50.0845 43.5483 50.0904C43.3957 50.0904 43.2491 50.0904 43.0965 50.0904C36.2501 50.1314 29.5797 49.1281 23.6251 46.2061C22.3461 45.5783 19.9877 43.5834 18.48 44.4283C16.6027 45.4844 16.984 48.5824 17.4475 50.108C18.832 54.667 23.2144 58.2344 28.2245 60.1178C33.0469 61.9309 38.4091 62.3651 43.6773 62.324C48.9456 62.3651 54.3077 61.9309 59.1301 60.1178C64.1403 58.2344 68.5227 54.667 69.9072 50.108C70.3707 48.5824 70.7579 45.4786 68.8747 44.4283L68.8864 44.4165Z" fill="#662A00"/>
<path d="M44 34.0313C48.98 34.0313 53.0171 29.9779 53.0171 24.9778C53.0171 19.9777 48.98 15.9243 44 15.9243C39.02 15.9243 34.9829 19.9777 34.9829 24.9778C34.9829 29.9779 39.02 34.0313 44 34.0313Z" fill="#FFFCFB"/>
<path d="M44 15.9243C48.3765 15.9243 51.92 19.6267 51.92 24.1916C51.92 28.7564 48.3765 32.4588 44 32.4588C39.6235 32.4588 36.08 28.7564 36.08 24.1916C36.08 19.6267 39.6235 15.9243 44 15.9243C39.0192 15.9243 34.9829 19.9787 34.9829 24.9778C34.9829 29.9769 39.0192 34.0313 44 34.0313C48.9808 34.0313 53.0171 29.9769 53.0171 24.9778C53.0171 19.9787 48.9808 15.9243 44 15.9243Z" fill="#FFEAE3"/>
<path d="M44 30.7221C47.1623 30.7221 49.7259 28.1503 49.7259 24.9779C49.7259 21.8054 47.1623 19.2336 44 19.2336C40.8377 19.2336 38.2741 21.8054 38.2741 24.9779C38.2741 28.1503 40.8377 30.7221 44 30.7221Z" fill="#7C5230"/>
<path d="M44 28.8855C46.1514 28.8855 47.8955 27.136 47.8955 24.9778C47.8955 22.8196 46.1514 21.0701 44 21.0701C41.8486 21.0701 40.1045 22.8196 40.1045 24.9778C40.1045 27.136 41.8486 28.8855 44 28.8855Z" fill="#523520"/>
<path d="M40.316 19.9553C37.6111 19.9553 37.6053 24.174 40.316 24.174C43.0268 24.174 43.0268 19.9553 40.316 19.9553Z" fill="white"/>
<path d="M39.5413 10.4265C39.1248 10.9605 39.0837 11.7819 39.7643 12.1574C41.0491 12.8615 43.1083 13.1783 44.792 12.9084C46.1003 12.885 47.872 12.6972 48.2123 11.5413C49.1451 8.36704 40.8261 8.77776 39.5413 10.4265Z" fill="#843B00"/>
<path d="M62.9787 37.5634C66.87 37.5634 70.0245 34.3953 70.0245 30.4873C70.0245 26.5792 66.87 23.4111 62.9787 23.4111C59.0873 23.4111 55.9328 26.5792 55.9328 30.4873C55.9328 34.3953 59.0873 37.5634 62.9787 37.5634Z" fill="#FFFCFB"/>
<path d="M62.9787 34.976C65.4508 34.976 67.4549 32.9664 67.4549 30.4874C67.4549 28.0084 65.4508 25.9988 62.9787 25.9988C60.5065 25.9988 58.5024 28.0084 58.5024 30.4874C58.5024 32.9664 60.5065 34.976 62.9787 34.976Z" fill="#7C5230"/>
<path d="M65.7719 30.4873C65.7719 32.0363 64.5222 33.2919 62.9732 33.2919C61.4242 33.2919 60.1744 32.0363 60.1744 30.4873C60.1744 28.9383 61.4242 27.6826 62.9732 27.6826C64.5222 27.6826 65.7719 28.9383 65.7719 30.4873Z" fill="#523520"/>
<path d="M60.0983 26.562C57.9861 26.562 57.9802 29.8595 60.0983 29.8595C62.2165 29.8595 62.2165 26.562 60.0983 26.562Z" fill="white"/>
<path d="M59.488 19.1162C59.1595 19.5328 59.1301 20.1782 59.6641 20.4657C60.6674 21.0172 62.2751 21.2637 63.5953 21.0525C64.6162 21.0348 66.0009 20.8882 66.2649 19.9846C66.9925 17.5026 60.4914 17.8254 59.488 19.1103V19.1162Z" fill="#843B00"/>
<path d="M62.9787 23.4697C66.3813 23.4697 69.1445 26.3506 69.1445 29.9005C69.1445 33.4503 66.3872 36.3312 62.9787 36.3312C59.5701 36.3312 56.8128 33.4503 56.8128 29.9005C56.8128 26.3506 59.5701 23.4697 62.9787 23.4697C59.1008 23.4697 55.9621 26.6264 55.9621 30.5165C55.9621 34.4067 59.1067 37.5633 62.9787 37.5633C66.8507 37.5633 69.9952 34.4067 69.9952 30.5165C69.9952 26.6264 66.8507 23.4697 62.9787 23.4697Z" fill="#FFEAE3"/>
<path d="M24.9451 37.5634C28.8364 37.5634 31.9909 34.3953 31.9909 30.4873C31.9909 26.5792 28.8364 23.4111 24.9451 23.4111C21.0537 23.4111 17.8992 26.5792 17.8992 30.4873C17.8992 34.3953 21.0537 37.5634 24.9451 37.5634Z" fill="#FFFCFB"/>
<path d="M24.9451 34.976C27.4172 34.976 29.4213 32.9664 29.4213 30.4874C29.4213 28.0084 27.4172 25.9988 24.9451 25.9988C22.4729 25.9988 20.4688 28.0084 20.4688 30.4874C20.4688 32.9664 22.4729 34.976 24.9451 34.976Z" fill="#7C5230"/>
<path d="M27.7442 30.4873C27.7442 32.0363 26.4944 33.2919 24.9454 33.2919C23.3964 33.2919 22.1467 32.0363 22.1467 30.4873C22.1467 28.9383 23.3964 27.6826 24.9454 27.6826C26.4944 27.6826 27.7442 28.9383 27.7442 30.4873Z" fill="#523520"/>
<path d="M22.0647 26.562C19.9525 26.562 19.9466 29.8595 22.0647 29.8595C24.1829 29.8595 24.1829 26.562 22.0647 26.562Z" fill="white"/>
<path d="M21.4603 19.1162C21.1317 19.5328 21.1024 20.1782 21.6363 20.4657C22.6397 21.0172 24.2473 21.2637 25.5675 21.0525C26.5884 21.0348 27.9732 20.8882 28.2372 19.9846C28.9648 17.5026 22.4636 17.8254 21.4603 19.1103V19.1162Z" fill="#843B00"/>
<path d="M24.9451 23.4697C28.3477 23.4697 31.1109 26.3506 31.1109 29.9005C31.1109 33.4503 28.3536 36.3312 24.9451 36.3312C21.5365 36.3312 18.7792 33.4503 18.7792 29.9005C18.7792 26.3506 21.5365 23.4697 24.9451 23.4697C21.0672 23.4697 17.9285 26.6264 17.9285 30.5165C17.9285 34.4067 21.0731 37.5633 24.9451 37.5633C28.8171 37.5633 31.9616 34.4067 31.9616 30.5165C31.9616 26.6264 28.8171 23.4697 24.9451 23.4697Z" fill="#FFEAE3"/>
<path d="M31.6628 51.921C33.6166 51.9328 34.7901 49.7736 35.2888 47.8666C33.2704 47.5322 31.2755 47.0628 29.304 46.4878C28.8464 48.7116 28.641 51.9093 31.6628 51.9269V51.921Z" fill="white"/>
<path d="M19.5772 42.5449C19.2486 43.7243 18.6677 44.8215 18.8085 46.1006C18.9552 47.409 20.0759 48.6295 21.443 48.6295C23.2502 48.6295 24.5352 46.8223 25.3273 45.1383C23.3617 44.3873 21.4489 43.5189 19.583 42.5449H19.5772Z" fill="white"/>
<path d="M46.2771 48.5004C45.7139 48.518 45.1506 48.5238 44.5873 48.518C44.3937 48.5062 44.1942 48.5062 44.0006 48.5121C43.8069 48.5121 43.6074 48.5121 43.4138 48.5062C42.2286 48.5297 41.0434 48.4886 39.8581 48.4065C39.8288 50.6831 40.6385 53.3645 43.1146 53.341C45.6376 53.3176 46.1715 50.7828 46.283 48.5062L46.2771 48.5004Z" fill="white"/>
<path d="M66.9863 48.8523C69.1983 47.7845 68.9695 44.8507 67.9309 42.7971C66.0357 43.7594 64.0877 44.616 62.0987 45.3495C62.5505 46.1885 62.6795 47.2329 63.278 48.0191C64.1581 49.1809 65.6837 49.4801 66.9863 48.8523Z" fill="white"/>
<path d="M55.2999 52.3494C57.0015 51.3637 57.3066 49.0343 56.9076 46.9749C54.6721 47.5499 52.4014 47.9665 50.1131 48.2246C50.6001 50.8826 52.6595 53.8808 55.2999 52.3494Z" fill="white"/>
<path d="M43.4138 50.0787C43.6074 50.0846 43.8069 50.0787 44.0006 50.0846C44.2001 50.0846 44.3937 50.0846 44.5873 50.0787C45.0978 50.0963 45.6024 50.0905 46.1128 50.0787C46.2009 49.5624 46.2537 49.0284 46.2771 48.5004C45.7139 48.518 45.1506 48.5238 44.5873 48.518C44.3937 48.5062 44.1942 48.5062 44.0006 48.5121C43.8069 48.5121 43.6074 48.5121 43.4138 48.5062C42.2286 48.5297 41.0434 48.4886 39.8581 48.4065C39.8523 48.9287 39.8933 49.4685 39.9814 49.9907C41.1255 50.067 42.2697 50.1022 43.4138 50.0963V50.0787Z" fill="#FFF0B8"/>
<path d="M56.9076 46.9749C54.6721 47.5499 52.4014 47.9665 50.1131 48.2246C50.2069 48.7292 50.3536 49.2514 50.559 49.7443C52.7476 49.4803 54.9244 49.0637 57.066 48.5063C57.066 47.9958 57.0073 47.4736 56.9134 46.969L56.9076 46.9749Z" fill="#FFF0B8"/>
<path d="M35.2888 47.8608C33.2704 47.5263 31.2755 47.0569 29.304 46.4819C29.2043 46.9513 29.1222 47.4677 29.0752 47.9899C30.9469 48.5473 32.8421 49.0049 34.7608 49.3452C34.9779 48.8641 35.1539 48.3536 35.283 47.8608H35.2888Z" fill="#FFF0B8"/>
<path d="M67.9309 42.7971C66.0357 43.7594 64.0877 44.616 62.0987 45.3495C62.3275 45.7778 62.4742 46.253 62.6385 46.7283C64.6217 45.9714 66.5579 45.0913 68.4355 44.1114C68.3064 43.6538 68.1363 43.2078 67.925 42.7971H67.9309Z" fill="#FFF0B8"/>
<path d="M25.3214 45.1383C23.3558 44.3873 21.443 43.5189 19.5771 42.5449C19.448 43.0026 19.2838 43.4485 19.1371 43.8944C20.909 44.8391 22.7397 45.684 24.6114 46.4292C24.8813 46.0126 25.116 45.5725 25.3214 45.1383Z" fill="#FFF0B8"/>
<path d="M57.5051 67.7456C57.3173 64.7239 55.8859 61.6376 53.2635 60.1355C50.6411 58.6393 45.6427 60.0651 44.1115 62.6761H43.8885C42.3573 60.0651 37.3589 58.6393 34.7365 60.1355C32.1141 61.6317 30.6827 64.718 30.4949 67.7456C30.3072 70.7732 31.1931 73.7539 32.2784 76.582C33.8565 80.7009 36.1387 84.6615 40.7909 85.5768C48.0773 87.0084 53.1989 83.1535 55.7216 76.582C56.8069 73.7539 57.6928 70.7673 57.5051 67.7456Z" fill="#EE3F49"/>
<path d="M57.5051 67.7456C57.3173 64.7239 55.8859 61.6376 53.2635 60.1355C50.6411 58.6393 45.6427 60.0651 44.1115 62.6761H43.8885C42.3573 60.0651 37.3589 58.6393 34.7365 60.1355C32.1728 61.5965 30.7531 64.5772 30.5125 67.5344C30.9819 66.8948 31.4101 66.2435 31.768 65.8445C32.6363 64.8823 33.6688 64.1019 34.8304 63.6032C35.0592 63.832 35.4875 63.7499 35.552 63.3333C35.9744 63.2042 36.4027 63.0986 36.8544 63.0458C38.2331 62.8815 39.7056 63.1103 40.8085 63.9552C42.1579 64.9879 42.7445 66.754 42.9147 68.4497C43.2843 72.1755 42.0523 76.1185 42.7387 79.6859C42.856 80.3078 43.7712 80.2374 43.8064 79.6096C43.9765 76.6465 43.8709 71.2543 44.0235 68.1211C44.0763 67.065 44.1408 65.9502 44.704 65.0583C45.76 63.3978 48.1125 63.1455 50.0192 63.6032C53.3339 64.407 56.1851 66.9183 57.4405 70.0984C57.5227 69.3181 57.552 68.5318 57.4992 67.7397L57.5051 67.7456Z" fill="#DF3842"/>
<path d="M42.0289 67.9744C41.4128 67.9744 41.4128 68.9308 42.0289 68.9308C42.6449 68.9308 42.6449 67.9744 42.0289 67.9744Z" fill="#DF3842"/>
<path d="M40.2044 65.9325C40.1868 65.3164 39.2656 65.3164 39.248 65.9325C39.248 66.0029 39.248 66.0733 39.248 66.1437C39.2304 66.7657 40.2337 66.7716 40.2161 66.1437C40.2161 66.0733 40.2161 66.0029 40.2161 65.9325H40.2044Z" fill="#DF3842"/>
<path d="M39.207 69.2478C38.8901 69.2478 38.585 69.6585 38.808 69.946C38.8256 69.9695 38.8432 69.993 38.8608 70.0164C39.0544 70.2687 39.3595 70.2687 39.5532 70.0164C39.5708 69.993 39.5884 69.9695 39.606 69.946C39.8289 69.6527 39.5238 69.2478 39.207 69.2478Z" fill="#DF3842"/>
<path d="M37.2711 64.5126C36.8721 64.0901 36.1034 64.6534 36.4496 65.1462C36.567 65.3105 36.5787 65.4924 36.6608 65.6743C36.8545 66.1026 37.4999 65.9501 37.6172 65.5511C37.7287 65.158 37.5351 64.7942 37.2711 64.5126Z" fill="#DF3842"/>
<path d="M35.8514 66.8128C35.8396 66.7834 35.8338 66.7482 35.822 66.713C35.646 66.1321 34.8187 66.1321 34.6427 66.713C34.6309 66.7423 34.6251 66.7775 34.6133 66.8128C34.5371 67.0592 34.6544 67.4288 34.9067 67.5403C35.1473 67.6459 35.3116 67.6459 35.5521 67.5403C35.8044 67.4288 35.9218 67.0651 35.8455 66.8128H35.8514Z" fill="#DF3842"/>
<path d="M33.2113 69.365C33.0646 68.8839 32.3782 68.878 32.2315 69.365C32.1493 69.6408 32.208 69.8285 32.3899 70.0456C32.5424 70.2275 32.9062 70.2275 33.0529 70.0456C33.2348 69.8285 33.2935 69.6466 33.2113 69.365Z" fill="#DF3842"/>
<path d="M37.0775 71.6358C36.878 71.4363 36.5787 71.3894 36.3206 71.495C35.9803 71.63 35.8629 71.9703 35.9216 72.3106C35.9451 72.4514 36.0331 72.5864 36.1328 72.6861C36.2678 72.8093 36.4379 72.8504 36.6081 72.8093C36.8428 72.7976 37.054 72.7037 37.1831 72.4808C37.3356 72.2167 37.2946 71.8588 37.0775 71.6417V71.6358Z" fill="#DF3842"/>
<path d="M39.5941 72.2343C39.6059 72.422 39.5707 72.6509 39.7878 72.7448C39.9403 72.8093 40.1691 72.8328 40.2924 72.6802C40.3745 72.5746 40.4332 72.4807 40.4742 72.3516C40.6972 71.7297 39.5472 71.5595 39.5941 72.2343Z" fill="#DF3842"/>
<path d="M33.927 73.179C33.886 72.7037 33.2347 72.7037 33.1936 73.179C33.1819 73.3256 33.1232 73.4489 33.1173 73.6014C33.1173 74.1706 34.0033 74.1706 33.9975 73.6014C33.9975 73.4489 33.9388 73.3256 33.9212 73.179H33.927Z" fill="#DF3842"/>
<path d="M33.1409 65.5278C32.3546 65.5278 32.3488 66.76 33.1409 66.76C33.933 66.76 33.933 65.5278 33.1409 65.5278Z" fill="#DF3842"/>
<path d="M41.2955 75.6726C41.2955 75.6726 41.2661 75.7195 41.2955 75.7195C41.3248 75.7195 41.3248 75.6726 41.2955 75.6726Z" fill="#DF3842"/>
<path d="M41.1664 74.8569C41.1781 75.1092 41.1899 75.3204 41.3718 75.5199C41.4422 75.5962 41.5713 75.5962 41.6417 75.5199C41.8236 75.3263 41.8294 75.1151 41.847 74.8569C41.8705 74.4227 41.1488 74.4168 41.1723 74.8569H41.1664Z" fill="#DF3842"/>
<path d="M40.0812 74.6457C39.9874 73.7832 38.8373 73.7832 38.7435 74.6457C38.6965 75.0681 38.9195 75.5845 39.4123 75.5845C39.9052 75.5845 40.1282 75.074 40.0812 74.6457Z" fill="#DF3842"/>
<path d="M36.6316 75.8017C36.6316 75.3441 35.9275 75.3441 35.9275 75.8017C35.9275 76.0599 35.904 76.3122 36.1035 76.5058C36.2032 76.5997 36.3558 76.5997 36.4555 76.5058C36.655 76.3122 36.6316 76.0658 36.6316 75.8017Z" fill="#DF3842"/>
<path d="M34.5431 77.4562C34.4551 77.0455 33.8624 76.9927 33.6688 77.3389C33.44 77.7496 33.5221 78.307 34.0209 78.4595C34.2556 78.5299 34.4668 78.3715 34.5489 78.1603C34.6311 77.9373 34.59 77.685 34.5489 77.4562H34.5431Z" fill="#DF3842"/>
<path d="M39.477 79.8912C39.3831 79.1343 38.3915 79.1343 38.3035 79.8912C38.2917 79.9968 38.28 80.0965 38.28 80.208C38.2859 81.0001 39.4946 81.0001 39.5063 80.208C39.5063 80.1024 39.4946 80.0026 39.4828 79.8912H39.477Z" fill="#DF3842"/>
<path d="M41.5362 77.9549C41.5303 77.9197 41.5244 77.8903 41.5127 77.8551C41.4833 77.7319 41.3895 77.6087 41.278 77.5383C41.1313 77.3564 40.8262 77.3564 40.6795 77.5383C40.568 77.6146 40.4741 77.7319 40.4448 77.8551C40.4389 77.8903 40.4331 77.9197 40.4213 77.9549C40.216 78.8878 41.7415 78.8937 41.5303 77.9549H41.5362Z" fill="#DF3842"/>
<path d="M37.0306 80.4134C36.9543 80.1611 36.9543 79.944 36.7078 79.7856C36.5436 79.6741 36.3499 79.6213 36.1622 79.7269C36.0448 79.7915 35.9686 79.8795 35.904 79.9968C35.8043 80.1728 35.7867 80.4134 35.904 80.5894C35.9803 80.7068 36.0683 80.8183 36.168 80.918C36.3323 81.0764 36.5905 81.1175 36.79 81.0002C36.8252 80.9767 36.8663 80.9474 36.8956 80.918C37.0247 80.7889 37.0775 80.5894 37.0306 80.4134Z" fill="#DF3842"/>
<path d="M42.0348 81.9507C42.0231 81.8862 42.0113 81.8158 41.9996 81.7512C41.8999 81.2584 41.1019 81.2584 41.008 81.7512C40.9963 81.8158 40.9845 81.8862 40.9728 81.9507C40.9317 82.203 41.0021 82.4319 41.2251 82.5786C41.2427 82.5903 41.2544 82.5961 41.272 82.6079C41.407 82.6959 41.6065 82.6959 41.7414 82.6079C41.759 82.5961 41.7708 82.5903 41.7884 82.5786C42.0172 82.4319 42.0818 82.2089 42.0407 81.9507H42.0348Z" fill="#DF3842"/>
<path d="M39.2539 82.9365C39.2539 83.1184 39.2539 83.2534 39.3595 83.4059C39.4944 83.5995 39.7409 83.5995 39.8817 83.4059C39.9873 83.2534 39.9873 83.1184 39.9873 82.9365C39.999 82.4613 39.2421 82.4613 39.2539 82.9365Z" fill="#DF3842"/>
<path d="M46.6636 66.1262C46.6519 66.0616 46.6343 65.9912 46.6167 65.9325C46.4993 65.5336 45.9302 65.5336 45.8069 65.9325C45.7835 65.9971 45.7659 66.0616 45.76 66.1262C45.7307 66.2846 45.7483 66.4782 45.8832 66.5838C45.9008 66.6014 45.9184 66.6132 45.9419 66.6308C46.1179 66.7775 46.3174 66.7775 46.4934 66.6308C46.511 66.6132 46.5286 66.6014 46.5521 66.5838C46.6812 66.4723 46.7047 66.2787 46.6753 66.1262H46.6636Z" fill="#DF3842"/>
<path d="M49.0103 64.6945C48.8167 64.3131 48.2006 64.3131 48.0069 64.6945C47.8603 64.982 47.8896 65.1521 47.9776 65.4514C48.136 65.9795 48.8812 65.9795 49.0396 65.4514C49.1276 65.1521 49.157 64.9879 49.0103 64.6945Z" fill="#DF3842"/>
<path d="M53.1932 65.956C52.9702 65.7448 52.6299 65.7448 52.4011 65.956C52.096 66.2435 52.0549 66.7305 52.272 67.0767C52.5184 67.4698 53.07 67.4698 53.3164 67.0767C53.5335 66.7247 53.4924 66.2435 53.1873 65.956H53.1932Z" fill="#DF3842"/>
<path d="M50.9287 67.992C50.7996 67.4581 49.9782 67.4581 49.8491 67.992C49.7845 68.2736 49.8139 68.5025 50.031 68.7137C50.2305 68.9073 50.5473 68.9073 50.7468 68.7137C50.9639 68.5083 50.9932 68.2795 50.9287 67.992Z" fill="#DF3842"/>
<path d="M54.296 69.5C54.3136 69.7054 54.3136 69.8697 54.4779 70.0164C54.5952 70.122 54.7654 70.1278 54.8828 70.0164C55.047 69.8697 55.047 69.7054 55.0646 69.5C55.1057 69.0072 54.2549 69.0072 54.3019 69.5H54.296Z" fill="#DF3842"/>
<path d="M53.0407 72.3632C52.8119 71.7119 51.9552 71.7119 51.7205 72.3632C51.5915 72.727 51.6267 73.0497 51.9083 73.3314C52.0139 73.437 52.1547 73.4898 52.2955 73.5074C52.3014 73.5484 52.3308 73.5837 52.3836 73.5837C52.4364 73.5837 52.4598 73.5484 52.4716 73.5074C52.6124 73.4898 52.7532 73.437 52.8588 73.3314C53.1405 73.0497 53.1757 72.727 53.0466 72.3632H53.0407Z" fill="#DF3842"/>
<path d="M46.5052 68.8076L46.4818 68.7079C46.3292 68.1329 45.4726 68.1329 45.32 68.7079C45.3141 68.7431 45.3024 68.7724 45.2965 68.8076C45.1909 69.2066 45.496 69.6115 45.9068 69.6115C46.3175 69.6115 46.6226 69.2066 46.517 68.8076H46.5052Z" fill="#DF3842"/>
<path d="M45.5666 71.7239L45.5431 71.6241C45.3905 71.0491 44.5339 71.0491 44.3813 71.6241C44.3755 71.6593 44.3637 71.6887 44.3579 71.7239C44.2523 72.1229 44.5574 72.5277 44.9681 72.5277C45.3788 72.5277 45.6839 72.1229 45.5783 71.7239H45.5666Z" fill="#DF3842"/>
<path d="M47.1915 70.8671C47.2032 71.0725 47.2384 71.2191 47.391 71.3658C47.5494 71.5184 47.8017 71.5184 47.9601 71.3658C48.1127 71.2191 48.1479 71.0783 48.1596 70.8671C48.1889 70.2393 47.1563 70.2393 47.1915 70.8671Z" fill="#DF3842"/>
<path d="M49.544 70.8671C49.5557 71.0725 49.5909 71.2191 49.7435 71.3658C49.9078 71.5184 50.1542 71.5184 50.3126 71.3658C50.4652 71.2191 50.5004 71.0783 50.5121 70.8671C50.5415 70.2393 49.5088 70.2393 49.544 70.8671Z" fill="#DF3842"/>
<path d="M46.8689 74.2233C46.8455 73.6424 45.9947 73.6424 45.9712 74.2233C45.9653 74.458 45.9653 74.6398 46.1531 74.8041C46.3174 74.945 46.5169 74.945 46.6812 74.8041C46.8689 74.6457 46.8748 74.458 46.8631 74.2233H46.8689Z" fill="#DF3842"/>
<path d="M49.4796 74.6986C49.2801 74.2762 48.6347 74.4111 48.5232 74.8219C48.4528 75.08 48.4763 75.3265 48.6347 75.5436C48.7696 75.7313 48.9926 75.8604 49.2332 75.7841C49.726 75.6374 49.6556 75.0624 49.4796 74.6928V74.6986Z" fill="#DF3842"/>
<path d="M46.9394 77.069C46.7399 76.6759 46.0944 76.6759 45.9008 77.069C45.7659 77.3389 45.7483 77.5677 45.8011 77.8611C45.9067 78.4772 46.9335 78.4772 47.0391 77.8611C47.0919 77.5677 47.0743 77.3389 46.9394 77.069Z" fill="#DF3842"/>
<path d="M52.8236 75.69C52.7591 75.5551 52.6593 75.4964 52.5772 75.3967C52.4364 75.2324 52.1195 75.2324 51.9728 75.3967C51.8848 75.4964 51.791 75.5609 51.7264 75.69C51.521 76.1125 51.7675 76.6523 52.2779 76.6523C52.7884 76.6523 53.0349 76.1184 52.8295 75.69H52.8236Z" fill="#DF3842"/>
<path d="M55.7511 72.381C55.7511 72.381 55.7217 72.3634 55.7041 72.3517C55.534 72.2402 55.2817 72.2402 55.1115 72.3517C55.0939 72.3634 55.0822 72.3693 55.0646 72.381C54.7947 72.5512 54.6891 72.8387 54.7536 73.1497C54.7595 73.1849 54.7653 73.2142 54.7712 73.2494C54.9003 73.8772 55.9095 73.8772 56.0327 73.2494C56.0386 73.2142 56.0444 73.1849 56.0503 73.1497C56.1148 72.8387 56.0034 72.557 55.7393 72.381H55.7511Z" fill="#DF3842"/>
<path d="M50.5825 78.3363C50.3948 78.1779 50.1777 78.1779 49.9899 78.3363C49.7845 78.5065 49.7317 78.7999 49.7493 79.0522C49.7963 79.7445 50.7703 79.7445 50.8172 79.0522C50.8348 78.794 50.782 78.5065 50.5766 78.3363H50.5825Z" fill="#DF3842"/>
<path d="M53.0933 78.3188C53.0933 78.4596 53.1109 78.5476 53.1931 78.665C53.3163 78.8351 53.5275 78.8351 53.6507 78.665C53.7329 78.5476 53.7505 78.4655 53.7505 78.3188C53.7681 77.8905 53.0699 77.8905 53.0875 78.3188H53.0933Z" fill="#DF3842"/>
<path d="M45.1147 80.3136C45.1088 80.4838 45.1147 80.6364 45.1499 80.8065C45.2731 81.4461 46.3116 81.4461 46.4348 80.8065C46.47 80.6364 46.4759 80.4838 46.47 80.3136C46.429 79.4394 45.1616 79.4394 45.1147 80.3136Z" fill="#DF3842"/>
<path d="M49.2273 80.8301C49.11 80.3783 48.3824 80.4604 48.4059 80.9416C48.4117 81.0765 48.3531 81.2232 48.3355 81.364C48.312 81.5987 48.5995 81.8158 48.8166 81.7337C49.2156 81.5811 49.3271 81.2349 49.2214 80.8301H49.2273Z" fill="#DF3842"/>
<path d="M44.3815 83.7579C44.358 83.6816 44.3169 83.6171 44.2583 83.5584C44.135 83.488 44.1174 83.4646 44.2054 83.4939C44.1057 83.2651 43.7126 83.2651 43.607 83.4939C43.695 83.4646 43.6774 83.4939 43.5542 83.5584C43.5013 83.6171 43.4603 83.6816 43.4309 83.7579C43.3488 83.9339 43.3136 84.0865 43.3077 84.2801C43.2784 85.0546 44.5399 85.0546 44.5047 84.2801C44.4988 84.0865 44.4636 83.9339 44.3815 83.7579Z" fill="#DF3842"/>
<path d="M46.7163 83.5642C46.728 83.7813 46.7632 83.9514 46.9334 84.0923C47.1329 84.2624 47.3734 84.2624 47.5729 84.0923C47.7431 83.9456 47.7783 83.7754 47.79 83.5642C47.8252 82.8718 46.6811 82.8718 46.7163 83.5642Z" fill="#DF3842"/>
<path d="M51.1339 81.675V81.8862C51.1339 82.0564 51.2277 82.2559 51.3862 82.3322C51.5798 82.4202 51.7089 82.4202 51.9084 82.3322C52.0668 82.2559 52.1607 82.0564 52.1607 81.8862V81.675C52.1607 81.012 51.1339 81.012 51.1339 81.675Z" fill="#DF3842"/>
<path d="M37.031 38.2618C37.2833 37.5518 37.0428 36.7597 36.2389 36.5309C35.3471 36.2786 34.3496 36.3021 33.5458 36.8125C32.8241 37.2702 32.3312 38.0916 32.3605 38.96C32.3957 39.981 33.0764 40.732 33.9917 41.084C34.3965 41.2366 34.8659 41.2835 35.2943 41.2601C35.9514 41.2249 36.3915 40.9608 36.6907 40.3741C36.8667 40.0279 37.031 39.67 37.1542 39.2945C37.2657 38.9542 37.2012 38.5728 37.031 38.2559V38.2618Z" fill="#FEBE4C"/>
<path d="M45.1153 38.156C44.8923 37.5458 44.3349 37.1761 43.6719 37.3345C42.9385 37.5106 42.0114 37.6162 41.366 38.0328C41.2545 38.0621 41.1489 38.109 41.0492 38.1677C40.392 38.5902 40.128 39.4468 40.5328 40.145C40.6678 40.3739 40.8145 40.591 40.9553 40.8139C41.3191 41.4065 41.9058 41.5591 42.5512 41.4652C43.1438 41.3772 43.7482 41.2775 44.3232 41.1132C44.7222 41.0017 45.1388 40.6438 45.215 40.2154C45.3324 39.5466 45.3441 38.8014 45.1094 38.156H45.1153Z" fill="#FEBE4C"/>
<path d="M39.7235 41.4887C39.2306 40.9958 38.3329 40.9606 37.8518 41.4887C37.3824 41.9991 37.3061 42.8675 37.8518 43.3663C37.975 43.4777 38.1217 43.5716 38.2801 43.6362C38.6204 43.9119 39.1074 43.8709 39.4829 43.7007C39.9465 43.4953 40.099 43.0494 40.0755 42.6035C40.1342 42.2045 40.0345 41.7938 39.7235 41.4828V41.4887Z" fill="#FEBE4C"/>
<path d="M53.1409 37.452C53.006 37.1938 52.7537 36.9591 52.472 36.8183C52.2139 36.3841 51.7621 36.0907 51.2105 36.0849C49.9314 36.0731 48.8929 36.8066 48.4411 37.9918C48.1418 38.7721 48.2944 39.6581 49.0806 40.0806C49.5618 40.3388 50.1426 40.4561 50.6883 40.4385C51.6388 40.4092 52.6656 39.9808 53.1468 39.1125C53.4284 38.602 53.4049 37.9566 53.1468 37.4461L53.1409 37.452Z" fill="#FEBE4C"/>
<path d="M49.8788 41.0429C49.5737 40.9021 49.2921 40.8082 48.9694 40.7437C48.5821 40.6674 48.0892 40.5266 47.7196 40.6791C47.1915 40.8904 46.8101 41.2366 46.728 41.8292C46.6517 42.41 46.9216 42.8794 47.3851 43.208C47.6551 43.4016 48.0012 43.4192 48.3298 43.4427C48.365 43.4427 48.4002 43.4545 48.4354 43.4603C48.5704 43.4838 48.6995 43.4955 48.8344 43.5131C48.9518 43.5307 49.075 43.5542 49.1923 43.5601C49.7556 43.607 50.3717 43.1083 50.4949 42.5626C50.6181 42.0169 50.4245 41.2835 49.8729 41.0312L49.8788 41.0429Z" fill="#FEBE4C"/>
<path d="M58.1332 38.0446C57.5523 37.8627 56.9245 37.8627 56.3847 38.1737C55.9505 38.4201 55.6806 38.8309 55.3872 39.224C54.9589 39.799 55.2757 40.773 55.8742 41.0898C55.9036 41.1016 55.927 41.1133 55.9564 41.125C56.0033 41.2013 56.0561 41.2717 56.1265 41.348C56.1617 41.3891 56.1969 41.4184 56.238 41.4536C56.0737 41.3011 56.7778 41.8878 56.4668 41.6296C56.9597 42.0404 57.7577 42.1753 58.2388 41.6296C58.8079 40.9784 59.0896 40.1745 59.0955 39.312C59.1013 38.7194 58.6847 38.2148 58.1332 38.0446Z" fill="#FEBE4C"/>
<path d="M75.0882 23.681C74.8066 22.6307 73.8443 21.909 72.7765 21.8562C72.5124 21.8445 72.2895 21.9032 72.0548 21.997C71.9315 22.044 71.8142 22.0968 71.7086 22.1672C71.7027 22.1672 71.2098 22.6073 71.3683 22.4782C71.3155 22.5192 71.2685 22.5662 71.2157 22.6073C70.2124 22.4723 69.4848 23.2116 69.4085 24.168C69.3675 24.7137 69.4965 25.2593 69.5963 25.7933C69.7136 26.4211 70.4177 26.8964 71.028 26.8905C72.0078 26.8729 73.0229 26.9961 73.9323 26.556C75.0237 26.028 75.3992 24.8193 75.0941 23.6869L75.0882 23.681Z" fill="#FEBE4C"/>
<path d="M74.5892 28.8386C73.9966 28.7095 73.3922 28.6802 72.829 28.956C72.3596 29.1907 72.0075 29.5545 71.767 30.0238C71.4208 30.7103 71.6437 31.5318 72.3772 31.8428C72.6295 31.9484 72.9052 31.966 73.1634 31.9073C73.5683 32.0129 74.0553 31.9425 74.3838 31.7606C75.0762 31.3792 75.3285 30.6047 75.3637 29.8596C75.3872 29.4195 75.0175 28.9266 74.5833 28.8328L74.5892 28.8386Z" fill="#FEBE4C"/>
<path d="M79.0478 28.4103C78.9422 28.0407 78.7075 27.7825 78.4318 27.5302C77.8685 27.0256 77.0294 27.0374 76.5483 27.6593C76.1493 28.1756 76.2315 28.8035 76.6187 29.2494C76.6657 29.4606 76.7595 29.6542 76.9062 29.7951C77.2935 30.1471 77.845 30.2351 78.3085 29.9769C78.8542 29.6718 79.2297 29.044 79.0478 28.4103Z" fill="#FEBE4C"/>
<path d="M18.5099 23.5402C17.6121 22.883 16.3154 22.6718 15.3238 23.2409C14.7547 23.5695 14.4261 24.2032 14.432 24.8486C14.4437 25.6525 14.9953 26.2979 15.6348 26.7145C15.9047 26.8905 16.2216 26.9316 16.5208 26.8729C16.8318 26.9492 17.1838 26.9081 17.4655 26.7849C18.105 26.5091 18.6624 25.8754 18.9617 25.2535C19.2785 24.5963 19.0966 23.9685 18.5157 23.5402H18.5099Z" fill="#FEBE4C"/>
<path d="M13.4644 25.6233C13.2531 25.4825 13.0067 25.3651 12.7661 25.2947C12.2381 25.1422 11.7452 25.4062 11.3814 25.7817C10.9179 26.2629 10.6128 26.8731 10.6011 27.542C10.6011 27.6886 10.6245 27.8295 10.6773 27.9644C10.6128 28.4455 10.8299 28.8915 11.3638 29.0675C11.6807 29.1672 12.021 29.2024 12.3496 29.22C12.4845 29.2259 12.6195 29.2259 12.7544 29.22C12.7661 29.22 12.8248 29.2142 12.8776 29.2083C12.8894 29.2142 12.9128 29.22 12.9422 29.2318C13.3822 29.3667 14.0335 29.1555 14.2389 28.7037C14.7259 27.6124 14.4912 26.3098 13.4644 25.6174V25.6233Z" fill="#FEBE4C"/>
<path d="M15.0132 31.0448C14.5262 30.9216 14.0098 30.857 13.5111 30.8981C12.9244 30.9509 12.4784 31.2619 12.2907 31.831C12.144 32.2769 12.1733 32.7698 12.3963 33.1864C12.4726 33.3272 12.5488 33.4622 12.6721 33.5795C12.7601 33.6675 13.2705 34.0665 12.942 33.7966C13.1062 33.9316 13.2823 34.0254 13.47 34.09C13.5639 34.3012 13.693 34.489 13.8455 34.665C14.2856 35.1637 15.0777 34.9701 15.4004 34.4655C15.7994 33.8377 15.8463 32.893 15.8639 32.1713C15.8757 31.6726 15.4943 31.168 15.0132 31.0506V31.0448Z" fill="#FEBE4C"/>
</g>
<defs>
<clipPath id="clip0_894_1872">
<rect width="88" height="88" rx="12" fill="white"/>
</clipPath>
</defs>
</svg>
