<svg width="88" height="88" viewBox="0 0 88 88" fill="none" xmlns="http://www.w3.org/2000/svg">
<g clip-path="url(#clip0_894_1973)">
<path d="M88 0H0V88H88V0Z" fill="#A7CB42"/>
<path d="M60.0688 32.1538C56.848 32.1538 53.9088 33.6031 51.3099 34.8822L51.2043 34.935C48.5877 36.2258 45.9595 36.9065 43.5952 36.9065C42.4453 36.9065 41.3365 36.748 40.304 36.4312C39.0837 36.0615 37.8693 35.4924 36.7429 34.935L36.6432 34.8822C34.0501 33.6031 31.1051 32.1538 27.8843 32.1538C27.3563 32.1538 26.8283 32.1949 26.3237 32.2712C21.8123 32.9635 18.0635 36.9886 17.4064 41.8351C16.8432 46.001 18.4683 50.4661 21.7419 53.7754C24.3936 56.4509 27.9899 58.3578 32.4309 59.4375C36.1973 60.3528 40.0107 60.564 43.7008 60.7635H43.7653H43.8299H44.2581C47.9483 60.5581 51.7616 60.3469 55.528 59.4316C59.9691 58.352 63.5653 56.4451 66.2171 53.7695C69.4965 50.4603 71.1157 45.9951 70.5525 41.8292C69.8955 36.9827 66.1467 32.9577 61.6352 32.2653C61.1248 32.189 60.6027 32.1479 60.0747 32.1479L60.0688 32.1538Z" fill="#7DB900"/>
<path d="M11.7392 29.0732C8.18989 29.0732 5.30936 31.9659 5.30936 35.5274C5.30936 39.089 8.18989 41.9816 11.7392 41.9816C15.2886 41.9816 18.1691 39.089 18.1691 35.5274C18.1691 31.9659 15.2886 29.0732 11.7392 29.0732Z" fill="#7DB900"/>
<path d="M68.1765 42.1576C67.6896 38.5374 64.8677 35.1988 61.2656 34.6414C58.1387 34.1602 55.0997 35.6858 52.2603 37.0881C48.3765 39.0009 43.8475 40.016 39.6059 38.7251C38.2507 38.3085 36.9541 37.7159 35.6869 37.0881C32.8475 35.6916 29.8085 34.1661 26.6816 34.6414C23.0795 35.1929 20.2635 38.5315 19.7707 42.1576C19.2837 45.7778 20.8677 49.4919 23.4373 52.0794C26.0069 54.6728 29.4565 56.2395 32.9941 57.102C36.5317 57.9645 40.1925 58.164 43.8299 58.3635H44.1291C47.7664 58.164 51.4272 57.9645 54.9648 57.102C58.5024 56.2395 61.952 54.6728 64.5216 52.0794C67.0912 49.486 68.6752 45.7778 68.1883 42.1576H68.1765Z" fill="#577D00"/>
<path d="M58.5611 43.871C58.2677 41.6883 56.5664 39.6757 54.3957 39.3413C52.5125 39.0538 50.6763 39.9691 48.9691 40.814C46.6283 41.9699 43.9003 42.5801 41.3483 41.7998C40.5328 41.5475 39.7525 41.1895 38.984 40.814C37.2709 39.9691 35.4405 39.0538 33.5573 39.3413C31.3867 39.6757 29.6853 41.6883 29.392 43.871C29.0987 46.0537 30.0549 48.2892 31.5979 49.8499C33.1408 51.4106 35.2235 52.3553 37.3531 52.8775C39.4827 53.3938 41.6885 53.5171 43.8827 53.6403H44.0645C46.2528 53.5229 48.4587 53.3997 50.5941 52.8775C52.7296 52.3553 54.8064 51.4106 56.3493 49.8499C57.8981 48.2892 58.8544 46.0537 58.5552 43.871H58.5611Z" fill="#405920"/>
<path d="M24.0417 52.5784C24.8044 52.285 25.5436 51.9212 26.2593 51.4049C26.9809 50.8827 28.6295 49.6622 28.7233 48.7117C28.8524 47.4209 27.5265 47.1334 26.582 47.3681C25.7079 47.5852 24.91 47.9489 24.0183 48.125C22.9916 48.3244 21.9532 48.389 20.9089 48.4125C21.5484 49.7385 22.4167 50.9648 23.4375 52.0092C23.6311 52.2087 23.8423 52.3906 24.0476 52.5784H24.0417Z" fill="#FFEAE3"/>
<path d="M33.3755 50.0906C32.4779 49.058 30.9173 50.7536 30.2309 51.27C29.1984 52.0445 27.5264 53.5818 26.0245 54.1216C27.7141 55.2481 29.5915 56.0872 31.5392 56.6856C31.9264 56.1576 32.2784 55.6295 32.56 55.1484C33.2171 54.0218 34.4315 51.2993 33.3813 50.0906H33.3755Z" fill="#FFEAE3"/>
<path d="M41.7012 54.7319C41.7012 53.7696 41.5897 51.6632 40.4338 51.3287C39.4129 51.0295 38.4741 52.5198 37.946 53.2122C36.8781 54.6145 36.1388 56.3161 34.8245 57.4778C36.9838 57.8768 39.1723 58.0822 41.3667 58.223C41.619 57.0554 41.6953 55.7939 41.6953 54.726L41.7012 54.7319Z" fill="#FFEAE3"/>
<path d="M26.6817 34.6475C26.318 34.7061 25.9601 34.7942 25.6139 34.9056C25.4731 36.7715 26.1419 38.5787 26.8167 40.3037C27.3213 41.5887 28.1838 43.2785 29.6448 43.6012C30.0379 43.6892 30.3958 43.4252 30.4076 43.0086C30.4721 41.1779 30.3548 39.3473 30.431 37.5225C30.4663 36.6424 30.5484 35.7916 30.5425 34.9408C29.2752 34.5947 27.9843 34.448 26.6759 34.6475H26.6817Z" fill="#FFEAE3"/>
<path d="M35.0361 43.7127C36.0981 44.3112 36.72 43.2785 36.9371 42.3515C37.1131 41.6004 37.1483 40.7966 37.1659 40.028C37.1835 39.2945 37.2598 38.5787 37.3596 37.8688C36.7963 37.6223 36.2389 37.3583 35.6873 37.0884C34.6957 36.6014 33.6807 36.0968 32.648 35.6685C32.472 37.2292 32.8182 39.1655 33.2171 40.4387C33.534 41.4538 34.0621 43.1612 35.0361 43.7127Z" fill="#FFEAE3"/>
<path d="M39.6118 38.7253C39.4592 38.6784 39.3125 38.6256 39.1659 38.5728C39.2304 39.1654 39.336 39.7638 39.3947 40.333C39.4944 41.2835 39.5825 42.2164 39.8934 43.1259C40.1927 43.9825 40.6797 45.3673 41.7358 45.4611C43.0266 45.5785 43.5136 43.8711 43.6838 42.8912C43.8892 41.7118 44.118 40.4973 44.2647 39.2827C42.7039 39.3531 41.1373 39.1888 39.6118 38.7194V38.7253Z" fill="#FFEAE3"/>
<path d="M19.8939 41.4597C20.7681 43.2962 22.7631 45.0681 24.5409 45.737C25.8083 46.2123 26.8116 45.6138 26.4185 44.1646C26.0547 42.8326 25.2215 41.6122 24.8167 40.2568C24.3825 38.8017 23.8779 37.3348 23.7077 35.821C21.8008 37.0884 20.3926 39.1831 19.888 41.4597H19.8939Z" fill="#FFEAE3"/>
<path d="M58.5317 37.5225C58.608 39.3473 58.4907 41.1779 58.5552 43.0085C58.5728 43.4251 58.9307 43.6833 59.318 43.6012C60.779 43.2843 61.6474 41.5945 62.1461 40.3037C62.768 38.7018 63.3959 37.0413 63.3783 35.3281C62.7152 34.9995 62.0111 34.7589 61.266 34.6474C60.3096 34.5007 59.3591 34.5418 58.4261 34.712C58.3968 35.639 58.4907 36.572 58.5259 37.5283L58.5317 37.5225Z" fill="#FFEAE3"/>
<path d="M57.2296 56.4157C59.0368 55.7879 60.7794 54.9547 62.3343 53.8517C61.0024 53.1828 59.6294 51.9389 58.7375 51.2641C58.0511 50.7478 56.4903 49.0521 55.5926 50.0848C54.5423 51.2935 55.7569 54.016 56.414 55.1425C56.6487 55.5415 56.9304 55.9757 57.2355 56.4099L57.2296 56.4157Z" fill="#FFEAE3"/>
<path d="M67.0628 48.3715C66.3528 48.3304 65.6487 48.26 64.9505 48.125C64.0586 47.949 63.2607 47.5852 62.3864 47.3681C61.4417 47.1334 60.4149 47.4327 60.4091 48.5944C60.4091 49.8325 61.8407 50.7771 62.7032 51.4049C63.1961 51.7629 63.7007 52.0445 64.2229 52.2851C64.3168 52.1912 64.4224 52.109 64.5163 52.0093C65.549 50.9532 66.4173 49.7151 67.0628 48.3715Z" fill="#FFEAE3"/>
<path d="M64.4221 45.737C65.7599 45.2383 67.2268 44.1059 68.2418 42.7975C68.2301 42.5862 68.2066 42.375 68.1773 42.1638C67.8839 40.0045 66.7632 37.9568 65.1438 36.5251C64.9209 37.7925 64.5043 39.0305 64.1405 40.2568C63.7356 41.6064 62.9025 42.8327 62.5387 44.1646C62.1397 45.6138 63.1489 46.2123 64.4163 45.737H64.4221Z" fill="#FFEAE3"/>
<path d="M45.2849 42.8913C45.455 43.8712 45.9362 45.5786 47.2329 45.4613C48.289 45.3674 48.776 43.9885 49.0752 43.126C49.3921 42.2166 49.4801 41.2895 49.574 40.3331C49.6503 39.6173 49.7969 38.8604 49.8439 38.1211C48.6176 38.567 47.3561 38.9132 46.0711 39.1068C46.0711 39.1303 46.0711 39.1538 46.0711 39.1714C46.0711 39.1479 46.0594 39.1303 46.0594 39.1068C45.6076 39.1772 45.1558 39.2242 44.704 39.2535C44.8565 40.4739 45.0854 41.6944 45.2907 42.8855L45.2849 42.8913Z" fill="#FFEAE3"/>
<path d="M48.5292 51.3287C47.3792 51.6632 47.2677 53.7755 47.2619 54.7319C47.2619 55.7763 47.3381 57.0084 47.5787 58.1585C49.7262 58 51.862 57.7653 53.9625 57.3194C52.7597 56.1577 52.038 54.5558 51.017 53.2181C50.489 52.5257 49.5502 51.0354 48.5292 51.3346V51.3287Z" fill="#FFEAE3"/>
<path d="M56.262 35.2988C54.8948 35.7858 53.5571 36.4488 52.2604 37.0884C52.0198 37.2057 51.7792 37.3172 51.5387 37.4287C51.6736 38.2854 51.7792 39.142 51.7968 40.028C51.8144 40.7966 51.8496 41.6005 52.0257 42.3515C52.2428 43.2786 52.8647 44.3112 53.9267 43.7128C54.9007 43.1612 55.4288 41.4538 55.7456 40.4387C56.1739 39.0599 56.5495 36.9124 56.262 35.2988Z" fill="#FFEAE3"/>
<path d="M11.7394 40.1627C14.7915 40.1627 17.2658 37.6803 17.2658 34.618C17.2658 31.5557 14.7915 29.0732 11.7394 29.0732C8.68721 29.0732 6.21295 31.5557 6.21295 34.618C6.21295 37.6803 8.68721 40.1627 11.7394 40.1627Z" fill="white"/>
<path d="M17.0193 32.9692C17.0545 33.2157 17.078 33.4621 17.078 33.7144C17.078 36.6716 14.6903 39.0714 11.7452 39.0714C8.80014 39.0714 6.41241 36.6716 6.41241 33.7144C6.41241 33.4621 6.43588 33.2157 6.47108 32.9692C6.30681 33.4914 6.21881 34.043 6.21881 34.6239C6.21881 37.6867 8.69454 40.1686 11.7452 40.1686C14.7959 40.1686 17.2716 37.6867 17.2716 34.6239C17.2716 34.0488 17.1836 33.4914 17.0193 32.9692Z" fill="#F6F2F0"/>
<path d="M11.9213 36.2023C11.0529 36.302 10.2667 35.6742 10.1669 34.7999C10.0672 33.9257 10.695 33.1395 11.5634 33.0397C12.4317 32.94 13.218 33.5678 13.3177 34.442C13.4175 35.3163 12.7897 36.1025 11.9213 36.2023Z" fill="#405920"/>
<path d="M76.3253 29.0732C72.776 29.0732 69.8954 31.9659 69.8954 35.5274C69.8954 39.089 72.776 41.9816 76.3253 41.9816C79.8747 41.9816 82.7552 39.089 82.7552 35.5274C82.7552 31.9659 79.8747 29.0732 76.3253 29.0732Z" fill="#7DB900"/>
<path d="M76.3253 40.1627C79.3775 40.1627 81.8517 37.6803 81.8517 34.618C81.8517 31.5557 79.3775 29.0732 76.3253 29.0732C73.2732 29.0732 70.7989 31.5557 70.7989 34.618C70.7989 37.6803 73.2732 40.1627 76.3253 40.1627Z" fill="white"/>
<path d="M76.5074 36.2023C75.6391 36.302 74.8528 35.6742 74.7531 34.7999C74.6533 33.9257 75.2811 33.1395 76.1495 33.0397C77.0179 32.94 77.8041 33.5678 77.9039 34.442C78.0036 35.3163 77.3758 36.1025 76.5074 36.2023Z" fill="#405920"/>
<path d="M44.2581 47.0158C44.8507 46.8222 45.3787 46.4819 45.9477 46.2355C46.5168 45.989 47.168 45.8365 47.7547 46.0418C48.5701 46.3235 49.0453 47.2681 48.9397 48.1306C48.8283 48.9932 48.2299 49.7325 47.4907 50.1784C46.7515 50.6243 45.8832 50.8062 45.0208 50.8942C43.2784 51.0702 41.4949 50.8649 39.8347 50.3075C39.16 50.0786 38.4795 49.7735 38.0453 49.2103C37.4059 48.3771 37.5115 47.0628 38.2741 46.3469C39.0603 45.6135 40.2395 45.637 41.008 46.3176C41.9232 47.1391 43.0144 47.4266 44.2581 47.0217V47.0158Z" fill="#FF626A"/>
<path d="M17.864 27.7707C14.6901 24.9895 8.67679 25.189 5.40906 27.6416C4.59946 28.246 5.37386 29.6776 6.18933 29.0674C8.80586 27.1077 14.168 26.6559 16.7787 28.9383C17.5413 29.6072 18.6384 28.4455 17.8699 27.7707H17.864Z" fill="#577D00"/>
<path d="M82.6731 27.7707C79.4992 24.9895 73.4859 25.189 70.2181 27.6416C69.4085 28.246 70.1829 29.6776 70.9984 29.0674C73.6149 27.1077 78.9771 26.6559 81.5877 28.9383C82.3504 29.6072 83.4475 28.4455 82.6789 27.7707H82.6731Z" fill="#577D00"/>
<path d="M38.7024 24.5671C38.5733 23.6225 37.9397 23.3232 37.0656 23.2469C36.3499 23.1883 35.4992 23.0709 34.7248 23.1648C34.2496 23.2293 33.8213 23.3584 33.4576 23.6166C32.1963 24.5084 31.2752 26.433 30.9291 27.894C30.888 28.0641 30.9408 28.1991 31.0347 28.2812C30.9936 28.9853 31.152 29.5368 32.1141 29.6483C32.8709 29.7363 33.5104 29.7129 34.2672 29.9006C35.1707 30.1295 36.0507 30.3231 36.9835 30.3055C37.0187 30.3055 37.048 30.2938 37.0832 30.282C37.3003 30.3055 37.4763 30.2057 37.5525 29.9945C37.8811 29.1027 37.8987 28.1345 38.1627 27.2192C38.4032 26.3802 38.8256 25.459 38.7024 24.5613V24.5671Z" fill="#C5DD83"/>
<path d="M44.8338 28.5334C44.5169 27.976 44.0593 27.3892 43.5136 27.0841C43.5019 26.9785 43.4491 26.8729 43.3376 26.7908C42.4927 26.163 41.683 26.3742 41.0669 27.0313C40.5271 27.2015 40.2337 27.8645 40.0225 28.5921C39.6176 29.3196 39.289 30.1176 39.336 30.8569C39.336 30.9038 39.3477 30.9508 39.3653 30.9919C39.3653 31.0212 39.3536 31.0564 39.3477 31.0916C39.3066 31.3615 39.4533 31.5962 39.7467 31.6138C41.0434 31.6842 42.2814 31.8602 43.5547 32.1184C44.0886 32.224 44.7751 32.3531 45.2504 32.0069C46.2889 31.2559 45.3032 29.3607 44.8338 28.5275V28.5334Z" fill="#C5DD83"/>
<path d="M47.4501 24.755C47.4031 24.5965 47.274 24.4675 47.0746 24.4499C46.212 24.3853 45.2967 24.2738 44.4577 24.5496C44.3814 24.5496 44.311 24.5496 44.2406 24.5496C44.0822 24.5496 43.8709 24.6728 43.8416 24.8547C43.6773 26.0517 44.7217 26.703 45.4669 27.4481C45.5725 27.5537 45.6898 27.5772 45.8013 27.5596C45.8131 27.5655 45.8189 27.5713 45.8307 27.5772C46.259 27.8764 46.9748 28.381 47.5205 28.381C48.0662 28.381 48.1776 27.7239 48.2539 27.3014C48.3185 26.9729 48.3478 26.5797 48.3126 26.2042C48.3361 26.1573 48.3537 26.1103 48.3595 26.0517C48.4358 25.3476 48.0427 24.843 47.4442 24.7608L47.4501 24.755Z" fill="#C5DD83"/>
<path d="M52.5014 26.8613C51.7328 26.5151 51.1108 26.5679 50.6004 26.8554C50.3598 26.9317 50.1251 27.0373 49.9432 27.1957C49.8376 27.184 49.732 27.2074 49.6322 27.3013C48.711 28.1404 46.8041 31.4437 48.5761 32.2886C49.4562 32.7111 50.6649 32.3121 51.5861 32.3004C52.5014 32.2886 53.7277 32.494 54.5022 31.8603C56.0571 30.5871 53.7981 27.4539 52.4956 26.8671L52.5014 26.8613Z" fill="#C5DD83"/>
<path d="M59.9876 25.6527C59.6943 24.6317 57.846 24.1565 56.9776 23.9746C56.3792 23.8514 55.6281 23.7106 55.0238 23.822C54.8888 23.7634 54.7187 23.7634 54.5779 23.8866C54.4781 23.9687 54.3784 24.0626 54.2786 24.1506C53.7036 24.3736 53.1931 24.7902 52.7472 25.195C52.448 25.4649 52.7648 26.0282 53.1462 25.8874C54.0263 26.3216 54.7187 26.7616 55.4404 27.0609C55.5225 27.1489 55.634 27.2134 55.7513 27.2193C55.7924 27.2193 55.8335 27.2193 55.8746 27.2193C56.4496 27.3953 57.0774 27.4716 57.846 27.3601C58.6264 27.2486 60.328 26.8144 59.9935 25.6644L59.9876 25.6527Z" fill="#C5DD83"/>
<path d="M29.3044 27.9584C28.3949 27.9056 27.4914 27.8645 26.5995 28.0875C26.2416 28.1755 26.2123 28.6566 26.4998 28.8444C26.5056 28.8444 26.5174 28.8503 26.5291 28.8561C26.5702 29.0087 26.6934 29.1202 26.8987 29.1025C26.9398 29.1025 26.9809 29.1025 27.022 29.1025C27.2332 29.1906 27.4444 29.2668 27.6615 29.3314C28.0194 29.5485 28.3656 29.8536 28.6472 30.0296C28.8937 30.1822 29.1577 30.0179 29.2516 29.7832C29.4217 29.3548 29.5978 28.9324 29.6975 28.4806C29.7562 28.2107 29.5743 27.976 29.2985 27.9584H29.3044Z" fill="#C5DD83"/>
<path d="M34.0267 30.8041C33.7157 30.8335 33.5925 31.1386 33.6512 31.3674C33.6336 31.5493 33.704 31.7488 33.9152 31.8309C35.2999 32.3883 36.2153 33.7496 37.8523 33.4738C37.9755 33.4503 38.1222 33.3154 38.1398 33.1863C38.4449 31.1386 35.5053 30.6633 34.0267 30.8041Z" fill="#C5DD83"/>
<path d="M61.0609 28.95C59.6469 28.551 58.2211 28.3574 56.7483 28.3985C56.5723 28.3985 56.4491 28.51 56.3904 28.639C56.1675 28.7153 55.9914 28.9618 56.1499 29.2258C57.3116 31.2266 59.4826 30.7689 61.1607 29.701C61.454 29.5133 61.413 29.0439 61.0609 28.9441V28.95ZM58.9193 29.748C59.1012 29.6893 59.1833 29.5426 59.2009 29.3901C59.4063 29.4194 59.6058 29.4487 59.8111 29.4898C59.4884 29.6248 59.1657 29.7304 58.843 29.7715C58.8724 29.7656 58.8958 29.748 58.9193 29.7421V29.748Z" fill="#C5DD83"/>
<path d="M62.9261 27.0022C63.0552 26.7205 62.7208 26.2922 62.3335 26.4624C61.8935 26.6501 61.4886 26.9024 61.0134 26.9904C60.6261 27.0667 60.6672 27.5537 60.9136 27.7473C61.559 28.2461 62.4567 28.1874 63.2078 28.3927C63.466 28.4632 63.73 28.2637 63.73 27.9938C63.73 27.407 63.3779 27.1195 62.9261 27.0022Z" fill="#C5DD83"/>
<path d="M11.5457 32.8167H11.4342C10.3781 32.8167 10.3722 34.4654 11.4342 34.4654H11.5457C12.6019 34.4654 12.6077 32.8167 11.5457 32.8167Z" fill="white"/>
<path d="M76.7948 32.8167H76.6833C75.6271 32.8167 75.6213 34.4654 76.6833 34.4654H76.7948C77.8509 34.4654 77.8568 32.8167 76.7948 32.8167Z" fill="white"/>
<path d="M47.5259 33.7439C47.0155 33.7322 46.464 33.7791 45.8949 33.8378C44.2875 33.738 42.6976 33.4799 41.0843 33.4153C41.0256 33.3977 40.9669 33.3918 40.9141 33.4036C40.8261 33.4036 40.744 33.3918 40.656 33.3918C40.3685 33.3918 40.2453 33.6265 40.2688 33.8495C40.1339 33.9434 40.0459 34.0901 40.1104 34.272C40.6091 35.6508 42.592 35.7388 43.8123 35.7212C45.0384 35.7095 47.1797 35.6039 47.8779 34.3658C48.0304 34.0901 47.8368 33.7498 47.52 33.7439H47.5259Z" fill="#C5DD83"/>
<path d="M32.027 22.3081C30.1084 22.2318 28.3481 23.0767 26.7404 24.0742C26.3825 24.215 26.0598 24.4145 25.7958 24.6844C25.7254 24.7314 25.6784 24.7959 25.6374 24.8663C25.5963 24.9191 25.5435 24.9602 25.5083 25.0189C25.3675 25.236 25.5083 25.5645 25.7547 25.6232C25.9542 25.6702 26.1537 25.7054 26.3473 25.7288C26.3767 25.7406 26.4119 25.7523 26.4412 25.764C26.4412 25.9225 26.5233 26.075 26.7346 26.1044C27.6734 26.2393 28.8645 26.7556 29.7622 26.2276C30.9122 25.5469 31.5224 24.0155 32.3204 23.0063C32.5375 22.7306 32.4084 22.314 32.027 22.3022V22.3081Z" fill="#C5DD83"/>
<path d="M42.7449 23.1823C41.8472 23.1353 40.9436 23.0591 40.0694 23.3231C39.952 23.3583 39.8582 23.4522 39.8053 23.5578C39.5941 23.681 39.4768 23.9744 39.7056 24.1915C40.1809 24.6433 40.7735 25.2007 41.4834 25.1537C42.2403 25.1068 42.7332 24.3851 43.097 23.7984C43.273 23.5226 43.0383 23.194 42.7391 23.1764L42.7449 23.1823Z" fill="#C5DD83"/>
<path d="M52.7008 22.9828C51.4393 22.9828 50.1954 22.7129 48.9339 22.8596C48.7638 22.8772 48.6112 23.0063 48.5467 23.1588C48.4704 23.2468 48.4352 23.3642 48.488 23.5109C48.7696 24.2971 49.2508 24.9543 50.1661 24.8369C51.1107 24.7137 51.8911 24.0272 52.8064 23.7925C53.2582 23.6752 53.1585 22.9828 52.695 22.9828H52.7008Z" fill="#C5DD83"/>
<path d="M52.448 63.0164C46.2997 64.5654 39.7232 64.8822 33.7861 62.5059C32.9179 62.148 32.2256 63.4447 33.1291 63.8202C39.3477 66.3315 46.2528 66.0792 52.7237 64.4598C53.6859 64.2133 53.3749 62.7817 52.448 63.0164Z" fill="#89B901"/>
<path d="M81.6053 32.9692C81.6405 33.2157 81.664 33.4621 81.664 33.7144C81.664 36.6716 79.2763 39.0714 76.3312 39.0714C73.3861 39.0714 70.9984 36.6716 70.9984 33.7144C70.9984 33.4621 71.0219 33.2157 71.0571 32.9692C70.8928 33.4914 70.8048 34.043 70.8048 34.6239C70.8048 37.6867 73.2805 40.1686 76.3312 40.1686C79.3819 40.1686 81.8576 37.6867 81.8576 34.6239C81.8576 34.0488 81.7696 33.4914 81.6053 32.9692Z" fill="#F6F2F0"/>
<path d="M60.3565 36.0321C61.3833 36.1788 62.3397 36.5485 63.1905 37.0824C63.3137 36.5015 63.3841 35.9207 63.3783 35.3281C62.7152 34.9995 62.0111 34.7589 61.266 34.6474C60.3096 34.5007 59.3591 34.5418 58.4261 34.712C58.4144 35.1403 58.4261 35.5628 58.4496 35.9969C59.0833 35.9441 59.717 35.9441 60.3565 36.038V36.0321Z" fill="#F8D1C2"/>
<path d="M30.5073 36.1261C30.5308 35.7271 30.5484 35.334 30.5425 34.935C29.2752 34.5888 27.9843 34.4421 26.6759 34.6416C26.3121 34.7003 25.9542 34.7883 25.608 34.8998C25.5669 35.4631 25.608 36.0263 25.6901 36.5779C26.2886 36.3138 26.9223 36.1202 27.5912 36.0263C28.5711 35.8855 29.5451 35.9442 30.5073 36.1202V36.1261Z" fill="#F8D1C2"/>
<path d="M22.1587 48.3538C21.7421 48.3831 21.3255 48.4007 20.9089 48.4124C21.5485 49.7385 22.4169 50.9648 23.4378 52.0092C23.6314 52.2087 23.8427 52.3906 24.048 52.5783C24.4529 52.4258 24.846 52.2497 25.2332 52.0444C24.9927 51.8449 24.7462 51.6454 24.5174 51.4283C23.5669 50.5364 22.7631 49.4862 22.1587 48.3538Z" fill="#F8D1C2"/>
<path d="M66.9038 42.6684C66.9742 43.1554 66.9918 43.6482 66.9742 44.1352C67.4377 43.7245 67.866 43.2727 68.2357 42.7975C68.2239 42.5862 68.2005 42.375 68.1711 42.1638C67.8778 40.0045 66.7571 37.9568 65.1377 36.5251C65.032 37.1295 64.8795 37.728 64.7093 38.3206C65.8711 39.5234 66.6573 41.0607 66.892 42.6684H66.9038Z" fill="#F8D1C2"/>
<path d="M37.2598 38.6902C37.2892 38.4144 37.3185 38.1387 37.3596 37.8688C36.7963 37.6223 36.2389 37.3583 35.6874 37.0884C34.6958 36.6014 33.6807 36.0968 32.648 35.6685C32.6128 35.997 32.6011 36.3491 32.6069 36.7011C33.8098 37.1236 34.9833 37.6634 36.1215 38.1856C36.4971 38.3557 36.8784 38.5259 37.2598 38.6902Z" fill="#F8D1C2"/>
<path d="M56.3558 36.3843C56.35 36.0088 56.3206 35.6391 56.262 35.2988C54.8948 35.7858 53.5571 36.4488 52.2604 37.0884C52.0198 37.2057 51.7792 37.3172 51.5387 37.4287C51.5797 37.7045 51.6149 37.9861 51.6501 38.2619C51.7088 38.2384 51.7675 38.2091 51.8262 38.1856C53.2872 37.5167 54.801 36.8126 56.3558 36.3784V36.3843Z" fill="#F8D1C2"/>
<path d="M44.1356 40.1335C44.1767 39.8519 44.2295 39.5702 44.2588 39.2886C42.6981 39.359 41.1315 39.1947 39.6059 38.7253C39.4534 38.6784 39.3067 38.6256 39.16 38.5728C39.1952 38.8661 39.2363 39.1654 39.2774 39.4529C39.4651 39.5115 39.6529 39.5761 39.8406 39.6289C41.2488 40.0279 42.6981 40.1746 44.1356 40.1276V40.1335Z" fill="#F8D1C2"/>
<path d="M24.048 37.5813C23.9013 37.0004 23.7781 36.4137 23.7077 35.821C21.8008 37.0884 20.3926 39.1831 19.888 41.4597C20.1579 42.0288 20.5452 42.5862 20.9911 43.1143C21.0028 42.9676 21.0146 42.815 21.038 42.6684C21.3197 40.7086 22.4403 38.8487 24.0422 37.5813H24.048Z" fill="#F8D1C2"/>
<path d="M34.8304 57.4836C36.9896 57.8826 39.1782 58.0879 41.3726 58.2287C41.4723 57.7769 41.5369 57.3134 41.5838 56.8558C39.6769 56.7443 37.7641 56.5858 35.8865 56.2983C35.5697 56.7267 35.2294 57.1315 34.8304 57.4836Z" fill="#F8D1C2"/>
<path d="M57.2294 56.4156C59.0366 55.7878 60.7792 54.9546 62.3341 53.8516C61.9469 53.6579 61.5596 53.4115 61.1782 53.1475C59.7407 54.0569 58.1506 54.7551 56.4901 55.2773C56.7072 55.6411 56.9537 56.0225 57.2294 56.4098V56.4156Z" fill="#F8D1C2"/>
<path d="M47.5728 58.1583C49.7203 57.9999 51.8561 57.7652 53.9566 57.3192C53.587 56.9672 53.2701 56.5623 52.965 56.1458C51.1226 56.4802 49.245 56.6621 47.3675 56.7912C47.4144 57.2488 47.4789 57.7124 47.5728 58.1583Z" fill="#F8D1C2"/>
<path d="M49.8439 38.1211C48.6176 38.567 47.3561 38.9132 46.0711 39.1068C46.0711 39.1303 46.0711 39.1538 46.0711 39.1714C46.0711 39.1479 46.0594 39.1303 46.0594 39.1068C45.6076 39.1772 45.1558 39.2242 44.704 39.2535C44.7392 39.5293 44.7861 39.8109 44.8272 40.0867C46.4994 39.9576 48.1599 39.5762 49.7441 39.0247C49.7852 38.7196 49.8263 38.4203 49.8439 38.1152V38.1211Z" fill="#F8D1C2"/>
<path d="M63.4304 51.4284C63.3366 51.5164 63.2309 51.5986 63.1312 51.6866C63.4891 51.9096 63.847 52.1149 64.2167 52.2851C64.3106 52.1912 64.4162 52.1091 64.51 52.0093C65.5427 50.9532 66.4111 49.7151 67.0565 48.3715C66.6517 48.348 66.2409 48.3069 65.842 48.26C65.2317 49.4276 64.4103 50.5072 63.4304 51.4284Z" fill="#F8D1C2"/>
<path d="M26.0187 54.1215C27.7085 55.2481 29.5861 56.0871 31.5341 56.6856C31.8216 56.2983 32.0739 55.9111 32.3086 55.5414C30.5483 55.0544 28.8468 54.3738 27.2978 53.4702C26.8695 53.7401 26.4353 53.9689 26.0187 54.1215Z" fill="#F8D1C2"/>
<path d="M44 59.0559C40.2277 59.0559 36.4496 58.6159 32.8592 57.7416C28.7349 56.7383 25.4144 54.9898 22.9914 52.5431C20.0933 49.6152 18.6501 45.6957 19.1429 42.0638C19.6944 37.9625 22.833 34.5652 26.6053 33.9843C29.3568 33.5619 32.4192 34.2484 36.256 36.1377C37.4469 36.7244 38.7376 37.3288 40.0752 37.7336C44.6336 39.1242 49.2096 37.6339 52.2427 36.1377C55.0235 34.7647 58.0213 33.468 61.3888 33.9843C65.1611 34.5652 68.2997 37.9625 68.8512 42.0638C69.344 45.6957 67.9008 49.6152 65.0027 52.5431C62.5797 54.9898 59.2592 56.7383 55.1349 57.7416C51.5445 58.6159 47.7664 59.0559 43.9941 59.0559H44ZM28.1658 35.193C27.6965 35.193 27.2448 35.2282 26.8107 35.2928C23.6544 35.7798 20.9264 38.7663 20.4512 42.2457C20.0171 45.4728 21.3136 48.9757 23.9301 51.616C26.1771 53.8867 29.2864 55.5179 33.1701 56.4625C40.1515 58.1641 47.8426 58.1641 54.824 56.4625C58.7077 55.5179 61.8171 53.8867 64.064 51.616C66.6805 48.9757 67.9771 45.4728 67.5429 42.2457C67.0736 38.7663 64.3397 35.7798 61.1835 35.2928C58.1973 34.8351 55.5221 35.991 52.8176 37.3229C49.5674 38.9247 44.6512 40.5148 39.6821 39.001C38.2507 38.5668 36.9072 37.939 35.6635 37.3229C32.7653 35.8971 30.2955 35.193 28.1541 35.193H28.1658Z" fill="#405920"/>
<path d="M11.7393 40.4971C8.51264 40.4971 5.88437 37.8627 5.88437 34.618C5.88437 31.3733 8.51264 28.7388 11.7393 28.7388C14.966 28.7388 17.5942 31.3733 17.5942 34.618C17.5942 37.8627 14.966 40.4971 11.7393 40.4971ZM11.7393 29.4018C8.87637 29.4018 6.54144 31.7429 6.54144 34.618C6.54144 37.493 8.8705 39.8341 11.7393 39.8341C14.6081 39.8341 16.9372 37.493 16.9372 34.618C16.9372 31.7429 14.6081 29.4018 11.7393 29.4018Z" fill="#577D00"/>
<path d="M76.3253 40.4971C73.0987 40.4971 70.4704 37.8627 70.4704 34.618C70.4704 31.3733 73.0987 28.7388 76.3253 28.7388C79.552 28.7388 82.1803 31.3733 82.1803 34.618C82.1803 37.8627 79.552 40.4971 76.3253 40.4971ZM76.3253 29.4018C73.4624 29.4018 71.1275 31.7429 71.1275 34.618C71.1275 37.493 73.4565 39.8341 76.3253 39.8341C79.1941 39.8341 81.5232 37.493 81.5232 34.618C81.5232 31.7429 79.1941 29.4018 76.3253 29.4018Z" fill="#577D00"/>
</g>
<defs>
<clipPath id="clip0_894_1973">
<rect width="88" height="88" rx="12" fill="white"/>
</clipPath>
</defs>
</svg>
