<svg width="88" height="88" viewBox="0 0 88 88" fill="none" xmlns="http://www.w3.org/2000/svg">
<g clip-path="url(#clip0_894_1795)">
<path d="M88 0H0V88H88V0Z" fill="#69A9D3"/>
<path d="M79.6987 30.3465C79.4229 29.3021 78.4901 28.5687 77.4107 28.5334C77.3872 28.5334 77.3637 28.5334 77.3403 28.5334C76.2901 28.5334 75.3515 29.2082 75.0229 30.2115C73.0752 36.1259 68.6165 41.3186 62.4741 44.8215C58.0389 47.3504 52.5653 49.181 47.0565 49.9672C46.0475 50.1139 44.9797 50.1843 43.8827 50.1843C38.1979 50.1843 31.5099 48.2305 25.5376 44.8215C19.3893 41.3186 14.9365 36.1259 12.9888 30.2115C12.6603 29.2082 11.7216 28.5334 10.6715 28.5334C10.648 28.5334 10.6245 28.5334 10.6011 28.5334C9.52159 28.5628 8.58879 29.3021 8.31306 30.3465C5.24479 41.8526 7.51519 54.0921 14.2384 62.2889C20.9851 70.515 34.0325 74.3758 43.9707 74.5577C43.9883 74.5577 44 74.5577 44.0176 74.5577C44.0352 74.5577 44.0469 74.5577 44.0645 74.5577C54.0027 74.3758 67.0501 70.515 73.7968 62.2889C80.52 54.0921 82.7904 41.8526 79.7221 30.3465H79.6987Z" fill="#3189C3"/>
<path d="M77.3402 30.9741C75.0522 37.927 69.7781 43.4659 63.6768 46.9453C58.7488 49.7558 52.9584 51.5923 47.3968 52.3844C39.7701 53.4758 30.9877 50.7474 24.3232 46.9453C18.2218 43.4659 12.9536 37.9329 10.6656 30.9741C7.94932 41.1541 9.58025 52.7717 16.1157 60.7397C22.6512 68.7077 35.3994 71.9583 44.0058 72.1167C52.6064 71.9583 65.3546 68.7136 71.8901 60.7397C78.4256 52.7717 80.0565 41.1541 77.3402 30.9741Z" fill="#134975"/>
<path d="M32.8299 65.8386C38.9077 67.3876 45.2496 67.9685 51.5093 67.5401C54.736 67.323 58.0037 66.8184 60.9077 65.4396C63.8117 64.0607 66.3403 61.6962 67.2907 58.692C68.3173 55.4532 66.9563 51.3049 63.6651 50.1666C61.1424 49.2865 58.4027 50.3309 55.8624 51.1289C50.3595 52.8598 44.4811 53.4113 38.7259 52.848C35.6048 52.5429 32.5131 51.9151 29.5269 50.9705C27.4384 50.3074 23.8597 47.7551 21.7771 47.8666C17.3301 48.113 17.7467 53.8748 19.1312 56.8614C21.5307 62.0423 27.5381 64.4891 32.824 65.8386H32.8299Z" fill="#002E4F"/>
<path d="M63.4832 67.2937C63.1488 65.7447 62.4624 64.1546 61.8699 62.6525C56.3083 59.0206 48.8165 59.6132 43.3253 63.3625C40.5739 61.0214 37.0363 59.6895 33.4752 59.6543C29.9141 59.6191 26.3531 60.8806 23.5605 63.1689C22.3051 64.1957 23.2731 65.3868 23.8245 66.9241C30.2779 70.4504 38.1099 72.0111 44 72.1167C49.6789 72.0111 57.1648 70.5619 63.4832 67.2937Z" fill="#FF626A"/>
<path d="M36.4378 65.146C36.1386 63.7378 35.552 62.1477 34.2202 61.7135C33.0234 61.3262 31.7738 62.0597 30.7882 62.8635C28.9461 64.3597 27.7728 66.2549 26.705 68.3379C30.0725 69.8106 33.657 70.8198 37.0597 71.4241C37.0773 69.3177 36.8778 67.2054 36.4437 65.1518L36.4378 65.146Z" fill="#FFEAE3"/>
<path d="M16.1098 60.7455C18.7205 63.9315 22.3226 66.3547 26.2592 68.1385C26.4938 67.317 26.793 66.5132 27.0805 65.7035C27.5792 64.3129 28.0309 62.8695 27.9722 61.3909C27.9077 59.9123 27.2272 58.375 25.9482 57.7061C24.2645 56.8201 22.2053 57.6885 20.6917 58.862C19.5594 59.7363 18.4858 60.7865 17.5941 61.96C18.3274 60.5577 18.8554 59.038 19.137 57.4714C19.4304 55.8461 19.401 53.9686 18.2805 52.7951C17.4298 51.9032 16.1098 51.6275 14.9072 51.7917C13.7573 51.9443 12.6837 52.443 11.6336 52.9418C12.7189 55.764 14.1973 58.4102 16.1098 60.7396V60.7455Z" fill="#FFEAE3"/>
<path d="M57.2117 62.8635C56.2261 62.0655 54.9765 61.3262 53.7797 61.7135C52.448 62.1477 51.8613 63.7319 51.5621 65.1459C51.1221 67.2054 50.9226 69.3118 50.9461 71.4182C54.3488 70.8139 57.9333 69.8106 61.3008 68.332C60.233 66.249 59.0597 64.3538 57.2176 62.8576L57.2117 62.8635Z" fill="#FFEAE3"/>
<path d="M50.6938 71.4594C50.0954 68.8953 49.1685 66.4838 47.3674 64.5886C46.6576 63.8376 45.7365 63.2274 44.7626 63.0044C44.6922 62.9868 44.6277 62.9634 44.5573 62.9516C44.5456 62.9516 44.528 62.9516 44.5162 62.9516C44.4986 62.9516 44.4869 62.9516 44.4693 62.9516C44.3109 62.9282 44.1525 62.9106 43.9941 62.9164C43.8357 62.9164 43.6773 62.934 43.5189 62.9516C43.5013 62.9516 43.4896 62.9516 43.472 62.9516C43.4602 62.9516 43.4426 62.9516 43.4309 62.9516C43.3605 62.9634 43.296 62.9868 43.2256 63.0044C42.2517 63.2333 41.3365 63.8376 40.6208 64.5886C38.8197 66.4838 37.8928 68.8953 37.2944 71.4594C39.6704 71.8701 41.9466 72.0814 43.9941 72.1166C46.0357 72.0814 48.3178 71.8643 50.688 71.4594H50.6938Z" fill="#FFEAE3"/>
<path d="M76.3605 52.9418C75.3104 52.4372 74.2368 51.9444 73.0869 51.7918C71.8842 51.6334 70.5642 51.9033 69.7136 52.7952C68.5931 53.9686 68.5637 55.8521 68.8571 57.4715C69.1445 59.0381 69.6725 60.5578 70.4 61.9601C69.5082 60.7866 68.4346 59.7363 67.3024 58.8621C65.7888 57.6886 63.7355 56.8202 62.0459 57.7062C60.7728 58.3751 60.0864 59.9124 60.0218 61.391C59.9573 62.8696 60.4149 64.3188 60.9136 65.7035C61.2011 66.5074 61.5061 67.3112 61.7349 68.1385C65.6656 66.3548 69.2736 63.9316 71.8842 60.7455C73.7968 58.4162 75.2752 55.7699 76.3605 52.9477V52.9418Z" fill="#FFEAE3"/>
<path d="M50.9402 71.4185C54.3429 70.8141 57.9274 69.8108 61.2949 68.3322C60.9605 67.6809 60.6144 67.0531 60.2448 66.4429C57.2176 67.6692 54.0496 68.5317 51.0224 69.0715C50.9696 69.8519 50.9344 70.6322 50.9402 71.4126V71.4185Z" fill="#F5DCE1"/>
<path d="M26.705 68.3322C30.0725 69.8049 33.657 70.8141 37.0597 71.4185C37.0656 70.6381 37.0304 69.8577 36.9776 69.0773C33.9504 68.5375 30.7824 67.675 27.7552 66.4487C27.3856 67.0589 27.0394 67.6868 26.705 68.3381V68.3322Z" fill="#F5DCE1"/>
<path d="M17.6 61.9602C17.8288 61.526 18.0224 61.0801 18.2101 60.6224C17.4592 59.9301 16.7552 59.1908 16.1098 58.4104C14.6432 56.6267 13.4405 54.6494 12.4608 52.5547C12.185 52.6779 11.9093 52.807 11.6336 52.9419C12.7189 55.7642 14.1973 58.4104 16.1098 60.7398C18.7205 63.9258 22.3226 66.3491 26.2592 68.1328C26.4528 67.4463 26.6992 66.7715 26.9397 66.1026C23.8421 64.7707 20.9264 63.0457 18.5034 60.8865C18.1866 61.2326 17.8816 61.5847 17.6 61.9602Z" fill="#F5DCE1"/>
<path d="M71.8901 58.4163C71.2506 59.1966 70.5466 59.9359 69.7898 60.6283C69.9776 61.0801 70.177 61.5319 70.4 61.9661C70.1184 61.5906 69.8133 61.2385 69.4965 60.8923C67.0736 63.0574 64.1578 64.7766 61.0602 66.1085C61.3008 66.7774 61.5472 67.4521 61.7408 68.1386C65.6714 66.3549 69.2794 63.9317 71.8901 60.7456C73.8026 58.4163 75.281 55.77 76.3664 52.9478C76.0906 52.8187 75.8149 52.6838 75.5392 52.5605C74.5594 54.6552 73.3568 56.6326 71.8901 58.4163Z" fill="#F5DCE1"/>
<path d="M37.9397 69.2358C37.6933 69.9575 37.4821 70.6968 37.3002 71.4596C39.6762 71.8703 41.9525 72.0816 44 72.1168C46.0416 72.0816 48.3237 71.8645 50.6938 71.4596C50.5178 70.7027 50.3066 69.9575 50.0544 69.2358C47.913 69.5762 45.8597 69.7522 44 69.7874C42.1402 69.7522 40.0869 69.5762 37.9397 69.2358Z" fill="#F5DCE1"/>
<path d="M44.7569 54.9719C45.326 56.1395 46.4174 57.1311 47.6847 57.1722C49.0401 57.2132 50.2547 56.1453 50.7651 54.8428C51.1583 53.8394 51.3695 52.7305 51.3167 51.6509C50.0082 51.9501 48.6939 52.1966 47.3972 52.3843C46.3118 52.5369 45.2028 52.6073 44.0821 52.619C44.2112 53.4346 44.399 54.2384 44.7569 54.9777V54.9719Z" fill="#FFEAE3"/>
<path d="M32.4664 55.1421C33.5577 55.4472 34.7371 54.8135 35.4412 53.8982C35.9282 53.2645 36.2392 52.5076 36.4915 51.7331C34.5728 51.293 32.6776 50.7121 30.8411 50.0139C30.6005 50.8119 30.401 51.6216 30.4891 52.4137C30.6181 53.6165 31.3398 54.8311 32.4664 55.1421Z" fill="#FFEAE3"/>
<path d="M25.9895 52.6954C27.0632 53.2881 28.448 52.8539 29.3339 51.9972C29.9207 51.4281 30.3431 50.7123 30.7011 49.9612C28.7883 49.2278 26.9518 48.377 25.2385 47.45C24.9216 48.2303 24.6282 49.0635 24.6106 49.8439C24.5813 50.9645 25.039 52.1674 25.9895 52.6954Z" fill="#FFEAE3"/>
<path d="M72.8992 43.4131C72.8757 42.3159 72.688 40.9135 72.2362 39.9219C72.7642 40.6378 73.4037 41.4181 74.272 41.4709C75.4042 41.5414 76.249 40.2329 76.1904 39.0594C76.1317 37.9857 75.5568 37.0352 74.9584 36.1492C73.1045 39.2354 70.6464 41.9169 67.8539 44.1289C68.1941 44.6394 68.5637 45.1264 69.0389 45.5077C69.696 46.0417 70.5877 46.3351 71.3797 46.0593C72.3829 45.7072 72.9226 44.5162 72.905 43.4189L72.8992 43.4131Z" fill="#FFEAE3"/>
<path d="M20.1461 44.123C17.3536 41.911 14.8955 39.2237 13.0416 36.1433C12.4432 37.0293 11.8683 37.9798 11.8096 39.0536C11.7451 40.2271 12.5899 41.5355 13.728 41.4651C14.5963 41.4123 15.2357 40.6319 15.7637 39.9161C15.312 40.9077 15.1243 42.31 15.1008 43.4072C15.0773 44.5044 15.6229 45.6955 16.6261 46.0476C17.4123 46.3292 18.3099 46.03 18.9669 45.496C19.4363 45.1146 19.8059 44.6276 20.152 44.1172L20.1461 44.123Z" fill="#FFEAE3"/>
<path d="M21.0029 50.0726C21.9945 50.4833 23.1679 50.0491 23.9483 49.2863C24.4823 48.7641 24.8636 48.107 25.1981 47.4263C24.9047 47.2679 24.6113 47.1095 24.3238 46.9452C22.898 46.1355 21.5251 45.2026 20.2166 44.1758C19.8118 45.0559 19.5653 45.9654 19.4715 46.957C19.3541 48.2009 19.8822 49.609 21.0029 50.0726Z" fill="#FFEAE3"/>
<path d="M66.9979 50.0726C68.1186 49.6032 68.6525 48.2009 68.5293 46.957C68.4354 45.9654 68.189 45.05 67.7841 44.1758C66.4757 45.2026 65.1027 46.1355 63.6769 46.9452C63.3894 47.1095 63.0902 47.2562 62.7968 47.4146C63.1312 48.1011 63.5185 48.7583 64.0524 49.2863C64.8269 50.0491 66.0004 50.4892 66.9979 50.0726Z" fill="#FFEAE3"/>
<path d="M62.0113 52.6955C62.9618 52.1674 63.4136 50.9646 63.3901 49.8439C63.3725 49.0576 63.0733 48.2245 62.7565 47.4382C61.008 48.377 59.1656 49.1926 57.2645 49.8908C57.6283 50.6712 58.0566 51.4105 58.661 51.9972C59.5528 52.8539 60.9376 53.2939 62.0054 52.6955H62.0113Z" fill="#FFEAE3"/>
<path d="M36.6784 51.7742C36.6491 52.8186 36.8603 53.8806 37.2358 54.8428C37.7463 56.1396 38.9608 57.2133 40.3162 57.1722C41.5836 57.1312 42.6749 56.1396 43.2441 54.9719C43.602 54.2326 43.7897 53.4347 43.9188 52.6132C41.5366 52.6132 39.0899 52.314 36.6784 51.7742Z" fill="#FFEAE3"/>
<path d="M52.5596 53.8983C53.2637 54.8136 54.4431 55.4473 55.5344 55.1422C56.6609 54.8312 57.3768 53.6108 57.5117 52.4138C57.5997 51.5982 57.3885 50.7592 57.1362 49.9377C55.2821 50.6125 53.381 51.1816 51.4741 51.6217C51.7323 52.4373 52.0491 53.2294 52.5596 53.8983Z" fill="#FFEAE3"/>
<path d="M57.1362 49.9377C55.2821 50.6125 53.381 51.1816 51.4741 51.6217C51.6149 52.0618 51.7734 52.4901 51.967 52.9008C53.8211 52.4549 55.6635 51.8916 57.4589 51.2227C57.3885 50.7944 57.2712 50.3661 57.1362 49.9377Z" fill="#F5DCE1"/>
<path d="M62.7565 47.4382C61.008 48.377 59.1656 49.1926 57.2645 49.8908C57.4523 50.2957 57.6635 50.6888 57.9041 51.0584C59.7289 50.3602 61.495 49.5388 63.173 48.6117C63.0557 48.2186 62.909 47.8196 62.7565 47.4382Z" fill="#F5DCE1"/>
<path d="M47.3972 53.7808C48.6705 53.5989 49.9496 53.3583 51.2345 53.0649C51.305 52.5955 51.3402 52.1203 51.3167 51.6509C50.0082 51.9501 48.6939 52.1966 47.3972 52.3843C46.3118 52.5369 45.2028 52.6073 44.0821 52.619C44.1584 53.0943 44.2581 53.5637 44.3931 54.0155C45.4082 53.9979 46.4115 53.9216 47.3972 53.7808Z" fill="#F5DCE1"/>
<path d="M68.189 45.2495C68.0775 44.8858 67.9484 44.522 67.7841 44.1699C66.4757 45.1967 65.1027 46.1297 63.6769 46.9394C63.3894 47.1036 63.0902 47.2503 62.7968 47.4088C62.9787 47.7784 63.1782 48.1422 63.407 48.4825C63.495 48.4297 63.5889 48.3886 63.6769 48.3358C65.2494 47.4381 66.7632 46.4054 68.189 45.2437V45.2495Z" fill="#F5DCE1"/>
<path d="M72.5707 40.9077C72.4827 40.5556 72.3712 40.2212 72.2363 39.9219C72.4123 40.1625 72.6 40.4031 72.8053 40.626C73.7675 39.4291 74.624 38.15 75.3808 36.8005C75.2459 36.5775 75.0992 36.3604 74.9584 36.1433C73.1045 39.2296 70.6464 41.911 67.8539 44.123C68.0533 44.4281 68.2704 44.7157 68.5109 44.9856C69.9835 43.7593 71.3504 42.3921 72.5765 40.9077H72.5707Z" fill="#F5DCE1"/>
<path d="M15.7637 39.9219C15.6288 40.2212 15.5173 40.5556 15.4293 40.9077C16.6555 42.398 18.0224 43.7593 19.4949 44.9856C19.7296 44.7157 19.9467 44.4281 20.152 44.123C17.3595 41.911 14.9013 39.2237 13.0475 36.1433C12.9008 36.3604 12.76 36.5775 12.6251 36.8005C13.376 38.15 14.2384 39.4291 15.2005 40.626C15.4059 40.4031 15.5936 40.1566 15.7696 39.9219H15.7637Z" fill="#F5DCE1"/>
<path d="M24.5937 48.4884C24.8167 48.1539 25.0162 47.7901 25.1981 47.4205C24.9047 47.2621 24.6113 47.1036 24.3238 46.9394C22.898 46.1297 21.525 45.1967 20.2166 44.1699C20.0523 44.522 19.9232 44.8799 19.8117 45.2495C21.2375 46.4054 22.7513 47.444 24.3238 48.3417C24.4118 48.3945 24.5057 48.4414 24.5937 48.4884Z" fill="#F5DCE1"/>
<path d="M30.7069 49.9554C28.7941 49.2219 26.9576 48.3711 25.2443 47.4441C25.0918 47.8255 24.9451 48.2186 24.8277 48.6117C26.4706 49.5212 28.2308 50.3602 30.0674 51.0995C30.3079 50.7357 30.5192 50.3543 30.7069 49.9554Z" fill="#F5DCE1"/>
<path d="M36.4914 51.7331C34.5728 51.293 32.6776 50.7121 30.8411 50.0139C30.712 50.4364 30.6005 50.8647 30.536 51.293C32.3021 51.9795 34.1269 52.5604 35.981 53.0122C36.1805 52.6073 36.3506 52.1731 36.4914 51.7331Z" fill="#F5DCE1"/>
<path d="M43.9188 52.6132C41.5367 52.6132 39.0899 52.314 36.6784 51.7742C36.6667 52.2494 36.7077 52.7247 36.784 53.2C39.0606 53.7046 41.3606 53.9921 43.6079 54.0155C43.7428 53.5637 43.8426 53.0943 43.9188 52.6191V52.6132Z" fill="#F5DCE1"/>
<path d="M64.9498 28.0347C63.401 24.6316 59.7168 22.1555 56.185 22.1555H56.144C55.3696 22.1555 54.6304 22.2377 53.9381 22.3785C50.7994 23.0356 48.5408 25.1831 47.5845 28.4278C46.1589 33.2743 47.8485 39.8341 51.4272 43.3663C53.1696 45.0855 55.3989 46.036 57.6928 46.036C61.3653 46.036 64.4805 43.736 65.8298 40.0336C67.097 36.5425 66.7685 32.0539 64.944 28.0406L64.9498 28.0347Z" fill="#3189C3"/>
<path d="M39.7877 28.2635C38.8314 25.0188 36.5786 22.8713 33.4341 22.2142C32.7418 22.0675 32.0026 21.9971 31.2282 21.9912H31.1872C27.6554 21.9912 23.9653 24.4614 22.4224 27.8704C20.5978 31.8896 20.2693 36.3723 21.5365 39.8635C22.88 43.5658 26.001 45.8659 29.6736 45.8659C31.9674 45.8659 34.1968 44.9212 35.9392 43.1962C39.5178 39.664 41.2074 33.1042 39.7818 28.2576L39.7877 28.2635Z" fill="#3189C3"/>
<path d="M33.968 22.6073C33.3637 22.4782 32.7008 22.4137 31.9968 22.4078C28.8053 22.3902 25.5317 24.6551 24.1824 27.6416C22.6805 30.9567 22.088 35.0932 23.361 38.5902C25.4202 44.2641 31.9146 45.6194 36.0565 41.5357C41.1957 36.4721 42.1402 24.3089 33.9738 22.6073H33.968Z" fill="white"/>
<path d="M39.8112 29.0733C40.1339 32.9986 38.7787 37.5107 36.3616 40.1217C32.6539 44.1291 26.7931 42.8559 24.8923 37.3346C23.7189 33.9315 24.2235 29.8888 25.5552 26.6442C25.9717 25.6232 26.6053 24.6903 27.3739 23.9041C26.0011 24.8428 24.8512 26.1454 24.1765 27.6299C22.6747 30.945 22.0821 35.0815 23.3552 38.5785C25.4144 44.2524 31.9088 45.6077 36.0507 41.524C39.0133 38.6079 40.5739 33.333 39.8112 29.0615V29.0733Z" fill="#E6F0ED"/>
<path d="M36.4789 28.199C33.8154 25.7346 29.5093 25.6818 26.8986 29.6541C24.241 33.7026 25.0917 39.5818 29.9493 41.213C34.889 42.8676 38.9722 38.6313 38.8256 33.6146C38.761 31.3263 37.8282 29.4546 36.473 28.199H36.4789Z" fill="#003A6A"/>
<path d="M34.8773 30.3464C33.1936 28.7915 30.4715 28.7563 28.8229 31.2676C27.1392 33.8258 27.6789 37.5399 30.7531 38.5726C33.8741 39.617 36.4555 36.9414 36.3616 33.773C36.3205 32.3296 35.7339 31.1444 34.8773 30.3523V30.3464Z" fill="#001C45"/>
<path d="M30.0028 27.2248C29.4806 26.685 28.6298 26.2802 27.8846 26.3154C27.1101 26.3506 26.3063 26.6146 25.7665 27.2248C25.2267 27.835 24.8864 28.5802 24.8864 29.4192V29.5718C24.8864 30.3698 25.2208 31.203 25.7665 31.7662C26.2887 32.306 27.1395 32.7109 27.8846 32.6757C28.6592 32.6405 29.463 32.3764 30.0028 31.7662C30.5426 31.156 30.8829 30.4108 30.8829 29.5718V29.4192C30.8829 28.6213 30.5485 27.7881 30.0028 27.2248Z" fill="white"/>
<path d="M37.5349 15.7071C35.5461 14.1757 33.4048 13.4247 30.9056 13.4364C30.4011 13.4364 29.832 13.765 29.5797 14.252C28.7115 14.7155 28.3067 16.2704 29.3744 17.0918C30.8 18.189 32.3781 19.1513 33.9915 19.9199C35.4288 20.6064 37.6816 21.6274 39.0544 20.2603C40.6853 18.6408 38.8139 16.6928 37.5349 15.7071Z" fill="#003A6A"/>
<path d="M54.032 22.6073C54.6362 22.4782 55.2992 22.4137 56.0032 22.4078C59.1946 22.3902 62.4682 24.6551 63.8176 27.6416C65.3194 30.9567 65.912 35.0932 64.6389 38.5902C62.5797 44.2641 56.0853 45.6194 51.9435 41.5357C46.8043 36.4721 45.8597 24.3089 54.0261 22.6073H54.032Z" fill="white"/>
<path d="M48.1888 29.0733C47.8661 32.9986 49.2213 37.5107 51.6384 40.1217C55.3461 44.1291 61.2069 42.8559 63.1077 37.3346C64.2811 33.9315 63.7765 29.8888 62.4448 26.6442C62.0283 25.6232 61.3946 24.6903 60.6261 23.9041C61.9989 24.8428 63.1488 26.1454 63.8235 27.6299C65.3253 30.945 65.9179 35.0815 64.6448 38.5785C62.5856 44.2524 56.0912 45.6077 51.9493 41.524C48.9867 38.6079 47.4261 33.333 48.1888 29.0615V29.0733Z" fill="#E6F0ED"/>
<path d="M51.5212 28.199C54.1847 25.7346 58.4908 25.6818 61.1015 29.6541C63.7591 33.7026 62.9084 39.5818 58.0508 41.213C53.1111 42.8676 49.0279 38.6313 49.1745 33.6146C49.2391 31.3263 50.1719 29.4546 51.5271 28.199H51.5212Z" fill="#003A6A"/>
<path d="M53.1227 30.3464C54.8064 28.7915 57.5285 28.7563 59.1771 31.2676C60.8608 33.8258 60.3211 37.5399 57.2469 38.5726C54.1259 39.617 51.5445 36.9414 51.6384 33.773C51.6795 32.3296 52.2661 31.1444 53.1227 30.3523V30.3464Z" fill="#001C45"/>
<path d="M57.998 27.2248C58.5202 26.685 59.371 26.2802 60.1161 26.3154C60.8906 26.3506 61.6945 26.6146 62.2343 27.2248C62.7741 27.835 63.1144 28.5802 63.1144 29.4192V29.5718C63.1144 30.3698 62.7799 31.203 62.2343 31.7662C61.7121 32.306 60.8613 32.7109 60.1161 32.6757C59.3416 32.6405 58.5378 32.3764 57.998 31.7662C57.4582 31.156 57.1179 30.4108 57.1179 29.5718V29.4192C57.1179 28.6213 57.4523 27.7881 57.998 27.2248Z" fill="white"/>
<path d="M50.4651 15.7071C52.4539 14.1757 54.5952 13.4247 57.0944 13.4364C57.599 13.4364 58.168 13.765 58.4203 14.252C59.2886 14.7155 59.6934 16.2704 58.6256 17.0918C57.2 18.189 55.6219 19.1513 54.0086 19.9199C52.5712 20.6064 50.3184 21.6274 48.9456 20.2603C47.3147 18.6408 49.1862 16.6928 50.4651 15.7071Z" fill="#003A6A"/>
<path d="M20.7215 26.6617C20.4692 25.9282 19.8472 25.4412 19.0786 25.5468C18.351 25.6466 17.7701 26.292 17.776 27.0724C17.776 27.1076 17.776 27.1369 17.776 27.1721C17.6997 27.3599 17.6587 27.5594 17.6587 27.7647C17.6352 27.9525 17.6411 28.1461 17.6821 28.3456C17.6939 28.4102 17.7173 28.4571 17.7349 28.504C17.7408 28.5334 17.7525 28.5568 17.7584 28.5862C17.7701 28.639 17.7819 28.6918 17.7995 28.7446C17.8875 29.5015 18.5036 30.1939 19.2839 30.1587C20.0115 30.1235 20.6745 29.5778 20.7684 28.815C20.8388 28.639 20.8975 28.4512 20.9034 28.24C20.9327 27.7061 20.8975 27.1604 20.7215 26.6558V26.6617Z" fill="#88BBDC"/>
<path d="M16.6794 25.3063C16.4975 24.9836 16.1395 24.6785 15.7816 24.5905C15.4648 24.5142 15.1127 24.5259 14.8076 24.6609C14.303 24.7254 13.816 25.0129 13.5872 25.4882C13.3349 26.0045 13.2938 26.6969 13.64 27.1839C13.7984 27.401 13.9627 27.5888 14.1681 27.7237C14.5436 28.1286 15.0951 28.3457 15.6349 28.1638C16.2628 27.9525 16.6265 27.4538 16.7028 26.8495C16.7498 26.738 16.785 26.6148 16.8319 26.5033C16.9669 26.1571 16.8554 25.6173 16.6794 25.3063Z" fill="#88BBDC"/>
<path d="M22.5108 22.4899C22.5108 22.4899 22.4815 22.4488 22.4697 22.4312C22.3876 22.1789 22.2409 21.9501 22.0297 21.7799C21.9827 21.7271 21.9358 21.6743 21.8889 21.6215C21.3667 21.0641 20.4983 21.0406 19.9174 21.4983C19.712 21.6626 19.5419 21.909 19.4363 22.1789C19.2192 22.6718 19.2602 23.2174 19.5477 23.6868C19.5067 23.6106 19.4715 23.5284 19.4539 23.4463C19.4891 23.5284 19.5243 23.6164 19.5595 23.6986C19.6064 23.7748 19.6592 23.8511 19.7238 23.9274C19.6592 23.8629 19.6123 23.7925 19.5653 23.7162C19.5888 23.769 19.6064 23.8159 19.6299 23.8687C19.7062 24.0154 19.8059 24.1621 19.9174 24.2736C20.2929 24.6491 20.7154 24.7664 21.22 24.8251C21.7246 24.8897 22.2702 24.4848 22.5167 24.0565C22.7748 23.6047 22.81 22.9417 22.5167 22.4899H22.5108Z" fill="#88BBDC"/>
<path d="M20.0234 33.9314C19.9647 33.7084 19.8474 33.5265 19.73 33.3564C19.6772 32.9456 19.5951 32.5994 19.2958 32.2885C19.0377 32.0186 18.6093 31.8191 18.2338 31.8308C17.6412 31.8602 16.9547 32.3061 16.7787 32.9398C16.5733 33.3798 16.5851 33.9079 16.8139 34.4066C16.8315 34.436 16.8432 34.4712 16.8608 34.5005C16.9664 34.8878 17.1835 35.2222 17.4476 35.5214C17.9111 36.0378 18.6915 36.0847 19.2548 35.7503C19.8767 35.4452 20.1994 34.6003 20.0234 33.9372V33.9314Z" fill="#88BBDC"/>
<path d="M45.8544 29.9297C45.7663 28.9381 45.2148 28.146 44.2584 27.8702C43.4487 27.6355 42.6683 28.1577 42.416 28.9557C42.3398 29.1904 42.2869 29.4369 42.2341 29.6774C42.1872 29.9004 42.0053 30.3874 42.2459 29.8828C41.9349 30.5693 42.0992 31.4083 42.7094 31.8484C42.8854 32.1124 43.1143 32.3295 43.3842 32.5349C43.7597 32.8224 44.3171 32.7872 44.7161 32.6111C45.162 32.4175 45.426 32.0713 45.5845 31.6078C45.7605 31.0797 45.9013 30.493 45.8544 29.9297Z" fill="#88BBDC"/>
<path d="M43.2437 37.1996C43.3082 36.6011 42.8095 35.9967 42.3225 35.7796C41.7768 35.5391 41.1079 35.6564 40.6855 36.1023C40.3921 36.4133 40.1574 36.783 40.0576 37.2113C40.0166 37.3756 39.999 37.5457 39.9931 37.7159C39.7936 37.9741 39.6763 38.3789 39.6763 38.6723C39.6763 39.0537 39.8405 39.5055 40.1163 39.7695C40.4038 40.0394 40.7793 40.2448 41.1783 40.2272C41.5538 40.2096 41.8355 40.0687 42.1288 39.8516C42.0702 39.8986 42.0291 39.9338 42.123 39.881C42.1641 39.8575 42.1993 39.834 42.2403 39.8106C42.4046 39.6991 42.5748 39.5759 42.7097 39.4292C43.0794 39.0243 43.2554 38.5021 43.2495 37.9447C43.2495 37.8332 43.2319 37.7276 43.2085 37.622C43.2202 37.4871 43.2319 37.3462 43.2495 37.2113L43.2437 37.1996Z" fill="#88BBDC"/>
<path d="M47.8842 37.0823C47.6436 36.5249 47.2799 36.0555 46.9043 35.5861C46.1005 34.5711 44.2405 35.3866 44.3461 36.6833C44.3931 37.2231 44.4224 37.763 44.528 38.2969C44.6043 38.6724 44.8566 38.9834 45.1793 39.1887C45.2028 39.2474 45.2262 39.312 45.2439 39.3706C45.4727 39.9926 45.989 40.5441 46.6872 40.5089C47.3033 40.4796 48.0192 40.0513 48.1306 39.3706C48.2656 38.5551 48.2069 37.8334 47.8783 37.0706L47.8842 37.0823Z" fill="#88BBDC"/>
<path d="M44.9919 42.5449C44.5812 41.8115 43.7598 41.3362 42.9383 41.5709C42.3399 41.7411 41.9702 42.1987 41.7824 42.7444C41.6827 42.8852 41.6006 43.0436 41.536 43.2197C41.7766 42.539 41.3717 43.6128 41.3835 43.5541C41.3013 43.9179 41.3013 44.2817 41.4069 44.6396C41.6182 45.3378 42.1697 45.7251 42.8503 45.7779C43.6894 45.8424 44.5871 45.5138 45.0271 44.7335C45.4085 44.0646 45.3616 43.2021 44.9919 42.539V42.5449Z" fill="#88BBDC"/>
<path d="M50.4479 42.7267C49.9903 42.4099 49.4563 42.181 48.94 41.9991C47.8956 41.6354 46.7162 42.8147 47.0976 43.9119C47.3088 44.5221 47.6491 45.062 48.2535 45.2908C48.3415 45.3436 48.4413 45.3905 48.541 45.4257C48.6466 45.4844 48.8461 45.5666 48.9752 45.6018C49.3272 45.7074 49.7438 45.6839 50.09 45.5666C50.665 45.3729 51.0816 44.9094 51.1637 44.2757C51.2459 43.6362 50.9584 43.0846 50.4479 42.7267Z" fill="#88BBDC"/>
<path d="M39.4596 43.0141C39.1428 42.5917 38.6558 42.3863 38.1629 42.4215C37.5997 42.3687 37.0246 42.6152 36.7313 43.1608C36.7019 43.2195 36.6726 43.2841 36.6433 43.3427C36.6022 43.3838 36.5553 43.4249 36.5142 43.4659C36.168 43.8356 36.0213 44.393 36.1152 44.8976C36.1445 45.232 36.2736 45.5548 36.5318 45.8012C37.1537 46.3938 38.028 46.3821 38.6499 45.8012C38.8964 45.5665 39.1252 45.3142 39.3364 45.0502C39.8176 44.4517 39.9349 43.6596 39.4538 43.0141H39.4596Z" fill="#88BBDC"/>
<path d="M66.0413 22.4313C65.3079 22.2201 64.3456 22.6895 64.1989 23.5168C64.1344 23.8806 64.1578 24.1622 64.1461 24.5084C64.1285 24.878 64.3221 25.3533 64.5862 25.6056C64.727 25.7405 64.8737 25.8344 65.0262 25.899C65.2609 26.4446 65.8125 26.8788 66.4051 26.8495C67.0681 26.8202 67.6725 26.3918 67.8485 25.7112C68.2299 24.2737 67.426 22.8244 66.0413 22.4254V22.4313Z" fill="#88BBDC"/>
<path d="M70.0543 30.5108C69.978 30.0707 69.7375 29.66 69.3502 29.4487C69.2563 29.3959 69.1625 29.3607 69.0686 29.3314C68.5288 29.0732 67.8716 29.126 67.4022 29.6248C67.1323 29.9123 66.8683 30.1646 66.7157 30.5401C66.5163 31.033 66.5515 31.5434 66.704 32.048C66.8624 32.5702 67.2321 32.9868 67.7543 33.1335C67.8247 33.157 67.9127 33.157 67.989 33.1687C68.2471 33.2978 68.5464 33.3565 68.8456 33.3095C69.4617 33.2215 69.8842 32.7932 70.0895 32.1947C70.2949 31.5962 70.2538 31.0388 70.0426 30.5108H70.0543Z" fill="#88BBDC"/>
<path d="M69.2384 24.5844C69.2501 24.4671 69.256 24.5023 69.2384 24.5844V24.5844Z" fill="#88BBDC"/>
<path d="M71.9081 23.7983C71.7555 23.6575 71.5854 23.546 71.3976 23.4697C71.1805 23.3524 70.9458 23.2761 70.7111 23.2878C69.8486 23.3289 69.2736 23.9684 69.2091 24.8427C69.2208 24.7136 69.2267 24.6315 69.2325 24.5786C69.2325 24.5963 69.2267 24.608 69.2208 24.6256C69.1797 24.7723 69.1445 24.9248 69.1562 25.0832C69.168 25.1947 69.1856 25.3003 69.2091 25.406C69.2091 25.4236 69.2091 25.4412 69.2091 25.4646C69.2208 26.2743 69.8897 27.0547 70.7111 27.0195C71.5091 26.9843 72.2249 26.3389 72.2132 25.4705C72.4303 24.9072 72.3775 24.2442 71.9081 23.7983Z" fill="#88BBDC"/>
<path d="M69.6142 34.4184C69.1038 34.2893 68.5992 34.3303 68.1591 34.6354C67.9361 34.6648 67.7191 34.7411 67.5606 34.8349C67.2497 35.0227 66.9504 35.3924 66.8741 35.762C66.7861 36.161 66.8037 36.6069 67.0267 36.959C67.056 37.0059 67.0854 37.0411 67.1206 37.0822C67.2145 37.311 67.3611 37.5222 67.5782 37.6924C67.9009 37.9506 68.253 38.0386 68.5992 38.0034C68.9923 38.0151 69.3854 37.8684 69.7316 37.5692C69.9311 37.399 70.1071 37.2054 70.2831 37.0118C71.0283 36.1845 70.7525 34.7059 69.6201 34.4184H69.6142Z" fill="#88BBDC"/>
<path d="M73.6857 27.8704C73.4158 27.2367 72.7762 27.0548 72.1719 27.2484C72.0252 27.2602 71.8902 27.3188 71.7612 27.4362C71.7494 27.4421 71.7377 27.4479 71.726 27.4538C71.0043 27.9467 70.84 28.9617 71.1979 29.748C71.4619 30.3288 71.99 30.6046 72.4829 30.4168C72.5943 30.499 72.741 30.5283 72.8818 30.4462C73.4334 30.1176 73.9849 29.6247 74.0436 28.9265C74.0788 28.5393 73.938 28.1579 73.6915 27.8704H73.6857Z" fill="#88BBDC"/>
<path d="M44.0119 72.7797C34.461 72.6095 21.9885 68.9483 15.5997 61.1622C9.23435 53.3995 7.09888 41.7702 10.0205 30.804L10.5895 28.6624L11.2818 30.7629C13.3703 37.0997 18.1106 42.6386 24.6402 46.3644C32.1847 50.6712 40.6562 52.672 47.2973 51.7214C53.0173 50.9059 58.7197 48.9989 63.3426 46.3644C69.8722 42.6386 74.6183 37.0997 76.701 30.7629L77.3933 28.6624L77.9623 30.804C80.8839 41.7644 78.7485 53.3995 72.3831 61.1622C66.0002 68.9483 53.5277 72.6037 44.0002 72.7797H44.0119ZM10.8066 33.2272C8.76501 43.155 10.9181 53.376 16.6205 60.3231C22.7394 67.7806 34.7837 71.2894 44.0119 71.4595C53.2109 71.2894 65.261 67.7865 71.3741 60.3231C77.0765 53.3702 79.2296 43.1491 77.188 33.2272C74.7181 39.0125 70.1069 44.0351 63.9997 47.5145C59.2301 50.2311 53.3693 52.1967 47.485 53.0357C40.5682 54.0215 31.7799 51.962 23.989 47.5145C17.8818 44.0351 13.2706 39.0125 10.8007 33.2272H10.8066Z" fill="#16405E"/>
</g>
<defs>
<clipPath id="clip0_894_1795">
<rect width="88" height="88" rx="12" fill="white"/>
</clipPath>
</defs>
</svg>
