<svg width="88" height="88" viewBox="0 0 88 88" fill="none" xmlns="http://www.w3.org/2000/svg">
<g clip-path="url(#clip0_894_2040)">
<path d="M88 0H0V88H88V0Z" fill="#AD81E1"/>
<path d="M43.8768 72.0171C41.7355 72.0171 39.5472 71.8763 37.3296 71.5829C34.7893 71.2485 32.2843 70.6383 29.8848 69.7699C25.1035 68.039 20.8853 65.3341 17.6821 61.9486C16.4795 60.6753 14.8192 58.698 14.2208 56.1691C13.5403 53.2882 14.52 50.3134 16.72 48.5943C20.0699 45.9774 24.64 46.9631 27.9781 47.6789L28.0779 47.7024C38.0453 49.8499 49.9429 49.8499 59.9104 47.7024L60.0101 47.6789C63.3483 46.9572 67.9125 45.9774 71.2683 48.5943C73.4683 50.3134 74.4539 53.2882 73.7675 56.1691C73.1691 58.698 71.5029 60.6812 70.3061 61.9486C64.1813 68.438 54.5952 72.0171 43.8768 72.0171ZM22.2816 52.3612C21.3899 52.3612 20.6155 52.5079 20.0992 52.9127C19.4715 53.4056 19.4187 54.2916 19.5595 54.9018C19.7824 55.8464 20.4571 56.8908 21.6715 58.1758C24.288 60.9452 27.7728 63.169 31.7504 64.6065C33.7803 65.34 35.8981 65.8563 38.0453 66.1379C49.6027 67.6576 60.1685 64.6828 66.3168 58.1758C67.5371 56.885 68.2059 55.8464 68.4288 54.9018C68.5755 54.2916 68.5168 53.4056 67.8891 52.9127C66.5573 51.8742 63.5653 52.5196 61.16 53.0359L61.0603 53.0594C50.3712 55.3594 37.6112 55.3594 26.9221 53.0594L26.8224 53.0359C25.3557 52.7191 23.672 52.3553 22.2757 52.3553L22.2816 52.3612Z" fill="#975FD9"/>
<path d="M43.8768 72.0171C41.7355 72.0171 39.5472 71.8763 37.3296 71.5829C34.7893 71.2485 32.2843 70.6383 29.8848 69.7699C25.1035 68.039 20.8853 65.3341 17.6821 61.9486C16.4795 60.6753 14.8192 58.698 14.2208 56.1691C13.5403 53.2882 14.52 50.3134 16.72 48.5943C20.0699 45.9774 24.64 46.9631 27.9781 47.6789L28.0779 47.7024C38.0453 49.8499 49.9429 49.8499 59.9104 47.7024L60.0101 47.6789C63.3483 46.9572 67.9125 45.9774 71.2683 48.5943C73.4683 50.3134 74.4539 53.2882 73.7675 56.1691C73.1691 58.698 71.5029 60.6812 70.3061 61.9486C64.1813 68.438 54.5952 72.0171 43.8768 72.0171Z" fill="#975FD9"/>
<path d="M44.088 23.7281C38.0805 23.7281 33.3989 22.5898 29.3333 20.677C28.5824 22.7306 27.9019 25.4707 27.9019 27.8177C27.9019 37.81 34.8597 45.3731 44.0821 45.3731C53.3045 45.3731 59.9867 37.6574 59.9867 27.6651C59.9867 25.3182 59.1947 23.3643 58.4437 21.3048C54.3781 23.2176 50.0896 23.7281 44.0821 23.7281H44.088Z" fill="#9861D9"/>
<path d="M44.0881 29.8771C49.6438 29.8771 54.6892 30.8804 58.4497 32.5174C59.142 30.7572 59.5292 28.8385 59.5292 26.8319C59.5292 18.2713 52.6182 11.3359 44.0881 11.3359C35.558 11.3359 28.647 18.2771 28.647 26.8319C28.647 28.8385 29.0342 30.7572 29.7265 32.5174C33.487 30.8804 38.5324 29.8771 44.0881 29.8771Z" fill="#8F51D6"/>
<path d="M44.0881 23.945C38.5324 23.945 33.487 22.9417 29.7265 21.3047C29.0342 23.0649 28.647 24.9836 28.647 26.9902C28.647 35.5509 35.558 42.4862 44.0881 42.4862C52.6182 42.4862 59.5292 35.545 59.5292 26.9902C59.5292 24.9836 59.142 23.0649 58.4497 21.3047C54.6892 22.9417 49.6438 23.945 44.0881 23.945Z" fill="#FFFCFB"/>
<path d="M44.0881 23.945C38.5324 23.945 33.487 22.9417 29.7265 21.3047C29.0342 23.0649 28.647 24.9836 28.647 26.9902C28.647 35.5509 35.558 42.4862 44.0881 42.4862C52.6182 42.4862 59.5292 35.545 59.5292 26.9902C59.5292 24.9836 59.142 23.0649 58.4497 21.3047C54.6892 22.9417 49.6438 23.945 44.0881 23.945Z" fill="#FFFCFB"/>
<path d="M58.4497 21.3047C58.262 21.3868 58.0566 21.4631 57.8572 21.5394C57.6108 21.6391 57.382 21.7389 57.1356 21.8328C57.1473 21.868 57.1532 21.909 57.1649 21.9442C52.9116 24.2619 46.5756 24.5377 43.8652 24.5377H43.83C39.1132 24.5377 34.8012 23.6986 30.9878 22.0616C31.0054 21.9853 31.023 21.909 31.0406 21.8328C30.5889 21.6626 30.1489 21.4924 29.7265 21.3047C29.0342 23.0649 28.647 24.9836 28.647 26.9902C28.647 35.5509 35.558 42.4862 44.0881 42.4862C52.6182 42.4862 59.5292 35.545 59.5292 26.9902C59.5292 24.9836 59.142 23.0649 58.4497 21.3047ZM44.0881 39.793C36.5964 39.793 30.5302 33.4562 30.5302 25.6407C30.5302 24.9308 30.5889 24.2384 30.6886 23.5578C34.6369 25.1831 39.1366 26.0397 43.8769 26.0397C44.223 26.0397 44.575 26.0397 44.927 26.028C48.67 25.9282 53.6508 25.3826 57.4817 23.4815C57.5873 24.1856 57.6518 24.9073 57.6518 25.6407C57.6518 33.4562 51.5798 39.793 44.094 39.793H44.0881Z" fill="#FFEAE3"/>
<path d="M44.088 23.9451C40.8848 23.9451 37.8459 23.6107 35.1296 23.0122C34.5899 24.2268 34.2907 25.5704 34.2907 26.9903C34.2907 32.4236 38.6789 36.83 44.0939 36.83C49.5088 36.83 53.8971 32.4236 53.8971 26.9903C53.8971 25.5704 53.592 24.2268 53.0581 23.0122C50.3419 23.6107 47.3029 23.9451 44.0997 23.9451H44.088Z" fill="#6E46A9"/>
<path d="M44.088 23.9451C42.0992 23.9451 40.1808 23.816 38.3621 23.5754C37.7696 24.5788 37.4235 25.7405 37.4235 26.9903C37.4235 30.6868 40.4096 33.6851 44.0939 33.6851C47.7781 33.6851 50.7643 30.6868 50.7643 26.9903C50.7643 25.7405 50.4181 24.5729 49.8256 23.5754C48.0069 23.816 46.0827 23.9451 44.0997 23.9451H44.088Z" fill="#4B2073"/>
<path d="M34.3904 22.842C34.6955 24.3324 35.8221 25.6173 37.7818 25.6173C39.2839 25.6173 40.2989 24.8546 40.827 23.8278C38.5387 23.6635 36.3736 23.3232 34.3904 22.842Z" fill="white"/>
<path d="M59.0187 19.8848C58.7371 19.7498 58.4262 19.7733 58.174 19.9434C53.9852 22.8243 46.7985 23.1412 43.8593 23.1412H43.8241C38.5441 23.1412 33.7745 22.0968 29.6385 20.049C29.1809 19.8202 28.7174 20.0608 28.5414 20.4187C28.3654 20.7825 28.5003 21.1815 28.8699 21.3634C33.223 23.5167 38.3857 24.6491 43.8651 24.6491C44.2113 24.6491 44.5633 24.6491 44.9153 24.6374C49.239 24.5259 55.223 23.8218 59.1654 21.1111C59.3766 20.9644 59.4881 20.7473 59.4705 20.5126C59.4529 20.2544 59.2769 20.0138 59.0129 19.8906L59.0187 19.8848Z" fill="#6E46A9"/>
<path d="M69.5845 50.7535C67.2203 48.9053 63.5712 49.7208 60.4912 50.378C50.1307 52.6076 37.8341 52.6017 27.5029 50.378C24.4288 49.715 20.7797 48.9053 18.4096 50.7535C16.9312 51.9035 16.4912 53.8398 16.8901 55.5355C17.2891 57.2312 18.4155 58.7274 19.6768 60.0651C22.6395 63.2042 26.5291 65.6392 30.8176 67.1941C33.0176 67.9921 35.3291 68.5553 37.6875 68.8663C48.8224 70.3332 60.896 67.9217 68.3115 60.0651C69.5728 58.7332 70.6992 57.2312 71.0981 55.5355C71.4971 53.8398 71.0571 51.9094 69.5787 50.7535H69.5845Z" fill="#6E46A9"/>
<path d="M60.3797 53.8807C58.8661 52.7014 56.5312 53.2177 54.56 53.6402C47.9307 55.0659 40.0576 55.0659 33.4459 53.6402C31.4747 53.2177 29.1397 52.6955 27.6261 53.8807C26.6816 54.62 26.3941 55.8522 26.6523 56.9435C26.9104 58.029 27.632 58.9854 28.4357 59.8421C30.3307 61.8487 32.8181 63.4095 35.5696 64.4069C36.9776 64.9174 38.456 65.2812 39.9637 65.4748C47.0917 66.4136 54.8181 64.8705 59.5701 59.8421C60.3797 58.9854 61.0955 58.029 61.3536 56.9435C61.6117 55.8581 61.3243 54.62 60.3797 53.8807Z" fill="#48257F"/>
<path d="M30.2316 64.8883C30.478 63.8967 30.9064 62.3242 30.214 61.4089C28.7706 59.4961 26.6466 62.3594 25.2736 64.5304C26.6642 65.3753 28.1428 66.1146 29.6801 66.7424C29.8913 66.1322 30.0732 65.5103 30.2316 64.8883Z" fill="#FFEAE3"/>
<path d="M32.3671 51.2346C30.7124 50.9999 29.0872 50.7183 27.5088 50.3779C27.4853 50.3779 27.4677 50.3662 27.4443 50.3662C27.591 52.9362 28.0252 57.061 30.3487 55.9931C31.3931 55.5178 31.7569 53.9336 32.0092 52.9362C32.15 52.3729 32.2673 51.8037 32.3671 51.2346Z" fill="#FFEAE3"/>
<path d="M23.2032 53.5524C24.2476 53.0771 24.6114 51.4929 24.8637 50.4954C24.9165 50.2901 24.9576 50.0847 25.0045 49.8793C23.4379 49.6153 21.8537 49.4862 20.4573 49.8089C20.733 52.0796 21.3961 54.3738 23.2032 53.5465V53.5524Z" fill="#FFEAE3"/>
<path d="M44.0003 63.9906C42.0993 63.4743 41.6182 66.7659 41.448 69.195C43.1496 69.283 44.857 69.2772 46.5527 69.1774C46.3825 66.7483 45.9014 63.4743 44.0003 63.9906Z" fill="#FFEAE3"/>
<path d="M19.6828 60.0595C20.4925 60.9161 21.3785 61.7199 22.3173 62.4651C22.552 61.9898 22.7691 61.5146 22.9686 61.0276C23.3499 60.0771 23.9954 58.5867 23.4379 57.5775C22.4405 55.7762 20.4514 57.3898 18.8555 59.1207C19.1195 59.4375 19.3953 59.7543 19.6828 60.0536V60.0595Z" fill="#FFEAE3"/>
<path d="M36.9723 63.5211C35.0653 62.0483 33.7569 65.4221 33.0117 67.8864C34.5373 68.3206 36.1039 68.6551 37.694 68.8663C37.7468 68.8722 37.7996 68.878 37.8524 68.8839C37.8993 68.215 37.9169 67.5461 37.9052 66.8772C37.8817 65.8504 37.8817 64.2251 36.9781 63.5269L36.9723 63.5211Z" fill="#FFEAE3"/>
<path d="M41.8177 54.1744C42.0993 56.0285 42.686 57.73 44.0004 57.5188C45.3088 57.73 45.9014 56.0285 46.183 54.1744C46.3591 53.4644 46.494 52.7368 46.5996 52.0093C44.8687 52.0621 43.132 52.0621 41.3952 52.0093C41.5008 52.7368 41.6358 53.4644 41.8177 54.1744Z" fill="#FFEAE3"/>
<path d="M37.4943 56.4509C38.5387 55.9756 38.9024 54.3914 39.1547 53.3939C39.278 52.9069 39.3777 52.4199 39.4716 51.9271C37.8463 51.8391 36.2328 51.7041 34.6368 51.5281C34.8246 54.0745 35.3702 57.4249 37.4943 56.4509Z" fill="#FFEAE3"/>
<path d="M57.7867 61.4089C57.0944 62.3243 57.5227 63.8967 57.7691 64.8883C57.9217 65.4927 58.0977 66.097 58.3031 66.6896C59.8403 66.0853 61.3131 65.3519 62.7154 64.5128C61.3483 62.3419 59.2301 59.5079 57.7926 61.4089H57.7867Z" fill="#FFEAE3"/>
<path d="M69.1452 59.1265C67.5492 57.3956 65.5602 55.7821 64.5627 57.5834C64.0053 58.5867 64.6507 60.0829 65.0321 61.0334C65.2257 61.5146 65.4487 61.9898 65.6775 62.4651C66.6046 61.7258 67.4906 60.9337 68.312 60.0653C68.5995 59.7602 68.8753 59.4492 69.1393 59.1324L69.1452 59.1265Z" fill="#FFEAE3"/>
<path d="M64.7976 53.5523C66.5989 54.3797 67.2678 52.0855 67.5435 49.8148C66.1471 49.4921 64.5629 49.6212 62.9963 49.8852C63.0432 50.0905 63.0843 50.2959 63.1371 50.5013C63.3894 51.4929 63.7532 53.0771 64.7976 53.5582V53.5523Z" fill="#FFEAE3"/>
<path d="M50.5064 56.4509C52.6304 57.4249 53.1761 54.0745 53.3638 51.5281C51.7679 51.71 50.1544 51.8449 48.5291 51.9271C48.6171 52.4199 48.7227 52.9128 48.8459 53.3939C49.0982 54.3855 49.462 55.9697 50.5064 56.4509Z" fill="#FFEAE3"/>
<path d="M51.0284 63.5212C50.1189 64.2253 50.1189 65.8506 50.1013 66.8716C50.0896 67.517 50.1013 68.1683 50.1483 68.8137C51.7853 68.5731 53.393 68.2328 54.9655 67.7927C54.2144 65.3402 52.9118 62.0661 51.0284 63.5212Z" fill="#FFEAE3"/>
<path d="M57.652 55.9931C59.9755 57.061 60.4097 52.9362 60.5564 50.3662C60.5329 50.3662 60.5153 50.3779 60.4919 50.3779C58.9135 50.7183 57.2882 50.9999 55.6336 51.2346C55.7334 51.8096 55.8507 52.3787 55.9915 52.9362C56.2438 53.9278 56.6076 55.512 57.652 55.9931Z" fill="#FFEAE3"/>
<path d="M18.8555 59.1263C19.1195 59.4431 19.3953 59.7599 19.6828 60.0592C20.4925 60.9158 21.3785 61.7197 22.3173 62.4648C22.552 61.9896 22.7691 61.5143 22.9686 61.0273C23.0038 60.9452 23.039 60.8513 23.08 60.7574C21.9593 59.9242 20.9149 59.0148 19.9585 58.0349C19.583 58.3694 19.2134 58.7449 18.8613 59.1263H18.8555Z" fill="#FFD2C3"/>
<path d="M41.712 66.9241C41.5771 67.6751 41.5008 68.4731 41.448 69.1948C43.1496 69.2828 44.857 69.2769 46.5527 69.1772C46.4999 68.4555 46.4236 67.6575 46.2886 66.9065C44.769 66.9886 43.2376 66.9945 41.712 66.9241Z" fill="#FFD2C3"/>
<path d="M25.2795 64.5301C26.6701 65.375 28.1487 66.1143 29.6859 66.7421C29.8972 66.1319 30.079 65.5099 30.2375 64.888C30.2551 64.8235 30.2727 64.753 30.2844 64.6885C28.9408 64.1722 27.6382 63.5796 26.3943 62.8931C25.9894 63.427 25.608 63.9961 25.2736 64.5301H25.2795Z" fill="#FFD2C3"/>
<path d="M33.7452 65.7917C33.4577 66.4782 33.2112 67.2117 33.0117 67.8806C34.5373 68.3148 36.1039 68.6492 37.694 68.8604C37.7468 68.8663 37.7996 68.8722 37.8524 68.878C37.8993 68.2091 37.9169 67.5403 37.9052 66.8714C37.9052 66.7833 37.9052 66.6895 37.8993 66.5956C37.8289 66.5897 37.7644 66.5839 37.694 66.5721C36.362 66.3961 35.0419 66.1321 33.751 65.7976L33.7452 65.7917Z" fill="#FFD2C3"/>
<path d="M57.7691 64.888C57.9216 65.4924 58.0977 66.0967 58.303 66.6893C59.8403 66.085 61.313 65.3516 62.7153 64.5125C62.3809 63.9786 61.9936 63.4036 61.5888 62.8696C60.3449 63.5385 59.0482 64.1194 57.7045 64.6181C57.728 64.712 57.7515 64.8059 57.7749 64.8939L57.7691 64.888Z" fill="#FFD2C3"/>
<path d="M65.032 61.0332C65.2256 61.5143 65.4486 61.9896 65.6774 62.4648C66.6045 61.7255 67.4905 60.9334 68.3119 60.065C68.5994 59.7599 68.8752 59.449 69.1392 59.1321C68.7872 58.7507 68.4175 58.3752 68.042 58.0408C67.0739 59.0382 66.0295 59.936 64.9205 60.7574C64.9616 60.8513 64.9968 60.951 65.032 61.039V61.0332Z" fill="#FFD2C3"/>
<path d="M50.0955 66.8712C50.0837 67.5166 50.0955 68.1679 50.1424 68.8134C51.7794 68.5728 53.3871 68.2325 54.9596 67.7924C54.7542 67.1235 54.5078 66.3901 54.2144 65.7095C52.8708 66.0557 51.4919 66.3256 50.1013 66.5309C50.1013 66.6483 50.1013 66.7656 50.0955 66.8712Z" fill="#FFD2C3"/>
<path d="M60.5564 50.3662C60.5564 50.3662 60.5153 50.3779 60.4919 50.3779C58.9135 50.7183 57.2882 50.9999 55.6336 51.2346C55.7216 51.7333 55.8214 52.2262 55.9387 52.7191C57.4642 52.4961 58.9722 52.2321 60.4332 51.9152C60.4919 51.3754 60.5271 50.8415 60.5564 50.3662Z" fill="#FFD2C3"/>
<path d="M67.2971 51.2875C67.4027 50.8181 67.4849 50.3135 67.5494 49.8089C66.153 49.4862 64.5688 49.6153 63.0022 49.8793C63.0491 50.0847 63.0902 50.2901 63.143 50.4954C63.2075 50.7477 63.2779 51.0411 63.3718 51.3462C64.7213 51.1408 66.0767 51.0528 67.303 51.2875H67.2971Z" fill="#FFD2C3"/>
<path d="M46.318 53.5407C46.4295 53.0302 46.5234 52.5198 46.5996 52.0034C44.8687 52.0562 43.132 52.0562 41.3952 52.0034C41.4715 52.5198 41.5654 53.0302 41.6768 53.5407C43.22 53.5818 44.769 53.5818 46.318 53.5407Z" fill="#FFD2C3"/>
<path d="M24.6347 51.3462C24.7227 51.0411 24.799 50.7477 24.8635 50.4954C24.9163 50.2901 24.9574 50.0847 25.0044 49.8793C23.4377 49.6153 21.8535 49.4862 20.4571 49.8089C20.5158 50.3135 20.5979 50.8123 20.7094 51.2875C21.9357 51.0528 23.2852 51.135 24.6406 51.3462H24.6347Z" fill="#FFD2C3"/>
<path d="M53.3639 51.5281C51.7679 51.71 50.1544 51.8449 48.5291 51.9271C48.6171 52.4199 48.7227 52.9128 48.8459 53.3939C48.8459 53.4057 48.8518 53.4174 48.8577 53.4291C50.3187 53.347 51.7738 53.2238 53.2054 53.0654C53.2759 52.5432 53.3287 52.0151 53.3697 51.5222L53.3639 51.5281Z" fill="#FFD2C3"/>
<path d="M39.1547 53.3939C39.278 52.9069 39.3777 52.4199 39.4716 51.9271C37.8463 51.8391 36.2328 51.7041 34.6368 51.5281C34.672 52.0268 34.7248 52.5549 34.8011 53.0712C36.2386 53.2296 37.6879 53.3529 39.1489 53.435C39.1489 53.4233 39.1547 53.4115 39.1606 53.3998L39.1547 53.3939Z" fill="#FFD2C3"/>
<path d="M32.3671 51.2346C30.7124 50.9999 29.0872 50.7183 27.5088 50.3779C27.4853 50.3779 27.4677 50.3662 27.4443 50.3662C27.4736 50.8415 27.5088 51.3754 27.5675 51.9152C29.0285 52.2262 30.5306 52.4902 32.062 52.7191C32.1793 52.2321 32.2849 51.7333 32.3671 51.2346Z" fill="#FFD2C3"/>
<path d="M27.979 37.763C28.1081 35.2517 27.0167 30.2996 23.8366 31.1562C21.7184 31.7254 21.0319 34.2953 21.8475 36.1259C22.6572 37.9448 24.5524 39.312 26.5356 39.4352C27.6152 39.4997 28.0905 38.602 27.979 37.763Z" fill="#C5A7EA"/>
<path d="M32.5547 41.9699C32.3963 41.2541 32.0325 40.7202 31.3988 40.3388C30.7827 39.9691 30.0141 39.9339 29.4332 40.3857C29.3863 40.4092 29.3628 40.4092 29.3394 40.4092C28.8348 40.4855 28.4064 41.0135 28.2773 41.4771C28.1424 41.9758 28.2656 42.6095 28.6705 42.9615C29.3628 43.5659 30.1667 43.8769 31.0879 43.9003C32.1147 43.9238 32.7659 42.9087 32.5547 41.9699Z" fill="#C5A7EA"/>
<path d="M26.2541 42.451C25.5089 41.6296 23.2206 40.151 22.1234 40.8492C21.2139 41.4301 20.457 42.3337 20.7211 43.4896C20.903 44.2934 21.5249 44.9036 22.229 45.285C23.3028 45.86 24.9867 46.435 26.1309 45.7486C27.4217 44.9741 27.1225 43.4074 26.26 42.4569L26.2541 42.451Z" fill="#C5A7EA"/>
<path d="M25.9488 23.3113C25.1743 22.5544 24.0243 22.5427 23.0973 22.9827C22.2993 23.3582 21.8005 24.1973 21.7829 25.0598C21.5424 26.2744 21.8416 27.6708 23.0796 28.1989C23.7309 28.4746 24.4468 28.4101 25.0511 28.0463C25.7259 27.6415 26.1249 26.955 26.4006 26.245C26.7879 25.2593 26.7292 24.0917 25.943 23.3172L25.9488 23.3113Z" fill="#C5A7EA"/>
<path d="M20.8801 37.4988C20.5808 37.0059 20.1173 36.6245 19.5716 36.4485C18.8558 36.2197 18.0285 36.3664 17.4183 36.8006C16.6438 37.3462 16.0923 38.244 16.3504 39.2297C16.4736 39.7108 16.7611 40.057 17.1132 40.3034C17.477 40.7904 18.1693 41.0075 18.7561 40.8726C19.2431 40.7611 19.7359 40.6614 20.2288 40.5675C20.8097 40.4619 21.4258 39.7108 21.3436 39.0947C21.2673 38.5256 21.1852 38.0034 20.8801 37.5047V37.4988Z" fill="#C5A7EA"/>
<path d="M66.2176 32.2652C65.3257 32.3884 64.5747 32.9223 64.0173 33.6147C63.1489 34.6884 61.6586 36.1553 62.8966 37.5459C63.7356 38.4847 65.4489 39.0421 66.6811 38.7898C70.1429 38.0798 70.2779 31.7019 66.2117 32.2652H66.2176Z" fill="#C5A7EA"/>
<path d="M61.7936 40.2155C60.9664 39.488 59.9104 39.3354 59.0304 39.6933C58.6021 39.664 58.1797 39.887 57.8571 40.151C56.9712 40.8668 55.6101 41.7763 55.44 42.985C55.1584 44.9975 57.6635 45.461 59.1243 45.5373C60.4795 45.6077 62.0107 45.2205 62.6619 43.9003C63.2779 42.6505 62.8144 41.1074 61.7995 40.2155H61.7936Z" fill="#C5A7EA"/>
<path d="M66.3816 40.1804C66.1176 40.1687 65.8594 40.2508 65.6306 40.3858C65.079 40.4973 64.5686 40.8611 64.4571 41.4537C64.3573 41.9641 64.3808 42.3983 64.4278 42.9029C64.504 43.7596 65.0614 44.3815 65.9474 44.4285C66.5928 44.4637 67.2383 44.4578 67.8837 44.4285C68.6993 44.3933 69.4092 43.7537 69.4033 42.9029C69.3916 41.1838 67.96 40.2332 66.3816 40.1746V40.1804Z" fill="#C5A7EA"/>
<path d="M63.7182 23.9158C61.3008 24.4438 61.4005 28.2049 61.5296 30.1059C61.6352 31.6139 63.4776 31.96 64.2462 31.1269C64.3636 31.0916 64.4751 31.0388 64.5807 30.9626C65.8129 30.0472 66.8103 28.5686 66.869 26.9903C66.9335 25.3415 65.5019 23.5226 63.7182 23.9099V23.9158Z" fill="#C5A7EA"/>
<path d="M72.313 25.2653C72.1487 24.878 71.7791 24.4438 71.3273 24.3793C71.3097 24.3793 71.2921 24.3793 71.2745 24.3734C70.5704 23.9979 69.6668 24.1563 69.2326 24.8311C69.0977 24.9602 68.992 25.0951 68.9099 25.2359C68.6576 25.7053 68.6517 26.1571 68.7397 26.6734C68.8454 27.2895 69.5964 27.8352 70.2066 27.7941C70.6467 27.7648 71.0691 27.7589 71.4681 27.5418C71.8495 27.3365 72.0314 26.9786 72.2367 26.6265C72.4832 26.2041 72.5008 25.7112 72.313 25.2653Z" fill="#C5A7EA"/>
<path d="M65.6367 18.1481C65.4255 17.9368 65.1673 17.7784 64.8857 17.6963C64.8153 17.6376 64.7331 17.5789 64.6451 17.532C63.9528 17.1623 62.9494 17.3207 62.5622 18.0776C62.1867 18.8228 62.04 19.6853 62.4566 20.454C62.8556 21.1991 63.6418 21.5688 64.4632 21.5746C65.1791 21.5746 65.6954 21.0876 65.9301 20.454C66.2117 19.6795 66.2587 18.7759 65.6367 18.1481Z" fill="#C5A7EA"/>
<path d="M21.4079 28.422C20.8388 27.8822 20.1992 27.6123 19.413 27.6769C18.574 27.7414 17.9168 28.3223 17.8933 29.2024C17.8757 29.8478 18.0811 30.4522 18.6033 30.857C18.9143 31.0976 19.237 31.1797 19.6008 31.2736C19.724 31.303 19.8472 31.3147 19.9763 31.3147C20.0408 31.3147 20.1112 31.3147 20.1758 31.303C20.4691 31.2736 20.7332 31.168 20.962 30.9803C20.9914 30.9568 21.0207 30.9333 21.05 30.904C21.0618 30.8922 21.0735 30.8864 21.0852 30.8746C21.1263 30.8336 21.3082 30.6751 21.2143 30.7338C21.2202 30.728 21.2261 30.7162 21.2319 30.7104C21.5546 30.4405 21.7717 30.1529 21.8304 29.7012C21.8949 29.2318 21.76 28.7506 21.4138 28.4162L21.4079 28.422Z" fill="#C5A7EA"/>
<path d="M28.4951 16.7106C28.4305 16.1591 28.2486 15.6897 27.744 15.3904C27.345 15.1557 26.8228 15.1264 26.3886 15.3142C26.1305 15.3142 25.8664 15.367 25.62 15.5137C24.9629 15.895 24.2588 16.4114 23.9126 17.1155C23.496 17.9486 23.5429 18.905 24.1942 19.6091C25.1389 20.6359 26.9108 20.4482 27.7675 19.4038C28.3894 18.6469 28.6124 17.6846 28.5009 16.7165L28.4951 16.7106Z" fill="#C5A7EA"/>
<path d="M57.3057 72.9324C49.4678 76.1419 39.9814 75.8602 31.9617 73.39C31.4924 73.2434 31.2929 73.9827 31.7622 74.1235C39.8993 76.6289 49.5558 76.9223 57.511 73.6658C57.9569 73.4839 57.7633 72.7446 57.3116 72.9324H57.3057Z" fill="#9963DA"/>
<path d="M44.4869 76.6817C40.2512 76.6817 35.8688 76.0245 31.5803 74.7044C31.24 74.5988 30.9877 74.3347 30.9115 73.9885C30.8293 73.6365 30.9467 73.2492 31.2107 73.0087C31.4571 72.774 31.8091 72.6977 32.1435 72.8033C40.7968 75.4671 49.8843 75.3087 57.0768 72.3633C57.5696 72.1638 58.0917 72.3809 58.2912 72.8737C58.5083 73.4077 58.2619 74.012 57.7397 74.2291C53.7504 75.8603 49.2155 76.6817 44.4869 76.6817Z" fill="#9963DA"/>
</g>
<defs>
<clipPath id="clip0_894_2040">
<rect width="88" height="88" rx="12" fill="white"/>
</clipPath>
</defs>
</svg>
