<svg width="33" height="32" viewBox="0 0 33 32" fill="none" xmlns="http://www.w3.org/2000/svg">
<path d="M10.25 2L6.25 2C4.04086 2 2.25 3.79086 2.25 6V10" stroke="#7957A3" stroke-opacity="0.5" stroke-width="2" stroke-linecap="round"/>
<path d="M22.25 30L26.25 30C28.4591 30 30.25 28.2091 30.25 26L30.25 22" stroke="#7957A3" stroke-opacity="0.5" stroke-width="2" stroke-linecap="round"/>
<path d="M30.25 10L30.25 6C30.25 3.79086 28.4591 2 26.25 2L22.25 2" stroke="#7957A3" stroke-opacity="0.5" stroke-width="2" stroke-linecap="round"/>
<path d="M2.25 22L2.25 26C2.25 28.2091 4.04086 30 6.25 30L10.25 30" stroke="#7957A3" stroke-opacity="0.5" stroke-width="2" stroke-linecap="round"/>
<path d="M7.25 14.7143V7H14.9643V14.7143H7.25ZM9.82143 9.57143V12.1429H12.3929V9.57143H9.82143ZM17.5357 7H25.25V14.7143H17.5357V7ZM22.6786 12.1429V9.57143H20.1071V12.1429H22.6786ZM7.25 25V17.2857H14.9643V25H7.25ZM9.82143 19.8571V22.4286H12.3929V19.8571H9.82143ZM23.9643 17.2857H25.25V19.8571H21.3929H20.1071V25H17.5357V17.2857H21.3929H23.9643Z" fill="#7957A3" fill-opacity="0.5"/>
</svg>
