<svg width="121" height="120" viewBox="0 0 121 120" fill="none" xmlns="http://www.w3.org/2000/svg">
<g clip-path="url(#clip0_9008_2656)">
<mask id="mask0_9008_2656" style="mask-type:alpha" maskUnits="userSpaceOnUse" x="0" y="0" width="121" height="120">
<circle cx="60.5" cy="60" r="60" fill="#D9D9D9"/>
</mask>
<g mask="url(#mask0_9008_2656)">
<circle cx="60.5" cy="60" r="60" fill="#FFEDE3"/>
<path d="M33.3114 100.146L22.3005 218.753C22.3005 218.753 60.9543 230.324 98.4534 218.753L85.811 102.268L33.3114 100.146Z" fill="#070904"/>
<path d="M111.632 112.681C105.632 107.432 86.5606 92.1099 80.4534 89.3237C74.3463 86.5376 68.2391 85.2519 61.5958 85.1992C46.7266 85.0796 19.2483 99.9052 13.3815 103.842C7.51483 107.779 6.22912 113.003 11.2923 117.021C16.3554 121.038 32.747 132.852 39.4173 135.824L32.1851 251.217L20.1315 262.949C20.1315 262.949 46.328 262.788 46.0066 262.949C45.6851 263.11 55.328 165.074 55.328 165.074L60.7923 165.556L71.2387 262.949H99.7391L86.0244 253.467L77.882 140.967C77.882 140.967 101.24 133.681 108.846 127.895C116.452 122.109 117.632 117.932 111.632 112.681ZM37.8911 125.137C37.6494 125.137 25.4364 115.655 20.1328 112.36L39.4983 102.154L39.9804 124.172C39.9804 124.172 38.1328 125.137 37.8911 125.137ZM83.561 128.218L80.8828 126.504L81.8086 103.694L103.261 120.075C98.2091 121.36 83.561 128.218 83.561 128.218Z" fill="#AF1414"/>
<path d="M61.5971 85.1992C55.5118 85.1503 47.3154 87.6047 39.3517 90.792C40.2633 100.611 43.5984 118.659 60.5261 119.325C75.5574 119.916 81.8664 99.8164 83.867 91.2716C82.5105 90.4063 81.3431 89.73 80.4547 89.325C74.3463 86.5389 68.2391 85.2532 61.5971 85.1992Z" fill="#DD2D54"/>
<path d="M108.847 119.337C109.237 121.134 110.585 123.372 111.964 125.253C116.411 120.969 116.648 117.438 112.286 113.292C110.265 115.041 108.409 117.318 108.847 119.337Z" fill="black"/>
<path d="M15.6328 111.61C15.5043 108.321 13.4368 106.204 11.8104 105.034C7.33997 108.792 6.72669 113.395 11.2935 117.021C11.4131 117.116 11.5674 117.234 11.6985 117.337C13.6863 116.268 15.7447 114.472 15.6328 111.61Z" fill="black"/>
<path d="M61.5971 90.6312C59.4667 90.6312 57.74 88.9045 57.74 86.7741V78.3102C57.74 76.1798 59.4667 74.4531 61.5971 74.4531C63.7275 74.4531 65.4543 76.1798 65.4543 78.3102V86.7741C65.4543 88.9045 63.7263 90.6312 61.5971 90.6312Z" fill="#F8B79B"/>
<path d="M94.5821 50.9477C93.8711 50.9477 93.1833 51.0429 92.5224 51.2036C92.6831 49.9076 92.7757 48.5897 92.7757 47.25C92.7757 29.6756 78.5287 15.4286 60.9543 15.4286C43.3798 15.4286 29.1328 29.6756 29.1328 47.25C29.1328 49.3226 29.3373 51.3463 29.7165 53.3083C25.5238 53.9216 22.3018 57.5216 22.3018 61.8853C22.3018 66.6784 26.1873 70.5638 30.9804 70.5638C33.3063 70.5638 35.4148 69.6433 36.9731 68.1531C42.8064 74.8401 51.3834 79.0714 60.9556 79.0714C72.0821 79.0714 81.8703 73.3564 87.5583 64.7061C89.1346 66.8828 91.6906 68.3049 94.5834 68.3049C99.3766 68.3049 103.262 64.4194 103.262 59.6263C103.261 54.8331 99.3753 50.9477 94.5821 50.9477Z" fill="#F8B79B"/>
<path d="M37.9181 61.3812C37.9181 60.9531 62.3467 51.6047 62.3467 51.6047L84.5253 61.3812L86.3471 42.9531H36.0975L37.9181 61.3812Z" fill="#DD2D54"/>
<path d="M60.9543 15.4286C43.3798 15.4286 29.1328 29.6756 29.1328 47.25C29.1328 49.3226 29.3373 51.3463 29.7165 53.3083C29.7165 53.3083 31.6245 53.9614 35.24 53.9614C35.24 53.9614 35.24 62.64 37.7317 63.0424C40.2234 63.4448 40.2234 53.3096 40.2234 53.3096C40.2234 53.3096 57.0187 46.3281 67.2234 36.3638C67.2234 36.3638 79.358 47.7745 83.2948 50.8281C83.2948 50.8281 81.0448 62.3996 84.5806 62.4806C88.1163 62.5616 88.277 53.1591 88.277 53.1591L92.5237 51.2048C92.6844 49.9088 92.777 48.591 92.777 47.2513C92.7757 29.6756 78.5287 15.4286 60.9543 15.4286Z" fill="#6768E6"/>
<path d="M56.5606 50.2919C56.5606 48.8715 55.4096 47.7205 53.9891 47.7205C52.5687 47.7205 51.4177 48.8715 51.4177 50.2919C51.4177 51.7124 52.5687 52.8634 53.9891 52.8634C55.4096 52.8634 56.5606 51.7124 56.5606 50.2919Z" fill="#070904"/>
<path d="M79.1677 50.2919C79.1677 48.8715 78.0167 47.7205 76.5963 47.7205C75.1758 47.7205 74.0249 48.8715 74.0249 50.2919C74.0249 51.7124 75.1758 52.8634 76.5963 52.8634C78.0167 52.8634 79.1677 51.7124 79.1677 50.2919Z" fill="#070904"/>
<path d="M43.2169 42.9157C43.7875 46.2476 53.6945 43.5198 53.3121 41.6256C52.9297 39.7315 42.7745 40.3309 43.2169 42.9157Z" fill="#070904"/>
<path d="M82.6006 42.2216C82.9117 45.5876 72.6363 45.5169 72.5154 43.5883C72.3946 41.6584 82.3589 39.609 82.6006 42.2216Z" fill="#070904"/>
<path d="M62.4007 52.8094L64.7034 54.792L62.4007 55.863" stroke="#DE7651" stroke-width="1.48815" stroke-miterlimit="10" stroke-linecap="round" stroke-linejoin="round"/>
<path d="M56.1328 62.64L61.9185 63.0539" stroke="#DE7651" stroke-width="1.48815" stroke-miterlimit="10" stroke-linecap="round" stroke-linejoin="round"/>
</g>
</g>
<defs>
<clipPath id="clip0_9008_2656">
<rect width="120" height="120" fill="white" transform="translate(0.5)"/>
</clipPath>
</defs>
</svg>
