<svg width="141" height="140" viewBox="0 0 141 140" fill="none" xmlns="http://www.w3.org/2000/svg">
<path d="M111.547 44.5789L30.5314 59.9192C27.7209 60.4514 25.8721 63.1513 26.4019 65.9497L37.5758 124.961C38.1056 127.759 40.8136 129.596 43.6241 129.064L124.64 113.724C127.45 113.191 129.299 110.492 128.769 107.693L117.595 48.6822C117.065 45.8838 114.357 44.0467 111.547 44.5789Z" fill="#662A00"/>
<ellipse cx="15.321" cy="15.3209" rx="15.321" ry="15.3209" transform="matrix(0.866026 0.5 -0.500001 0.866025 85.2103 18.5288)" fill="#FFE500"/>
<path d="M103.221 46.6181C99.2659 53.4677 90.5073 55.8145 83.6577 51.8599C76.8081 47.9053 74.4612 39.1467 78.4159 32.2971C82.3705 25.4475 91.1291 23.1007 97.9787 27.0553C104.828 31.0099 107.175 39.7685 103.221 46.6181Z" stroke="black" stroke-opacity="0.1" stroke-width="2"/>
<path fill-rule="evenodd" clip-rule="evenodd" d="M94.0386 41.4969L97.3742 43.4228L94.248 48.8376C92.982 49.2601 91.6369 49.3907 90.3134 49.2196C88.9898 49.0485 87.7221 48.5802 86.6053 47.8497C85.5127 47.2092 84.5628 46.3519 83.814 45.3306C83.0651 44.3093 82.5331 43.1456 82.2508 41.911C81.8105 39.6593 82.2233 37.3243 83.4091 35.36C83.987 34.3403 84.7604 33.4446 85.6851 32.7243C86.6098 32.004 87.6674 31.4732 88.7976 31.1623C89.9483 30.834 91.1537 30.7423 92.3409 30.8926C93.528 31.043 94.6724 31.4323 95.705 32.0371C97.9764 33.3675 99.6873 35.4774 100.52 37.9746L96.8323 39.2258C96.7 38.395 96.3796 37.6055 95.8955 36.9175C95.4114 36.2295 94.7765 35.6612 94.0393 35.256C92.8554 34.6026 91.4616 34.4425 90.1604 34.8104C89.4549 34.9716 88.7899 35.2755 88.2063 35.7035C87.6227 36.1314 87.1328 36.6743 86.7669 37.2986C86.3845 37.9306 86.135 38.634 86.0337 39.3657C85.9324 40.0975 85.9815 40.8422 86.1779 41.5543C86.5151 42.8137 87.2891 43.9122 88.3617 44.6534C89.3324 45.2858 90.4547 45.6471 91.612 45.6998L94.0386 41.4969Z" fill="#A89414"/>
<ellipse cx="15.321" cy="15.3209" rx="15.321" ry="15.3209" transform="matrix(0.707107 -0.707106 0.707108 0.707106 57.1186 56.1177)" fill="#FFE500"/>
<path d="M88.9122 45.9912C94.5048 51.5839 94.5048 60.6514 88.9122 66.2441C83.3195 71.8368 74.2519 71.8368 68.6593 66.2441C63.0666 60.6514 63.0666 51.5839 68.6593 45.9912C74.2519 40.3986 83.3195 40.3986 88.9122 45.9912Z" stroke="black" stroke-opacity="0.1" stroke-width="2"/>
<path fill-rule="evenodd" clip-rule="evenodd" d="M81.5892 53.5346L84.3127 50.811L88.7339 55.2322C88.8144 56.5644 88.5924 57.8974 88.0846 59.1316C87.5768 60.3658 86.7963 61.469 85.8016 62.3588C84.9002 63.2483 83.8263 63.944 82.646 64.403C81.4656 64.862 80.2039 65.0747 78.9383 65.0278C76.6493 64.8703 74.5007 63.8672 72.9102 62.2135C72.0748 61.3914 71.4099 60.4124 70.9534 59.3329C70.497 58.2533 70.258 57.0943 70.2503 55.9222C70.231 54.7257 70.4543 53.5377 70.9068 52.4299C71.3593 51.322 72.0316 50.3174 72.883 49.4765C74.7559 47.6269 77.2368 46.5203 79.8643 46.3626L80.1185 50.2482C79.2818 50.161 78.4362 50.2662 77.6464 50.5557C76.8565 50.8452 76.1433 51.3114 75.5611 51.9186C74.6236 52.893 74.1081 54.1979 74.1267 55.55C74.0999 56.2732 74.2213 56.9942 74.4836 57.6687C74.7459 58.3432 75.1435 58.9568 75.6519 59.4718C76.1634 60.0048 76.7782 60.4279 77.4588 60.7151C78.1394 61.0023 78.8714 61.1477 79.6101 61.1423C80.9139 61.1425 82.1753 60.6791 83.1689 59.835C84.031 59.061 84.6704 58.0705 85.0209 56.9662L81.5892 53.5346Z" fill="#A89414"/>
<ellipse cx="15.321" cy="15.3209" rx="15.321" ry="15.3209" transform="matrix(0.866026 0.5 -0.500001 0.866025 53.7411 26.8589)" fill="#FFE500"/>
<path d="M71.7513 54.9481C67.7966 61.7977 59.0381 64.1446 52.1885 60.19C45.3389 56.2354 42.992 47.4768 46.9466 40.6272C50.9013 33.7776 59.6598 31.4308 66.5094 35.3854C73.359 39.34 75.7059 48.0985 71.7513 54.9481Z" stroke="black" stroke-opacity="0.1" stroke-width="2"/>
<path fill-rule="evenodd" clip-rule="evenodd" d="M62.5693 49.827L65.905 51.7528L62.7787 57.1677C61.5128 57.5902 60.1677 57.7208 58.8441 57.5497C57.5206 57.3786 56.2529 56.9103 55.136 56.1797C54.0435 55.5393 53.0936 54.682 52.3447 53.6607C51.5959 52.6394 51.0639 51.4757 50.7816 50.2411C50.3413 47.9894 50.7541 45.6543 51.9398 43.6901C52.5178 42.6703 53.2912 41.7747 54.2159 41.0544C55.1405 40.3341 56.1982 39.8033 57.3283 39.4924C58.4791 39.1641 59.6844 39.0724 60.8716 39.2227C62.0588 39.3731 63.2032 39.7624 64.2358 40.3672C66.5071 41.6975 68.2181 43.8075 69.0505 46.3047L65.3631 47.5558C65.2308 46.7251 64.9103 45.9356 64.4263 45.2476C63.9422 44.5595 63.3073 43.9913 62.5701 43.5861C61.3862 42.9327 59.9924 42.7725 58.6912 43.1405C57.9857 43.3017 57.3206 43.6056 56.737 44.0335C56.1534 44.4615 55.6636 45.0043 55.2977 45.6287C54.9152 46.2607 54.6657 46.9641 54.5644 47.6958C54.4632 48.4276 54.5122 49.1723 54.7086 49.8844C55.0459 51.1438 55.8199 52.2422 56.8924 52.9835C57.8632 53.6159 58.9854 53.9772 60.1428 54.0299L62.5693 49.827Z" fill="#A89414"/>
<ellipse cx="15.321" cy="15.3209" rx="15.321" ry="15.3209" transform="matrix(0.866026 0.5 -0.500001 0.866025 31.5269 39.8169)" fill="#FFE500"/>
<path d="M49.537 67.9062C45.5824 74.7558 36.8238 77.1026 29.9742 73.148C23.1246 69.1934 20.7778 60.4348 24.7324 53.5852C28.687 46.7356 37.4456 44.3888 44.2952 48.3434C51.1448 52.298 53.4917 61.0566 49.537 67.9062Z" stroke="black" stroke-opacity="0.1" stroke-width="2"/>
<path fill-rule="evenodd" clip-rule="evenodd" d="M40.3554 62.7845L43.691 64.7104L40.5647 70.1252C39.2988 70.5477 37.9537 70.6783 36.6302 70.5072C35.3066 70.3361 34.0389 69.8678 32.922 69.1373C31.8295 68.4968 30.8796 67.6395 30.1307 66.6182C29.3819 65.5969 28.8499 64.4332 28.5676 63.1986C28.1273 60.9469 28.5401 58.6119 29.7258 56.6476C30.3038 55.6279 31.0772 54.7322 32.0019 54.0119C32.9265 53.2916 33.9842 52.7608 35.1144 52.4499C36.2651 52.1216 37.4704 52.0299 38.6576 52.1802C39.8448 52.3306 40.9892 52.7199 42.0218 53.3247C44.2931 54.6551 46.0041 56.765 46.8365 59.2622L43.1491 60.5134C43.0168 59.6826 42.6963 58.8931 42.2123 58.2051C41.7282 57.5171 41.0933 56.9488 40.3561 56.5436C39.1722 55.8902 37.7784 55.7301 36.4772 56.098C35.7717 56.2592 35.1067 56.5631 34.523 56.9911C33.9394 57.419 33.4496 57.9619 33.0837 58.5862C32.7012 59.2182 32.4517 59.9216 32.3505 60.6533C32.2492 61.3851 32.2982 62.1298 32.4946 62.8419C32.8319 64.1013 33.6059 65.1998 34.6785 65.941C35.6492 66.5734 36.7714 66.9347 37.9288 66.9874L40.3554 62.7845Z" fill="#A89414"/>
<ellipse cx="101.649" cy="24.1172" rx="15.321" ry="15.3209" transform="rotate(-15 101.649 24.1172)" fill="#FFE500"/>
<path d="M115.482 20.4107C117.529 28.0504 112.996 35.9031 105.356 37.9502C97.7162 39.9973 89.8635 35.4635 87.8164 27.8238C85.7694 20.184 90.3031 12.3313 97.9429 10.2843C105.583 8.23721 113.435 12.771 115.482 20.4107Z" stroke="black" stroke-opacity="0.1" stroke-width="2"/>
<path fill-rule="evenodd" clip-rule="evenodd" d="M105.369 23.2823L109.089 22.2855L110.707 28.3249C110.111 29.5188 109.252 30.5623 108.195 31.3772C107.138 32.1921 105.911 32.7573 104.605 33.0305C103.379 33.3502 102.101 33.4157 100.85 33.2231C99.5979 33.0304 98.3988 32.5837 97.3262 31.9104C95.4227 30.6295 94.0635 28.6864 93.5129 26.4591C93.2006 25.3294 93.1141 24.1491 93.2586 22.9859C93.4031 21.8228 93.7757 20.6996 94.355 19.6806C94.9366 18.6348 95.724 17.7176 96.6698 16.9845C97.6156 16.2513 98.7001 15.7174 99.8579 15.4149C102.405 14.7495 105.106 15.0316 107.461 16.2088L105.738 19.7009C105.057 19.207 104.272 18.8753 103.444 18.7311C102.615 18.5869 101.764 18.634 100.956 18.8689C99.657 19.2439 98.5582 20.1163 97.8982 21.2965C97.5134 21.9094 97.258 22.5945 97.148 23.3098C97.0379 24.0251 97.0754 24.7553 97.2581 25.4555C97.4346 26.1729 97.7555 26.8467 98.2013 27.4357C98.6471 28.0247 99.2084 28.5166 99.8508 28.8813C100.98 29.5333 102.304 29.7627 103.586 29.5285C104.72 29.2892 105.769 28.7512 106.625 27.9701L105.369 23.2823Z" fill="#A89414"/>
<path d="M109.899 50.1392L121.073 109.15C121.602 111.948 119.754 114.648 116.943 115.18L35.9271 130.521C33.1166 131.053 30.4092 129.216 29.8793 126.417L18.7056 67.4068C18.2994 65.2618 19.2905 63.175 21.041 62.0768C21.5741 61.7425 22.1778 61.5002 22.8344 61.3759L103.85 46.0355C104.249 45.9599 104.646 45.932 105.035 45.9487C105.365 45.9623 105.689 46.0069 106.004 46.0806C107.446 46.4195 108.692 47.3674 109.391 48.6875C109.627 49.1317 109.8 49.6187 109.899 50.1387L109.899 50.1392Z" fill="#843B00"/>
<path d="M120.155 67.9272L89.3845 73.7537C87.6849 74.0755 86.5669 75.7082 86.8873 77.4005L89.6874 92.1882C90.0078 93.8804 91.6453 94.9914 93.3449 94.6695L124.116 88.8431C125.815 88.5212 126.933 86.8885 126.613 85.1963L123.813 70.4086C123.492 68.7164 121.855 67.6054 120.155 67.9272Z" fill="#662A00"/>
<path d="M104.598 86.3021C106.596 83.3856 105.843 79.4126 102.918 77.4281C99.993 75.4436 96.0027 76.1992 94.0056 79.1157C92.0085 82.0322 92.7607 86.0052 95.6859 87.9897C98.611 89.9741 102.601 89.2186 104.598 86.3021Z" fill="#CCCCCC"/>
</svg>
